<svg enable-background="new 0 0 512 512" viewBox="0 0 512 512" xmlns="http://www.w3.org/2000/svg"><path d="m0 85.331h512v341.337h-512z" fill="#ffda44"/><path d="m0 85.331h170.663v341.337h-170.663z" fill="#0052b4"/><g fill="#d80027"><path d="m341.337 85.331h170.663v341.337h-170.663z"/><path d="m256 315.356c0-27.234 0-59.362 0-59.362h44.522v22.261c0 3.868-7.421 18.038-25.735 29.682-6.938 4.411-14.118 5.829-18.787 7.419z"/><path d="m211.478 211.473h44.522v44.522h-44.522z"/></g><path d="m278.261 196.632c0-8.196-6.645-14.84-14.84-14.84-2.707 0-5.236.736-7.421 2.001-2.185-1.266-4.714-2.001-7.421-2.001-8.195 0-14.84 6.644-14.84 14.84h-37.101v74.202c0 27.624 21.938 43.599 39.14 51.88-1.288 2.198-2.039 4.75-2.039 7.483 0 8.196 6.645 14.84 14.84 14.84 2.707 0 5.236-.736 7.421-2.001 2.185 1.266 4.714 2.001 7.421 2.001 8.195 0 14.84-6.644 14.84-14.84 0-2.733-.751-5.284-2.04-7.483 17.203-8.281 39.141-24.257 39.141-51.88v-74.202zm14.84 74.203c0 3.868 0 15.635-18.314 27.279-6.936 4.411-14.118 7.27-18.787 8.861-4.669-1.591-11.849-4.45-18.787-8.861-18.314-11.644-18.314-23.411-18.314-27.278v-51.941h74.203v51.941h-.001z" fill="#ff9811"/></svg>