<svg enable-background="new 0 0 512 512" viewBox="0 0 512 512" xmlns="http://www.w3.org/2000/svg"><path d="m0 85.331h512v341.326h-512z" fill="#d80027"/><path d="m330.207 85.331h181.793v341.337h-181.793z" fill="#496e2d"/><path d="m0 85.331h181.793v341.337h-181.793z"/><g fill="#ffda44"><path d="m256 196.632c-32.785 0-59.362 26.577-59.362 59.362s26.577 59.362 59.362 59.362 59.362-26.577 59.362-59.362-26.577-59.362-59.362-59.362zm0 96.463c-20.491 0-37.101-16.611-37.101-37.101s16.61-37.101 37.101-37.101 37.101 16.61 37.101 37.101-16.61 37.101-37.101 37.101z"/><path d="m256 233.734c-8.196 0-14.84 6.644-14.84 14.84v22.261h29.682v-22.261c-.002-8.197-6.646-14.84-14.842-14.84z"/></g></svg>