<svg enable-background="new 0 0 512 512" viewBox="0 0 512 512" xmlns="http://www.w3.org/2000/svg"><path d="m0 85.337h512v341.326h-512z"/><path d="m88.751 221.865c-2.239 11.029-3.417 22.443-3.417 34.134 0 11.69 1.179 23.105 3.417 34.134l167.249 10.386 167.249-10.388c2.239-11.029 3.417-22.443 3.417-34.134s-1.179-23.105-3.417-34.134" fill="#0052b4"/><path d="m423.249 290.131h-334.498c15.813 77.9 84.683 136.534 167.249 136.534s151.436-58.634 167.249-136.534z" fill="#f0f0f0"/><path d="m330.203 221.865h-148.406l30.32-14.262-16.146-29.365 32.923 6.298 4.174-33.26 22.932 24.462 22.933-24.462 4.172 33.26 32.924-6.298-16.145 29.366z" fill="#ffda44"/><g fill="#a2001d"><path d="m255.997 426.661-255.997-341.326v341.326z"/><path d="m512 426.661v-341.326l-255.997 341.326z"/></g></svg>