<svg enable-background="new 0 0 512 512" viewBox="0 0 512 512" xmlns="http://www.w3.org/2000/svg"><path d="m0 85.334h512v341.337h-512z" fill="#0052b4"/><path d="m427.757 295.819c4.907-6.752 8.185-14.997 8.185-24.982v-74.203c-6.202 4.659-13.907 7.421-22.261 7.421-12.138 0-22.912-5.829-29.682-14.839-6.77 9.01-17.544 14.839-29.682 14.839-8.353 0-16.059-2.761-22.261-7.418v74.201c0 9.985 3.278 18.232 8.185 24.982h87.516z" fill="#f3f3f3"/><path d="m412.32 257.071c2.362-5.763 4.2-14.188 4.2-18.382 0-6.737-8.783-12.198-8.783-12.198s-8.783 5.461-8.783 12.198c0 4.194 1.838 12.619 4.2 18.382l-5.07 11.448c2.98 1.212 6.237 1.885 9.653 1.885s6.673-.673 9.653-1.885z" fill="#ff9811"/><path d="m377.994 220.004c-6.171.836-14.385 3.459-18.017 5.556-5.835 3.369-6.173 13.704-6.173 13.704s9.121 4.875 14.955 1.507c3.632-2.097 10.008-7.9 13.816-12.828l12.451-1.333c-.441-3.186-1.488-6.343-3.194-9.302-1.71-2.958-3.919-5.444-6.459-7.418z" fill="#ff9811"/><path d="m363.059 268.267c3.809 4.925 10.187 10.728 13.818 12.824 5.835 3.368 14.955-1.507 14.955-1.507s-.339-10.336-6.173-13.705c-3.633-2.097-11.846-4.717-18.019-5.552l-7.378-10.115c-2.539 1.975-4.75 4.461-6.459 7.416-1.707 2.96-2.753 6.116-3.194 9.304z" fill="#ff9811"/><path d="m338.408 293.099c13.859 22.236 45.592 29.679 45.592 29.679s31.733-7.443 45.592-29.679z" fill="#338af3"/><path d="m256 186.665h-111.994v69.331h15.994v-48.918l73.372 48.918h22.628l-80.006-53.337h22.628l57.378 38.256v-7.535l-46.069-30.72h46.069z" fill="#f0f0f0"/><path d="m175.994 138.66 80.006-53.326h-22.628l-73.372 48.907v-48.907h-15.994v69.331h111.994v-16.005h-46.069l46.069-30.709v-7.535l-57.377 38.244z" fill="#f0f0f0"/><path d="m96 85.334v48.907l-73.372-48.907h-22.628l80.006 53.326h-22.629l-57.377-38.245v7.536l46.069 30.709h-46.069v16.006h111.994v-69.332z" fill="#f0f0f0"/><path d="m0 186.665v15.994h46.069l-46.069 30.721v7.535l57.377-38.255h22.628l-80.005 53.337h22.628l73.372-48.919v48.918h15.994v-69.331z" fill="#f0f0f0"/><g fill="#d80027"><path d="m144 85.329h-32v69.334h-112v32h112v69.334h32v-69.334h112v-32h-112z"/><path d="m80 138.663-80-53.334v15.083l57.377 38.251z"/><path d="m176 138.663h22.623l57.377-38.251v-15.083z"/><path d="m57.377 202.663-57.377 38.252v15.082l80-53.334z"/><path d="m176 202.663 80 53.334v-15.082l-57.377-38.252z"/></g></svg>