<svg enable-background="new 0 0 512 512" viewBox="0 0 512 512" xmlns="http://www.w3.org/2000/svg"><path d="m0 85.331h512v341.337h-512z" fill="#d80027"/><path d="m352.464 212h-61.817c3.817-3.996 6.165-9.405 6.165-15.368 0-12.295-9.966-22.261-22.261-22.261-7.745 0-14.563 3.957-18.551 9.958-3.988-6-10.805-9.958-18.551-9.958-12.295 0-22.261 9.966-22.261 22.261 0 5.963 2.349 11.372 6.165 15.368h-61.817c0 16.393 14.278 29.68 30.67 29.68h-.988c0 16.393 13.289 29.682 29.682 29.682 0 5.309 1.399 10.287 3.842 14.595l-24.619 24.621 18.888 18.888 26.794-26.794c1.05.385 2.136.692 3.257.903l-16.191 36.557 25.129 27.167 25.13-27.167-16.191-36.557c1.122-.21 2.207-.518 3.257-.903l26.794 26.794 18.888-18.888-24.621-24.621c2.443-4.309 3.842-9.286 3.842-14.595 16.393 0 29.682-13.289 29.682-29.682h-.988c16.393.001 30.671-13.287 30.671-29.68z"/></svg>