<svg fill="none" height="512" viewBox="0 0 512 512" width="512" xmlns="http://www.w3.org/2000/svg" xmlns:xlink="http://www.w3.org/1999/xlink"><clipPath id="a"><path d="m0 85h512v341.33h-512z"/></clipPath><g clip-path="url(#a)"><path clip-rule="evenodd" d="m.0012207 85h512.0027793v341.33h-512.0027793z" fill="#3a7dce" fill-rule="evenodd"/><path d="m147.865 245.232c-2.31-4.199-2.31-4.199-2.31-8.397-1.155 0-1.371.197-2.039.032-.668-.163-.92 3.872-3.086 3.084-.36-.394 1.553-3.312-.523-4.525-.668-.396.163-2.79-.127-3.84 0 0-2.634 1.246-4.619-3.148-.975-1.149-2.31 1.049-2.31 1.049s.577 1.345-.469 1.673c-1.48-.984-2.563-.468-4.44-1.821-1.876-1.353.398-2.903-3.176-4.051 2.31-5.248 2.31-4.199 8.085-6.298-3.465-2.1-3.465-2.1-5.774-5.249-3.465-1.049-4.62-2.099-8.085-4.198-4.62-5.249-6.93-15.745-6.93-23.093 2.924-2.461 6.93 8.397 12.705 11.546l8.085 3.149c4.62 2.1 5.775 4.198 9.24 6.298l10.395 3.149c4.62 3.149 6.93 7.348 10.395 8.398 3.753 0 4.477-1.966 5.68-2.088 6.79-.316 10.256-1.111 11.609-2.964 1.371-1.476 4.655.852 13.895-2.296l-1.155-4.2s2.455-1.836 5.775-1.049c-.09-1.919-.308-7.036 2.964-9.344-1.987-1.894-.654-3.252-.654-3.252s1.841-1.608 2.057-2.46c-.973-4.626.845-4.697 1.253-6.058.408-1.36-1.571-.894-1.013-2.77.557-1.876 3.902-2.322 4.35-3.867.45-1.546-.953-2.321-.872-2.69.721-1.476.109-4.953 0-6.298 6.208-1.509 8.23-6.101 10.395-4.198 1.155-6.299 2.31-8.398 9.24-8.398.975-1.935-2.528-3.576-1.155-4.198 2.31-.263 4.078-.132 6.786 3.05.855 1.008 1.01-1.476 1.876-1.738.866-.263 2.94-.267 3.248-1.51.325-1.279.795-2.952 1.95-5.051.974-1.706 1.732.656 2.598 4.002 4.873.164 15.881 1.148 20.5 2.296 3.465.82 5.775-.82 9.096-1.148 2.454 2.231 4.764.557 6.063 5.314 1.834 2.567 4.836.23 5.487.984 3.862 9.677 17.144 3.149 18.154 3.313 1.695 0 3.767 4.327 5.102 4.22 2.171-.332 1.557-1.678 3.451-1.136-.505 3.641 3.719 7.839 3.719 10.562 0 0 1.027.46 1.98-.349.952-.806 1.827-2.882 2.675-2.833 2.021.263 2.84.499 5.17.869 6.262 1.944 9.452 2.383 11.884 3.38 1.132 1.882 2.228 2.845 4.522 2.493 1.895 1.157.513 2.673 1.632 2.771 2.31-1.05 3.067-2.198 5.377-1.148s4.62 3.15 5.775 5.249c0 1.049-1.155 5.248 0 11.546.578 2.1.858 3.764 3.339 7.365-.66 3.698 3.122 9.922 3.122 11.497 0 2.098-1.841 3.182-2.996 5.28 4.62 3.15 0 8.398-2.31 11.547 17.325 3.149 9.24 9.447 23.1 6.298-3.465 7.348-2.238 6.758 1.227 14.106-6.93 4.199-.144 5.478-4.764 10.726-.288.328 2.742 4.56 7.002 4.56-1.155 8.397-4.62 5.248-3.465 17.844-9.096-.163-5.415 9.415-11.55 8.397.36 6.004 3.501 6.528 2.31 12.596-4.62 1.05-4.62 1.05-6.93 4.199l-3.465-1.05c-1.155 5.249-3.465 6.298 0 11.547 0 0-4.476.131-5.775 0-.108 1.805 1.986 2.297 2.31 4.199-.18.754-6.57 4.067-11.55 4.199-1.299 2.591 3.465 5.347 3.177 6.659-5.415.951-7.797 6.986-7.797 6.986s2.779 1.017 2.31 2.1c-1.479-.985-2.31-1.05-4.62-1.05-1.155.263-3.969-.064-6.669 4.076-2.962.888-4.36.567-6.607 3.267-.995-2.572-2.426.025-4.176 1.023-1.748 1-4.103 3.484-4.42 3.378.073-.722 1.083-3.347 1.083-3.347l-5.775 1.05-.711.065c-.454.041-.333-3.064-1.427-2.951s-4.226 3.904-5.293 4.023c-1.065.119-1.402-1.207-2.321-1.091-.918.116-2.708 4-3.359 4.102-.65.104-3.229-2.36-5.439-2.016-11.37 3.642-13.176-7.184-14.943-1.082-2.382-1.148-1.97-.482-4.39.094-1.545.362-1.685-1.855-3.059-1.821-2.748.071-2.603 2.433-4.101 1.727-1.227-4.92-8.627-4.036-9.348-6.134-.587-2.19 3.206-2.18 4.432-3.663.938-2.14-.979-2.953 2.827-5.018 4.96-3.049 2.109-4.199 2.978-6.49 1.556-3.31 1.565-4.117.266-7.036 0 0-3.863-9.448-4.62-9.448-2.31-.59-2.31 3.477-5.703 4.593-6.93 2.099-19.164-5.315-21.294-5.315-1.948.034-10.974 1.943-10.634-2.148-1.349 3.978-6.312.935-6.618.935-4.62 0-2.851 3.247-5.956 3.116-1.408-.427-15.627-1.181-15.627-1.181v2.1l-9.24-4.2-8.085-2.098c-6.93-2.1-3.465-7.348-15.015-4.2v-6.297h-5.775c2.31-12.597 0-6.298-1.155-17.845l-4.62 1.05c-4.62-5.675 6.424-4.593-3.465-8.397 0 0 .18-6.266-2.31-4.2-.505.263 1.155 3.15 1.155 3.15-9.24-1.05-11.55-3.15-11.55-11.547 0 0 7.616.985 6.93 0-1.083-1.574-2.49-11.808-2.238-12.498-.108-1.378 7.075-4.854 5.685-8.168.885-.296 3.483-.327 3.483-.327" fill="#fff"/><g stroke="#fff" stroke-linejoin="round"><path d="m459.662 287.171c-.369.739-.303 1.477.078 2.004.686-.914.107-1.336-.078-2.004z" stroke-linecap="round" stroke-width="8.23608"/><path d="m162.632 204.292s-1.937-.211-1.502 1.3c.633-1.16 1.463-1.229 1.502-1.3zm.435-3.513c-1.067.035-2.372-.14-1.937 1.37.633-1.16 1.898-1.3 1.937-1.37zm7.29 20.132s1.661-.105 1.226 1.406c-.633-1.16-1.185-1.335-1.226-1.406z" stroke-width="7.71973"/></g></g></svg>