<svg enable-background="new 0 0 512 512" viewBox="0 0 512 512" xmlns="http://www.w3.org/2000/svg"><path d="m0 83.923h512v341.326h-512z" fill="#0052b4"/><path d="m512 108.546-452.301 149.747 452.301 149.745v20.039l-512-169.784 512-169.785z" fill="#d80027"/><path d="m512 374.201v33.837l-452.301-149.745 452.301-149.747v33.838" fill="#f0f0f0"/><path d="m493.301 253.493h-29.275c7.612-9.139 7.141-22.736-1.432-31.31 9.084-9.082 9.084-23.81 0-32.895l-.546.549c9.082-9.082 9.63-24.359.546-33.441l-131.575 131.575c9.084 9.085 23.552 8.976 32.634-.108l2.532-2.314 63.003-5.728v27.097h21.37v-29.04l32.056-2.913z" fill="#a2001d"/><path d="m333.03 316.084-21.378-10.685 21.378-10.685h138.908v21.37z" fill="#ffda44"/></svg>