<svg enable-background="new 0 0 512 512" viewBox="0 0 512 512" xmlns="http://www.w3.org/2000/svg"><path d="m0 85.337h512v341.326h-512z" fill="#d80027"/><path d="m0 85.337h512v113.775h-512z" fill="#338af3"/><path d="m0 312.888h512v113.775h-512z" fill="#6da544"/><g fill="#f0f0f0"><path d="m259.2 297.6c-22.975 0-41.6-18.625-41.6-41.6s18.625-41.6 41.6-41.6c7.164 0 13.904 1.811 19.789 5-9.232-9.027-21.857-14.6-35.789-14.6-28.277 0-51.2 22.923-51.2 51.2s22.923 51.2 51.2 51.2c13.932 0 26.557-5.573 35.789-14.6-5.885 3.189-12.625 5-19.789 5z"/><path d="m291.2 227.2 5.51 15.497 14.855-7.062-7.062 14.854 15.497 5.511-15.497 5.511 7.062 14.854-14.855-7.062-5.51 15.497-5.51-15.497-14.855 7.062 7.062-14.854-15.497-5.511 15.497-5.511-7.062-14.854 14.855 7.062z"/></g></svg>