<svg enable-background="new 0 0 512 512" viewBox="0 0 512 512" xmlns="http://www.w3.org/2000/svg"><path d="m0 85.334h512v341.337h-512z" fill="#0052b4"/><path d="m99.905 85.329h341.333v341.334" fill="#ffda44"/><g fill="#f0f0f0"><path d="m36.561 100.645 14.843-10.807 14.867 10.794-4.979-15.302h-19.767z"/><path d="m88.332 103.632-5.683-17.472-5.672 17.472-18.365.012 14.867 10.796-5.661 17.461 14.843-10.806 14.866 10.795-5.684-17.474 14.854-10.795z"/><path d="m119.59 134.89-5.684-17.474-5.673 17.474-18.365.011 14.867 10.795-5.661 17.462 14.844-10.807 14.866 10.796-5.685-17.474 14.856-10.794z"/><path d="m150.846 166.146-5.683-17.473-5.673 17.473-18.364.011 14.866 10.796-5.661 17.461 14.843-10.806 14.866 10.795-5.683-17.474 14.855-10.794z"/><path d="m182.103 197.403-5.683-17.474-5.672 17.474-18.366.011 14.866 10.795-5.66 17.462 14.843-10.807 14.866 10.796-5.684-17.473 14.855-10.795z"/><path d="m213.359 228.659-5.683-17.472-5.672 17.472-18.365.012 14.866 10.795-5.66 17.462 14.842-10.806 14.866 10.794-5.683-17.473 14.855-10.795z"/><path d="m244.616 259.916-5.683-17.473-5.672 17.473-18.366.012 14.867 10.795-5.661 17.462 14.844-10.807 14.866 10.794-5.685-17.472 14.855-10.794z"/><path d="m275.872 291.173-5.682-17.473-5.673 17.473-18.365.011 14.867 10.796-5.661 17.461 14.843-10.806 14.866 10.795-5.683-17.474 14.853-10.794z"/><path d="m307.13 322.43-5.683-17.474-5.674 17.474-18.364.011 14.866 10.795-5.661 17.462 14.844-10.807 14.866 10.796-5.684-17.474 14.855-10.794z"/><path d="m338.386 353.686-5.683-17.472-5.672 17.472-18.365.012 14.866 10.795-5.661 17.462 14.843-10.807 14.866 10.795-5.683-17.472 14.855-10.796z"/><path d="m369.643 384.943-5.683-17.473-5.672 17.473-18.366.012 14.866 10.794-5.66 17.463 14.843-10.807 14.866 10.795-5.684-17.473 14.855-10.795z"/><path d="m395.216 398.727-5.672 17.472-18.365.012 14.394 10.453h19.278l14.414-10.476-18.366.011z"/></g></svg>