<svg enable-background="new 0 0 512 512" viewBox="0 0 512 512" xmlns="http://www.w3.org/2000/svg"><path d="m0 85.331h512v341.337h-512z" fill="#ffda44"/><path d="m0 85.331h170.663v341.337h-170.663z" fill="#0052b4"/><path d="m341.337 85.331h170.663v341.337h-170.663z" fill="#0052b4"/><path d="m307.942 189.212 9.955 4.978-9.955-4.978-9.955-4.978c-.6 1.201-13.599 27.649-15.723 68.05h-15.134v-63.073l-11.13-14.839-11.13 14.84v63.073h-15.133c-2.124-40.401-15.123-66.849-15.723-68.05l-19.911 9.955c.137.273 13.666 27.811 13.666 69.226v11.13h37.101v63.073h22.261v-63.073h37.101v-11.13c0-21.413 3.705-39.068 6.813-50.109 3.389-12.04 6.831-19.072 6.865-19.141z"/></svg>