<svg enable-background="new 0 0 512 512" viewBox="0 0 512 512" xmlns="http://www.w3.org/2000/svg"><path d="m0 85.337h512v341.326h-512z" fill="#d80027"/><path d="m215.864 256.006-215.864 143.905v-287.822z" fill="#6da544"/><path d="m512 112.089v287.822l-215.864-143.905z" fill="#6da544"/><path d="m512 112.089-215.864 143.917 215.864 143.905v26.757h-40.125l-215.875-143.916-215.875 143.916h-40.125v-26.757l215.864-143.905-215.864-143.917v-26.758h40.125l215.875 143.917 215.875-143.917h40.125z" fill="#0052b4"/><path d="m512 112.089-215.864 143.917 215.864 143.905v26.757h-40.125l-215.875-143.916-215.875 143.916h-40.125v-26.757l215.864-143.905-215.864-143.917v-26.758h40.125l215.875 143.917 215.875-143.917h40.125z" fill="#f0f0f0"/><circle cx="256" cy="256" fill="#f0f0f0" r="74.207"/><g fill="#d80027"><path d="m256 204.058 6.426 11.13h12.852l-6.426 11.13 6.426 11.131h-12.852l-6.426 11.13-6.426-11.13h-12.852l6.426-11.131-6.426-11.13h12.852z"/><path d="m223.337 256 6.425 11.13h12.853l-6.426 11.131 6.426 11.13h-12.853l-6.425 11.131-6.427-11.131h-12.852l6.426-11.13-6.426-11.131h12.852z"/><path d="m288.663 256 6.427 11.13h12.852l-6.426 11.131 6.426 11.13h-12.852l-6.427 11.131-6.425-11.131h-12.853l6.426-11.13-6.426-11.131h12.853z"/></g></svg>