<svg enable-background="new 0 0 512 512" viewBox="0 0 512 512" xmlns="http://www.w3.org/2000/svg"><path d="m0 85.331h512v341.337h-512z" fill="#f0f0f0"/><path d="m390.061 222.603h-56.147c0-10.244-8.306-18.551-18.551-18.551l-14.84 29.682s15.831 44.522 15.336 44.522h18.551c10.246 0 18.551-8.306 18.551-18.551 10.246 0 18.551-8.306 18.551-18.551h-.618c10.242 0 19.167-8.305 19.167-18.551z" fill="#acabb1"/><path d="m121.939 222.603h56.147c0-10.244 8.306-18.551 18.551-18.551l14.84 29.682s-15.831 44.522-15.336 44.522h-18.551c-10.246 0-18.551-8.306-18.551-18.551-10.246 0-18.551-8.306-18.551-18.551h.618c-10.242 0-19.167-8.305-19.167-18.551z" fill="#acabb1"/><path d="m315.362 322.777v7.421h-118.724v-7.421h-29.681v29.682h29.681v7.419h118.724v-7.419h29.681v-29.682z" fill="#ffda44"/><path d="m196.638 204.052v74.202c0 45.44 59.362 59.363 59.362 59.363s59.362-13.923 59.362-59.363v-74.202l-59.362-7.42z" fill="#0052b4"/><path d="m196.641 233.734h118.728v44.522h-118.728z" fill="#d80027"/><path d="m285.682 166.951v11.13l-7.421 3.71-7.421-7.419v-22.261h-29.68v22.261l-7.421 7.419-7.421-3.71v-11.13h-29.68v37.101h118.724v-37.101z" fill="#ffda44"/></svg>