<svg enable-background="new 0 0 512 512" viewBox="0 0 512 512" xmlns="http://www.w3.org/2000/svg"><path d="m0 85.334h512v341.337h-512z" fill="#d80027"/><path d="m0 85.334h256v170.663h-256z" fill="#f0f0f0"/><path d="m144 85.33h-32v69.333h-112v32h112v69.334h32v-69.334h112v-32h-112z" fill="#d80027"/><path d="m0 85.329v15.083l57.377 38.251h22.623z" fill="#d80027"/><path d="m0 107.951v30.712h46.069z" fill="#2e52b2"/><path d="m96 85.331v48.913l-73.372-48.913z" fill="#2e52b2"/><path d="m256 85.329v15.083l-57.377 38.251h-22.623z" fill="#d80027"/><path d="m256 107.951v30.712h-46.069z" fill="#2e52b2"/><path d="m160 85.331v48.913l73.372-48.913z" fill="#2e52b2"/><path d="m0 85.329v15.083l57.377 38.251h22.623z" fill="#d80027"/><path d="m0 107.951v30.712h46.069z" fill="#2e52b2"/><path d="m96 85.331v48.913l-73.372-48.913z" fill="#2e52b2"/><path d="m256 85.329v15.083l-57.377 38.251h-22.623z" fill="#d80027"/><path d="m256 107.951v30.712h-46.069z" fill="#2e52b2"/><path d="m160 85.331v48.913l73.372-48.913z" fill="#2e52b2"/><path d="m0 255.997v-15.082l57.377-38.252h22.623z" fill="#d80027"/><path d="m0 233.376v-30.713h46.069z" fill="#2e52b2"/><path d="m96 255.994v-48.912l-73.372 48.912z" fill="#2e52b2"/><path d="m256 255.997v-15.082l-57.377-38.252h-22.623z" fill="#d80027"/><path d="m256 233.376v-30.713h-46.069z" fill="#2e52b2"/><path d="m160 255.994v-48.912l73.372 48.912z" fill="#2e52b2"/><path d="m332.058 189.214v81.623c0 39.76 103.884 39.76 103.884 0v-81.623z" fill="#f3f3f3"/><path d="m332.058 270.837c0 39.76 51.942 51.942 51.942 51.942s51.942-12.182 51.942-51.942v.001h-103.884z" fill="#6da544"/><path d="m384 238.188-24.116 10.388v22.261l24.116 14.841 24.116-14.841v-22.261z" fill="#a2001d"/><path d="m359.88 226.312h48.228v22.261h-48.228z" fill="#338af3"/></svg>