<svg enable-background="new 0 0 512 512" viewBox="0 0 512 512" xmlns="http://www.w3.org/2000/svg"><path d="m0 85.337h512v341.326h-512z" fill="#f0f0f0"/><path d="m0 426.663h512v-341.326z" fill="#0052b4"/><path d="m250.435 85.337h-250.435v166.945z" fill="#ffda44"/><path d="m188.052 250.239 14.708-7.967-14.708-7.967c-3.434-22.308-21.06-39.934-43.366-43.366l-7.967-14.708-7.967 14.708c-22.308 3.434-39.933 21.06-43.366 43.366l-14.707 7.968 14.708 7.967c3.434 22.308 21.06 39.934 43.366 43.366l7.966 14.707 7.967-14.708c22.307-3.432 39.932-21.059 43.366-43.366zm-51.334 21.714c-16.393 0-29.682-13.289-29.682-29.682s13.289-29.68 29.682-29.68 29.682 13.289 29.682 29.682-13.289 29.68-29.682 29.68z"/><path d="m136.718 220.012 6.427 11.13h12.852l-6.426 11.131 6.426 11.13h-12.852l-6.427 11.131-6.425-11.131h-12.852l6.425-11.13-6.425-11.131h12.852z" fill="#d80027"/></svg>