<svg enable-background="new 0 0 512 512" viewBox="0 0 512 512" xmlns="http://www.w3.org/2000/svg"><path d="m0 85.331h512v341.337h-512z" fill="#6da544"/><path d="m256 161.678 128 94.316-128 94.316-128-94.316z" fill="#ffda44"/><circle cx="256" cy="255.994" fill="#f0f0f0" r="53.894"/><g fill="#0052b4"><path d="m229.052 252.626c-9.372 0-18.416 1.426-26.93 4.07.377 29.44 24.348 53.193 53.877 53.193 18.259 0 34.386-9.089 44.134-22.981-16.676-20.879-42.341-34.282-71.081-34.282z"/><path d="m308.895 266.32c.649-3.344 1-6.793 1-10.326 0-29.765-24.13-53.895-53.895-53.895-22.21 0-41.275 13.438-49.527 32.623 7.293-1.51 14.845-2.307 22.579-2.307 31.304.001 59.622 13.012 79.843 33.905z"/></g></svg>