<svg enable-background="new 0 0 512 512" viewBox="0 0 512 512" xmlns="http://www.w3.org/2000/svg"><path d="m.556 85.523h511.444v340.955h-511.444z" fill="#6da544"/><path d="m0 315.298h511.444v-229.778h-511.444" fill="#a2001d"/><path d="m100.065 315.298v-14.824-214.954h-100.065v340.962h511.444-411.379z" fill="#f0f0f0"/><g fill="#a2001d"><path d="m68.564 243.647-18.531-33.619 18.531-33.091 18.529 33.091z"/><path d="m31.502 243.647-18.53-33.619 18.53-33.091 18.531 33.091z"/><path d="m68.564 335.064-18.531-33.618 18.531-33.092 18.529 33.092z"/><path d="m31.502 335.064-18.53-33.618 18.53-33.092 18.531 33.092z"/><path d="m68.564 426.482-18.531-33.619 18.531-33.092 18.529 33.092z"/><path d="m31.502 426.482-18.53-33.619 18.53-33.092 18.531 33.092z"/><path d="m68.564 152.23-18.531-33.619 18.531-33.093 18.529 33.093z"/><path d="m31.502 152.23-18.53-33.619 18.53-33.093 18.531 33.093z"/></g></svg>