<svg enable-background="new 0 0 512 512" viewBox="0 0 512 512" xmlns="http://www.w3.org/2000/svg"><path d="m0 85.333h512v341.337h-512z" fill="#d80027"/><path d="m0 255.996h211.478v85.337h-211.478z" fill="#6da544"/><path d="m300.522 255.996h211.478v85.337h-211.478z" fill="#6da544"/><path d="m0 85.33v.003 85.329h211.478v-85.329h89.044v85.329h211.478v-85.329-.003z" fill="#0052b4"/><path d="m300.522 170.659h211.478v85.337h-211.478z" fill="#f0f0f0"/><path d="m0 170.659h211.478v85.337h-211.478z" fill="#f0f0f0"/><g fill="#ffda44"><path d="m300.522 426.659h-89.044v-85.329h-211.478v85.329.003h512v-.003-85.329h-211.478z"/><path d="m119.678 111.3 4.604 14.172h14.902l-12.054 8.759 4.604 14.171-12.056-8.758-12.054 8.758 4.605-14.171-12.055-8.759h14.9z"/></g></svg>