<svg enable-background="new 0 0 512 512" viewBox="0 0 512 512" xmlns="http://www.w3.org/2000/svg"><path d="m0 85.332h512v341.337h-512z" fill="#0052b4"/><g fill="#f0f0f0"><path d="m384 156.705 5.283 16.254h17.089l-13.826 10.045 5.281 16.254-13.827-10.047-13.825 10.047 5.28-16.254-13.825-10.045h17.089z"/><path d="m313.791 185.786 15.228 7.758 12.084-12.083-2.673 16.879 15.227 7.759-16.879 2.673-2.674 16.88-7.76-15.227-16.878 2.673 12.086-12.084z"/><path d="m284.71 255.995 16.254-5.281.001-17.089 10.044 13.825 16.254-5.282-10.046 13.827 10.046 13.826-16.254-5.28-10.044 13.825v-17.09z"/><path d="m313.791 326.204 7.759-15.229-12.084-12.084 16.881 2.674 7.757-15.227 2.674 16.879 16.879 2.672-15.227 7.759 2.673 16.882-12.084-12.087z"/><path d="m384 355.284-5.281-16.253h-17.091l13.827-10.045-5.28-16.254 13.825 10.044 13.827-10.044-5.281 16.254 13.826 10.045h-17.089z"/><path d="m454.209 326.204-15.229-7.758-12.083 12.084 2.673-16.882-15.227-7.756 16.879-2.675 2.675-16.879 7.756 15.227 16.881-2.674-12.086 12.085z"/><path d="m483.29 255.995-16.254 5.281v17.09l-10.045-13.826-16.254 5.281 10.046-13.826-10.046-13.827 16.254 5.282 10.045-13.825v17.089z"/><path d="m454.209 185.788-7.757 15.226 12.082 12.084-16.881-2.673-7.756 15.227-2.675-16.88-16.879-2.675 15.227-7.757-2.673-16.878 12.084 12.082z"/><path d="m0 186.665v16h46.069l-46.069 30.712v7.539l57.377-38.252h22.623l-80 53.334h112v-69.334h-112zm96 69.331h-73.372l73.372-48.913z"/><path d="m176 138.665 80-53.334h-112v69.334h112v-16h-46.069l46.069-30.714v-7.539l-57.377 38.251h-22.623zm-16-53.332h73.372l-73.372 48.913z"/><path d="m144 255.998h112l-80-53.334h22.623l57.377 38.253v-7.539l-46.069-30.713h46.069v-16h-112zm16-48.915 73.372 48.913h-73.372z"/><path d="m112 85.331h-112l80 53.334h-22.623l-57.377-38.252v7.539l46.069 30.712h-46.069v16h112zm-16 48.915-73.372-48.913h73.372z"/></g><path d="m144 85.331h-32v69.334h-112v32h112v69.333h32v-69.333h112v-32h-112z" fill="#d80027"/><path d="m80 138.665-80-53.334v15.082l57.377 38.252z" fill="#d80027"/><path d="m176 138.665h22.623l57.377-38.252v-15.082z" fill="#d80027"/><path d="m57.377 202.665-57.377 38.252v15.081l80-53.333z" fill="#d80027"/><path d="m176 202.665 80 53.333v-15.081l-57.377-38.252z" fill="#d80027"/></svg>