<svg enable-background="new 0 0 512 512" viewBox="0 0 512 512" xmlns="http://www.w3.org/2000/svg"><path d="m0 85.331h512v341.337h-512z" fill="#0052b4"/><path d="m0 322.777h512v22.261h-512z" fill="#d80027"/><path d="m0 300.516h512v22.261h-512z" fill="#f0f0f0"/><path d="m0 345.038h512v22.261h-512z" fill="#f0f0f0"/><g fill="#ffda44"><path d="m180.384 261.272 3.004 9.249h9.725l-7.867 5.715 3.005 9.248-7.867-5.715-7.867 5.715 3.005-9.248-7.866-5.715h9.724z"/><path d="m180.384 382.332 3.004 9.247h9.725l-7.867 5.715 3.005 9.248-7.867-5.715-7.867 5.715 3.005-9.248-7.866-5.715h9.724z"/><path d="m124.033 341.389 3.004 9.249h9.725l-7.866 5.715 3.004 9.248-7.867-5.715-7.867 5.715 3.005-9.248-7.867-5.715h9.725z"/><path d="m145.557 273.378 3.004 9.248h9.725l-7.866 5.716 3.004 9.248-7.867-5.716-7.867 5.716 3.005-9.248-7.867-5.716h9.725z"/><path d="m111.304 311.462 9.723.001 3.005-9.249 3.005 9.248 9.725-.001-7.867 5.716 3.005 9.25-7.868-5.716-7.866 5.713 3.004-9.247z"/><path d="m137.69 392.671 3.005-9.246-7.868-5.717h9.725l3.005-9.248 3.005 9.247h9.724l-7.867 5.716 3.004 9.249-7.867-5.716z"/><path d="m236.714 341.389-3.004 9.249h-9.724l7.865 5.715-3.004 9.248 7.867-5.715 7.867 5.715-3.005-9.248 7.867-5.715h-9.725z"/><path d="m215.19 273.378-3.004 9.248h-9.725l7.866 5.716-3.004 9.248 7.867-5.716 7.867 5.716-3.005-9.248 7.867-5.716h-9.725z"/><path d="m249.443 311.462-9.722.001-3.006-9.249-3.005 9.248-9.724-.001 7.867 5.716-3.006 9.25 7.868-5.716 7.866 5.713-3.004-9.247z"/><path d="m223.057 392.671-3.005-9.246 7.867-5.717h-9.724l-3.005-9.248-3.005 9.247h-9.724l7.867 5.716-3.004 9.249 7.867-5.716z"/></g></svg>