<svg enable-background="new 0 0 512 512" viewBox="0 0 512 512" xmlns="http://www.w3.org/2000/svg"><path d="m0 85.331h512v341.337h-512z" fill="#fcfcfc"/><path d="m352 233.88c-5.169 0-11.569 0-22.154 0 0 40.784-33.063 73.846-73.846 73.846-40.785 0-73.846-33.062-73.846-73.846-7.138 0-15.016 0-22.154 0 0 43.931 29.509 80.969 69.787 92.377-4.415 8.389-3.743 18.951 2.564 26.822 8.285-6.64 16.864-13.515 24.141-19.346 7.277 5.831 15.855 12.705 24.141 19.346 6.371-7.95 6.998-18.646 2.434-27.075 39.838-11.686 68.933-48.504 68.933-92.124z" fill="#6da544"/><path d="m196.923 226.497s0 36.923 36.923 36.923l7.385 7.385h14.769s7.385-22.154 22.154-22.154c0 0 0-14.769 14.769-14.769s22.154 0 22.154 0-7.385-29.538 29.538-51.692l-14.769-7.385s-51.692 36.923-88.615 29.538v14.769h-14.769l-7.385-7.385z" fill="#ffda44"/></svg>