<svg enable-background="new 0 0 512 512" viewBox="0 0 512 512" xmlns="http://www.w3.org/2000/svg"><path d="m0 85.337h512v341.326h-512z" fill="#496e2d"/><path d="m0 224v21.334 21.332 21.334h512v-21.334-21.332-21.334z"/><path d="m0 224h512v21.337h-512z" fill="#ffda44"/><path d="m0 266.663h512v21.337h-512z" fill="#f0f0f0"/><path d="m224 85.337h64v341.326h-64z"/><path d="m224 85.337h21.326v341.326h-21.326z" fill="#ffda44"/><path d="m266.674 85.337h21.326v341.326h-21.326z" fill="#f0f0f0"/><circle cx="256" cy="256" fill="#d80027" r="81.619"/><g fill="#496e2d"><path d="m274.596 265.107c-6.071-12.142-13.963-24.449-13.963-24.449s.196-5.603.196-8.942c0-5.03-4.077-9.107-9.107-9.107-4.765 0-8.668 3.661-9.067 8.321-3.746.245-6.712 3.352-6.712 7.161 0 2.769 1.569 5.168 3.864 6.368 1.141-2.669 3.376-4.753 6.141-5.703.45.37.935.698 1.451.977l1.166.559s-4.326 12.193-4.326 18.745c0 18.416 12.142 24.095 12.142 24.095v.19l-6.071 6.069h12.142v-12.142l6.071 6.072c.057-.115 11.503-7.354 6.073-18.214z"/><path d="m256 189.217 2.763 8.503h8.94l-7.233 5.256 2.764 8.502-7.234-5.254-7.234 5.254 2.764-8.502-7.233-5.256h8.94z"/><path d="m216.746 201.972 7.232 5.254 7.233-5.254-2.762 8.502 7.233 5.255-8.939.001-2.764 8.503-2.763-8.503-8.94-.001 7.233-5.255z"/><path d="m192.486 235.363h8.939l2.763-8.502 2.764 8.502h8.939l-7.232 5.255 2.764 8.503-7.235-5.254-7.233 5.253 2.763-8.502z"/><path d="m192.486 276.637 7.232-5.254-2.763-8.503 7.233 5.254 7.233-5.255-2.762 8.503 7.234 5.255-8.941.001-2.764 8.501-2.763-8.502z"/><path d="m216.746 310.028 2.763-8.501-7.234-5.256h8.941l2.763-8.504 2.764 8.503h8.939l-7.233 5.256 2.762 8.502-7.233-5.254z"/><path d="m256 322.783-2.763-8.502h-8.94l7.233-5.256-2.764-8.503 7.234 5.254 7.233-5.254-2.763 8.503 7.233 5.255-8.94.001z"/><path d="m295.254 310.028-7.232-5.254-7.233 5.255 2.762-8.503-7.234-5.255 8.94-.001 2.763-8.503 2.764 8.504h8.94l-7.233 5.256z"/><path d="m319.514 276.637h-8.939l-2.763 8.502-2.764-8.501h-8.941l7.234-5.256-2.764-8.502 7.235 5.254 7.232-5.254-2.762 8.502z"/><path d="m319.514 235.363-7.232 5.255 2.763 8.502-7.233-5.254-7.234 5.255 2.763-8.503-7.234-5.254 8.941-.001 2.763-8.502 2.764 8.502z"/><path d="m295.254 201.972-2.763 8.502 7.233 5.255h-8.94l-2.762 8.504-2.765-8.503h-8.94l7.234-5.256-2.762-8.501 7.233 5.253z"/></g></svg>