<svg enable-background="new 0 0 512 512" viewBox="0 0 512 512" xmlns="http://www.w3.org/2000/svg"><path d="m0 85.337h512v341.326h-512z" fill="#f0f0f0"/><path d="m0 300.522h211.478v126.141h-211.478z" fill="#d80027"/><path d="m0 85.337h211.478v126.152h-211.478z" fill="#0052b4"/><path d="m300.522 85.337h211.478v126.152h-211.478z" fill="#d80027"/><path d="m300.522 300.522h211.478v126.141h-211.478z" fill="#0052b4"/><path d="m300.521 256.006c0 24.588-19.932 44.521-44.521 44.521s-44.521-19.932-44.521-44.521 44.521-44.521 44.521-44.521 44.521 19.932 44.521 44.521z" fill="#496e2d"/><path d="m211.479 256.006c0-24.588 19.932-44.521 44.521-44.521s44.521 19.932 44.521 44.521" fill="#0052b4"/><path d="m230.957 233.745v27.825c0 13.831 11.212 25.042 25.043 25.042 13.832 0 25.043-11.212 25.043-25.042v-27.825z" fill="#d80027"/></svg>