<svg enable-background="new 0 0 512 512" viewBox="0 0 512 512" xmlns="http://www.w3.org/2000/svg"><path d="m0 85.331h512v341.326h-512z" fill="#496e2d"/><path d="m256 85.331h256v341.337h-256z" fill="#f0f0f0"/><g fill="#d80027"><path d="m292.669 223.259-14.003 19.295-22.677-7.353 14.024 19.28-14.002 19.296 22.671-7.381 14.025 19.28-.014-23.841 22.669-7.381-22.678-7.354z"/><path d="m270.158 304.226c-26.637 0-48.232-21.594-48.232-48.232s21.594-48.232 48.232-48.232c8.306 0 16.12 2.1 22.943 5.797-10.704-10.467-25.342-16.927-41.494-16.927-32.785 0-59.362 26.577-59.362 59.362s26.577 59.362 59.362 59.362c16.152 0 30.79-6.461 41.494-16.927-6.823 3.698-14.638 5.797-22.943 5.797z"/></g></svg>