<svg enable-background="new 0 0 512 512" viewBox="0 0 512 512" xmlns="http://www.w3.org/2000/svg"><path d="m0 85.337h512v341.326h-512z" fill="#ffda44"/><path d="m0 256h512v85.337h-512z" fill="#0052b4"/><path d="m0 341.337h512v85.326h-512z" fill="#d80027"/><circle cx="256" cy="256" fill="#ffda44" r="59.359"/><path d="m256 295.304c-21.098 0-38.261-17.163-38.261-38.261v-22.957c0-21.098 17.163-38.261 38.261-38.261s38.261 17.163 38.261 38.261v22.957c0 21.098-17.163 38.261-38.261 38.261z" fill="#338af3"/><path d="m317.217 165.217h-45.913c0-8.451-6.853-15.304-15.304-15.304s-15.304 6.853-15.304 15.304h-45.913c0 8.452 7.363 15.304 15.814 15.304h-.51c0 8.452 6.852 15.304 15.304 15.304 0 8.452 6.852 15.304 15.304 15.304h30.609c8.452 0 15.304-6.852 15.304-15.304 8.452 0 15.304-6.852 15.304-15.304h-.51c8.453 0 15.815-6.852 15.815-15.304z"/></svg>