<svg enable-background="new 0 0 512 512" viewBox="0 0 512 512" xmlns="http://www.w3.org/2000/svg"><path d="m0 85.337h512v341.326h-512z" fill="#f0f0f0"/><path d="m0 85.337h512v113.775h-512z"/><path d="m0 312.888h512v113.775h-512z" fill="#496e2d"/><g fill="#d80027"><path d="m256 256.006-256 170.662v-341.337z"/><path d="m305.716 256c0-19.892 13.98-36.51 32.649-40.587-2.869-.627-5.847-.966-8.904-.966-22.95 0-41.553 18.603-41.553 41.553s18.603 41.553 41.553 41.553c3.058 0 6.035-.339 8.904-.966-18.669-4.077-32.649-20.695-32.649-40.587z"/><path d="m340.112 229.287 5.894 18.14h19.072l-15.43 11.211 5.894 18.139-15.43-11.21-15.431 11.21 5.895-18.139-15.431-11.211h19.072z"/></g></svg>