<svg enable-background="new 0 0 512 512" viewBox="0 0 512 512" xmlns="http://www.w3.org/2000/svg"><path d="m0 85.337h512v341.326h-512z" fill="#338af3"/><path d="m0 85.337h512v170.663h-512z" fill="#6da544"/><path d="m0 426.663c-.004.027 512-170.669 512-170.669l-512-170.657z" fill="#d80027"/><path d="m140.986 191.994c-29.718 0-53.895 24.176-53.895 53.895v20.211c0 29.718 24.178 53.895 53.895 53.895s53.895-24.176 53.895-53.895v-20.211c0-29.717-24.178-53.895-53.895-53.895zm33.684 74.106c0 15.054-9.927 27.831-23.579 32.134v-22.028l14.299-14.298-14.29-14.29-.008-5.087v-6.745h-20.211v20.211l-14.288 14.288 14.288 14.288v13.663c-13.651-4.303-23.579-17.08-23.579-32.134v-20.212c0-18.573 15.111-33.684 33.684-33.684s33.684 15.111 33.684 33.684z" fill="#ffda44"/></svg>