<svg enable-background="new 0 0 512 512" viewBox="0 0 512 512" xmlns="http://www.w3.org/2000/svg"><path d="m0 85.334h512v341.337h-512z" fill="#2e52b2"/><path d="m256 85.334v22.617l-46.069 30.709h46.069v64h-46.069l46.069 30.72v22.617h-22.628l-73.372-48.919v48.919h-64v-48.919l-73.372 48.919h-22.628v-22.617l46.069-30.72h-46.069v-64h46.069l-46.069-30.709v-22.617h22.628l73.372 48.907v-48.907h64v48.907l73.372-48.907z" fill="#f0f0f0"/><g fill="#d80027"><path d="m144 85.329h-32v69.334h-112v32h112v69.334h32v-69.334h112v-32h-112z"/><path d="m0 85.329v15.083l57.377 38.251h22.623z"/><path d="m256 85.329v15.083l-57.377 38.251h-22.623z"/><path d="m0 85.329v15.083l57.377 38.251h22.623z"/><path d="m256 85.329v15.083l-57.377 38.251h-22.623z"/><path d="m0 255.997v-15.082l57.377-38.252h22.623z"/><path d="m256 255.997v-15.082l-57.377-38.252h-22.623z"/></g><path d="m332.058 207.765v59.362c0 39.76 51.942 51.942 51.942 51.942s51.942-12.182 51.942-51.942v-59.362l-51.942-14.841z" fill="#f3f3f3"/><path d="m435.942 211.475v-22.261h-103.883v22.261h44.521v44.523h-44.521v14.839.001h44.521v49.664c4.479 1.586 7.421 2.277 7.421 2.277s2.942-.691 7.42-2.276v-49.665h44.523v-.001-14.839h-44.524v-44.523z" fill="#d80027"/></svg>