<svg enable-background="new 0 0 512 512" viewBox="0 0 512 512" xmlns="http://www.w3.org/2000/svg"><path d="m0 85.333h512v341.337h-512z" fill="#0052b4"/><path d="m413.681 293.097v7.421h-59.363v-7.421h-22.26v29.682h14.841v7.419h74.202v-7.419h14.841v-29.682z" fill="#ffda44"/><path d="m332.058 181.793v81.623c0 39.759 51.942 51.942 51.942 51.942s51.942-12.182 51.942-51.942v-81.623z" fill="#338af3"/><path d="m383.997 242.675c-12.985 0-12.985 11.873-25.97 11.873s-12.985-11.873-25.97-11.873v20.777c12.985 0 12.985 11.873 25.97 11.873s12.985-11.873 25.97-11.873c12.986 0 12.986 11.873 25.973 11.873 12.986 0 12.986-11.873 25.973-11.873v-20.777c-12.986 0-12.986 11.873-25.973 11.873-12.986 0-12.986-11.873-25.973-11.873z" fill="#f3f3f3"/><path d="m383.997 201.085c-12.985 0-12.985 11.873-25.97 11.873s-12.985-11.873-25.97-11.873v20.777c12.985 0 12.985 11.873 25.97 11.873s12.985-11.873 25.97-11.873c12.986 0 12.986 11.873 25.973 11.873 12.986 0 12.986-11.873 25.973-11.873v-20.777c-12.986 0-12.986 11.873-25.973 11.873-12.986 0-12.986-11.873-25.973-11.873z" fill="#f3f3f3"/><path d="m256 85.333v30.553l-45.167 25.099h45.167v59.359h-59.103l59.103 32.835v22.817h-26.68l-73.494-40.827v40.827h-55.652v-48.573l-87.43 48.573h-12.744v-30.554l45.167-25.098h-45.167v-59.359h59.103l-59.103-32.846v-22.806h26.68l73.494 40.827v-40.827h55.652v48.573l87.43-48.573z" fill="#f0f0f0"/><path d="m144 85.33h-32v69.332h-112v32h112v69.334h32v-69.334h112v-32h-112z" fill="#d80027"/><path d="m155.826 200.344 100.174 55.652v-15.737l-71.847-39.915z" fill="#0052b4"/><path d="m155.826 200.344 100.174 55.652v-15.737l-71.847-39.915z" fill="#f0f0f0"/><path d="m155.826 200.344 100.174 55.652v-15.737l-71.847-39.915z" fill="#d80027"/><path d="m71.846 200.344-71.846 39.915v15.737l100.174-55.652z" fill="#d80027"/><path d="m100.174 140.982-100.174-55.652v15.737l71.847 39.915z" fill="#0052b4"/><path d="m100.174 140.982-100.174-55.652v15.737l71.847 39.915z" fill="#f0f0f0"/><g fill="#d80027"><path d="m100.174 140.982-100.174-55.652v15.737l71.847 39.915z"/><path d="m184.154 140.982 71.846-39.915v-15.737l-100.174 55.652z"/></g></svg>