<svg enable-background="new 0 0 512 512" viewBox="0 0 512 512" xmlns="http://www.w3.org/2000/svg"><path d="m0 85.333h512v341.337h-512z" fill="#f0f0f0"/><path d="m288 85.33h-64v138.666h-224v64h224v138.666h64v-138.666h224v-64h-224z" fill="#d80027"/><g fill="#0052b4"><path d="m393.785 315.358 118.215 65.676v-65.676z"/><path d="m311.652 315.358 200.348 111.304v-31.474l-143.693-79.83z"/><path d="m458.634 426.662-146.982-81.664v81.664z"/></g><path d="m311.652 315.358 200.348 111.304v-31.474l-143.693-79.83z" fill="#f0f0f0"/><path d="m311.652 315.358 200.348 111.304v-31.474l-143.693-79.83z" fill="#d80027"/><path d="m90.341 315.356-90.341 50.19v-50.19z" fill="#0052b4"/><path d="m200.348 329.51v97.151h-174.857z" fill="#0052b4"/><path d="m143.693 315.358-143.693 79.83v31.474l200.348-111.304z" fill="#d80027"/><path d="m118.215 196.634-118.215-65.676v65.676z" fill="#0052b4"/><path d="m200.348 196.634-200.348-111.304v31.474l143.693 79.83z" fill="#0052b4"/><path d="m53.366 85.33 146.982 81.664v-81.664z" fill="#0052b4"/><path d="m200.348 196.634-200.348-111.304v31.474l143.693 79.83z" fill="#f0f0f0"/><path d="m200.348 196.634-200.348-111.304v31.474l143.693 79.83z" fill="#d80027"/><path d="m421.659 196.636 90.341-50.19v50.19z" fill="#0052b4"/><path d="m311.652 182.482v-97.151h174.857z" fill="#0052b4"/><path d="m368.307 196.634 143.693-79.83v-31.474l-200.348 111.304z" fill="#d80027"/></svg>