<svg enable-background="new 0 0 512 512" viewBox="0 0 512 512" xmlns="http://www.w3.org/2000/svg"><path d="m0 85.337h512v341.326h-512z" fill="#a2001d"/><path d="m256 256-211.478 126.141v-252.282z" fill="#496e2d"/><path d="m256 256 211.478 126.141h-422.956z" fill="#ffda44"/><path d="m467.478 129.859-211.478 126.141-211.478-126.141z" fill="#ffda44"/><path d="m467.478 129.859v252.282l-211.478-126.141z" fill="#496e2d"/><g fill="#ffda44"><path d="m256 95.722 3.316 10.203h10.728l-8.679 6.306 3.316 10.204-8.681-6.307-8.68 6.307 3.316-10.204-8.68-6.306h10.728z"/><path d="m170.094 95.722 3.316 10.203h10.727l-8.678 6.306 3.316 10.204-8.681-6.307-8.679 6.307 3.315-10.204-8.68-6.306h10.728z"/><path d="m341.906 95.722 3.316 10.203h10.728l-8.679 6.306 3.315 10.204-8.68-6.307-8.679 6.307 3.316-10.204-8.68-6.306h10.727z"/><path d="m256 389.565 3.316 10.203h10.728l-8.679 6.307 3.316 10.203-8.681-6.306-8.68 6.306 3.316-10.203-8.68-6.307h10.728z"/><path d="m170.094 389.565 3.316 10.203h10.727l-8.678 6.307 3.316 10.203-8.681-6.306-8.679 6.306 3.315-10.203-8.68-6.307h10.728z"/><path d="m341.906 389.565 3.316 10.203h10.728l-8.679 6.307 3.315 10.203-8.68-6.306-8.679 6.306 3.316-10.203-8.68-6.307h10.727z"/></g><circle cx="256" cy="256" fill="#a2001d" r="37.988"/><path d="m256 218.008 8.516 26.21h27.561l-22.296 16.202 8.515 26.211-22.296-16.199-22.298 16.199 8.517-26.211-22.296-16.202h27.56z" fill="#ffda44"/><path d="m107.655 253.181c4.383 6.926 2.323 16.092-4.602 20.477s-16.092 2.324-20.477-4.602c-7.937-12.54-3.335-33.016-3.335-33.016s20.475 4.602 28.414 17.141z" fill="#ffda44"/><circle cx="99.083" cy="267.386" fill="#a2001d" r="7.42"/></svg>