<svg enable-background="new 0 0 512 512" viewBox="0 0 512 512" xmlns="http://www.w3.org/2000/svg"><path d="m0 85.333h512v341.337h-512z" fill="#f0f0f0"/><g fill="#d80027"><path d="m288 85.33h-64v138.666h-224v64h224v138.666h64v-138.666h224v-64h-224z"/><path d="m123.13 143.534v-22.261h-22.26v22.261h-22.261v22.261h22.261v22.261h22.26v-22.261h22.261v-22.261z"/><path d="m411.13 143.534v-22.261h-22.26v22.261h-22.261v22.261h22.261v22.261h22.26v-22.261h22.261v-22.261z"/><path d="m123.13 346.197v-22.261h-22.26v22.261h-22.261v22.261h22.261v22.261h22.26v-22.261h22.261v-22.261z"/><path d="m411.13 346.197v-22.261h-22.26v22.261h-22.261v22.261h22.261v22.261h22.26v-22.261h22.261v-22.261z"/></g></svg>