<svg enable-background="new 0 0 512 512" viewBox="0 0 512 512" xmlns="http://www.w3.org/2000/svg"><path d="m0 85.331h512v341.337h-512z" fill="#f0f0f0"/><path d="m0 312.882h512v113.775h-512z" fill="#d80027"/><path d="m322.783 226.313v-22.261h7.42v-14.84h-14.841v7.419h-14.84v-7.419h-14.84v14.84h7.419v22.261h-14.84v-51.94h7.421v-14.842h-14.842v7.42h-7.419v-7.42h-14.842v7.42h-7.419v-7.42h-14.842v14.842h7.421v51.94h-14.84v-22.261h7.419v-14.84h-14.84v7.419h-14.84v-7.419h-14.841v14.84h7.42v22.261h-14.84v59.362h163.246v-59.362z" fill="#d80027"/><path d="m256 278.255c-12.295 0-22.261 9.966-22.261 22.261 0 9.691 6.195 17.933 14.84 20.989v30.953h-22.261v29.682h37.101v-60.634c8.646-3.055 14.841-11.297 14.841-20.989.001-12.296-9.965-22.262-22.26-22.262zm0 29.681c-4.098 0-7.421-3.322-7.421-7.421s3.321-7.421 7.421-7.421c4.098 0 7.421 3.321 7.421 7.421 0 4.098-3.323 7.421-7.421 7.421z" fill="#ffda44"/></svg>