<svg enable-background="new 0 0 512 512" viewBox="0 0 512 512" xmlns="http://www.w3.org/2000/svg"><path d="m0 85.337h512v341.326h-512z" fill="#f0f0f0"/><path d="m0 85.337h512v113.775h-512z" fill="#6da544"/><path d="m0 312.888h512v113.775h-512z" fill="#d80027"/><path d="m256 256.006-256 170.662v-341.337z" fill="#0052b4"/><path d="m279.807 219.71v44.444c0 27.216 35.555 35.556 35.555 35.556s35.555-8.339 35.555-35.556v-44.444z" fill="#dedde0"/><path d="m306.477 256.156h17.778v25.778h-17.778z" fill="#786145"/><path d="m333.141 246.377c0-9.818-7.959-17.778-17.778-17.778s-17.778 7.959-17.778 17.778c-4.91 0-8.889 3.979-8.889 8.889s3.979 8.889 8.889 8.889h35.555c4.91 0 8.889-3.979 8.889-8.889s-3.979-8.889-8.888-8.889z" fill="#6da544"/></svg>