<svg fill="none" height="512" viewBox="0 0 512 512" width="512" xmlns="http://www.w3.org/2000/svg" xmlns:xlink="http://www.w3.org/1999/xlink"><linearGradient id="a"><stop offset="0" stop-color="#474747"/><stop offset="1" stop-color="#f50"/></linearGradient><linearGradient id="b" gradientUnits="userSpaceOnUse" x1="411.385" x2="411.63" xlink:href="#a" y1="180.473" y2="162.495"/><linearGradient id="c" gradientUnits="userSpaceOnUse" x1="404.461" x2="404.492" y1="248.077" y2="258.276"><stop offset="0" stop-color="#b50000"/><stop offset="1" stop-color="#ffc500"/></linearGradient><linearGradient id="d"><stop offset="0" stop-color="#d5dfff"/><stop offset="1" stop-color="#fff"/></linearGradient><linearGradient id="e" gradientUnits="userSpaceOnUse" x1="454.69" x2="473.397" xlink:href="#d" y1="254.28" y2="254.001"/><linearGradient id="f" gradientUnits="userSpaceOnUse" x1="407.796" x2="414.498" xlink:href="#a" y1="177.061" y2="177.061"/><linearGradient id="g" gradientUnits="userSpaceOnUse" x1="505.195" x2="502.596" xlink:href="#d" y1="337.872" y2="319.685"/><linearGradient id="h" gradientUnits="userSpaceOnUse" x1="459.246" x2="452.242" xlink:href="#d" y1="260.49" y2="247.77"/><path d="m0 85h512v341.33h-512z" fill="#006"/><path d="m0 85v23.428l322.578 186.122h40.604v-23.428l-322.578-186.122zm363.182 0v23.427l-322.578 186.122h-40.604v-23.427l322.578-186.122z" fill="#fff"/><path d="m151.326 85v209.549h60.53v-209.549zm-151.326 69.85v69.849h363.182v-69.849z" fill="#fff"/><path d="m0 168.819v41.911h363.182v-41.911zm163.432-83.819v209.549h36.318v-209.549zm-163.432 209.549 121.061-69.85h27.069l-121.0612 69.85zm0-209.549 121.061 69.85h-27.069l-93.992-54.231zm215.053 69.85 121.061-69.85h27.068l-121.06 69.85zm148.129 139.699-121.06-69.85h27.068l93.992 54.231z" fill="#c00"/><path clip-rule="evenodd" d="m371 333.849s-2.302 5.412-3.618 5.412c-1.317 0-6.088-2.34-6.088-2.34s-3.455 4.972-5.264 5.265c-1.811.292-6.582-.732-6.582-.732s-4.606 0-4.771-.585.165-1.755.165-1.755-6.582 4.679-8.063 4.388c-1.48-.293-6.416-5.851-6.416-5.851l-.824 2.932-9.378-.293-8.227-4.682s-4.607 6.727-4.771 6.581-8.062 1.609-8.062 1.609l-.494-1.316-5.264-2.779s4.112-5.119 4.112-5.265-1.974-.731-1.974-.731l-2.961 2.194-6.088 3.509-6.087-2.486 2.632-4.387.33-3.218 4.771-6.434 58.406-50.454 28.792 47.237-4.277 14.185z" fill="#6a4c2d" fill-rule="evenodd" stroke="#000" stroke-width=".86059"/><path clip-rule="evenodd" d="m412.495 336.909 15.204-.485-6.472-2.842 57.928-1.94-8.186-2.772-7.251-8.732-30.016-2.01s-2.262-1.525-5.926-.762c-.156-2.079-2.963-4.782-2.963-4.782l-18.478-1.247-11.539 6.999 7.797 17.741z" fill="#fff" fill-rule="evenodd" stroke="#000" stroke-width=".86059"/><path clip-rule="evenodd" d="m353.341 185.581 1.531-4.627s2.68-4.015 2.68-5.785c0-1.768 1.99-3.879 1.99-3.879s6.125-1.565 7.426 1.77c6.584-8.847 14.316-.409 14.316-.409l2.144-2.245 4.364-4.763s6.201 5.171 6.278 6.056 1.071.272 1.071.272l6.738-.476s3.197 2.224 2.526 6.465c2.374 1.244 4.517 8.573 4.517 8.573z" fill="url(#b)" fill-rule="evenodd" stroke="#000" stroke-width=".86059"/><path clip-rule="evenodd" d="m412.502 240.634c1.16-.635 4.822-1.667 4.376-6.429-.448-4.762-5.091-5.317-7.68-5.159-2.589.159-4.911 2.143-4.911 2.143l-8.573-4.841s4.287-24.05 8.84-25.557c4.325-2.771 5.09-3.968 5.09-4.604s-1.607-2.222-1.607-2.222l-27.948-2.937-26.431 2.778s-2.053 2.778-1.786 3.889c.267 1.112.358 2.302 5.09 5.556 5.236 3.58 8.84 24.128 8.84 24.128s-7.412 3.255-7.857 2.858c-.447-.397-2.679-.794-3.84-.635-1.16.159-5 1.905-5 6.429s3.84 7.144 3.84 7.144 25.269-2.62 29.019 3.571c3.661-7.461 27.68-4.841 30.538-6.112z" fill="#656263" fill-rule="evenodd" stroke="#000" stroke-width=".86059"/><path d="m439.724 215.635s.28-2.61 2.378-3.853c2.097-1.243 16.081-1.865 19.438 0 3.357 1.864 4.614 11.063 4.614 11.063s2.098 3.232 2.238 5.594c.14 2.361.419 3.977.419 3.977s11.188 12.928 11.328 24.613c1.259 7.955.979 29.21-2.517 37.29-.14 10.068-4.895 16.657-4.895 16.657s1.119 1.74.979 3.604c-.14 1.865-1.259 3.606-1.259 3.606l16.362 7.209-6.014-1.989s6.154 4.599 6.014 4.475c-.14-.125-6.852-2.859-6.852-2.859l4.056 3.605c-.141-.125-9.93-3.978-9.93-3.978s4.615 3.854 4.336 3.729c-.28-.125-7.412-3.108-7.412-3.108s4.475 4.227 4.335 3.978c-.139-.248-6.433-2.486-6.433-2.486l.28 2.113s-5.035-.248-5.035-3.605c-2.516-1.243-4.195-2.983-4.195-2.983l-11.606-1.74-13.146-34.929 3.077-59.045.839-2.983z" style="fill-rule:evenodd;clip-rule:evenodd;fill:#000;stroke:#000;stroke-opacity:.979;stroke-width:1.07574;stroke-linejoin:round"/><path clip-rule="evenodd" d="m430.939 404.323s-6.733-12.593-10.09-12.77c-3.03-5.133 10.528-47.098 36.752-49.491 14.416 1.056 1.185 14.774-8.295 10.553 1.184 3.693 5.924 8.969 5.924 8.969s-18.762 7.211-24.291 42.739z" fill="#fb0" fill-rule="evenodd" stroke="#000" stroke-width="1.13942"/><path clip-rule="evenodd" d="m340.666 406.16s5.573-14.331 8.957-14.507c3.383-.178-8.957-47.766-35.825-48.12-14.528 1.061-1.194 14.86 8.36 10.614-1.194 3.716-5.971 9.023-5.971 9.023s18.907 7.253 24.48 42.99z" fill="#fb0" fill-rule="evenodd" stroke="#000" stroke-width=".86059"/><path clip-rule="evenodd" d="m365.314 316.646c-.064-.115-6.668 1.842-2.396 8.23.324-2.475 3.303-3.971 3.303-3.971s-4.532 4.777.258 8.805c.583-3.797 3.303-5.006 3.303-5.006s-3.367 8.805.064 10.588c.388-3.511 2.914-5.064 2.914-5.064s-3.043 7.884-.324 9.669c.324-2.993 2.59-4.317 2.59-4.317s-1.36 8.172 2.201 8.748c.065-2.877 2.655-5.698 2.655-5.698s-1.166 6.676 4.402 6.964c.065-2.532 1.101-5.41 1.101-5.41s2.525 7.079 6.215 5.928c-.064-2.072.064-5.986 0-5.986s2.331 6.734 6.733 5.468c-.647-1.899.26-4.144.26-4.144s2.33 4.202 6.539 2.82c.712-1.266-.195-3.741-.195-3.741s6.151 5.641 8.028 2.245c1.878-3.395-4.92-4.546-4.92-4.546h4.597s-1.489-3.453-7.704-4.202c2.136-.863 4.337-.23 4.337-.23s-1.296-4.316-7.64-4.776c2.46-.749 5.18-.231 5.18-.231s-.842-4.085-7.834-5.236c1.101-1.094 4.078-.749 4.078-.749s-2.784-3.855-5.956-3.625c-3.172.229-31.853-2.59-31.789-2.532z" fill="#00713d" fill-rule="evenodd" stroke="#000" stroke-width=".86059"/><path d="m376.97 337.594s1.489 1.381 1.424 1.669m15.209-1.84s2.525 1.093 2.46 2.072zm1.495-1.781s3.237 2.014 3.172 3.51zm2.843-1.04s2.589 1.438 2.72 3.683zm4.337.923s1.295 2.475.841 2.936zm2.596 1.322c.194 1.956-.196 2.129-.196 2.129zm-31.925-12.374s3.043 1.727 2.784 4.144zm-.193 2.075s1.425 1.208 1.102 2.014zm3.759-2.013s2.007 2.475 1.36 4.201zm3.429 1.609s.907 1.554.064 2.417zm1.618.746s1.101 1.554.129 2.072zm-1.226 5.123s2.848.576 3.238 2.475zm1.68-1.726s2.978.172 3.303 2.993zm3.952-.979c.065 0 2.007 3.05 1.683 4.028zm3.821.287s.778 2.936.194 3.856zm2.458 1.151c0 .058.064 3.395.064 3.395zm-3.752-4.602s1.877.633 1.748 2.245zm1.742-1.499s2.395 1.209 2.136 3.51zm2.788-.973s2.072 2.187 1.295 4.604zm3.622.514s-.778 2.704-.454 3.798zm2.203 1.842s-1.36.921-.648 2.072zm-11.78 10.532s.453 2.071 0 2.416zm-2.982-1.206s1.49 2.302.971 3.453zm-3.173-.117s1.683 1.728 1.619 3.108zm-2.589.344s1.554 1.323 1.424 2.071z" stroke="#3ec26d" stroke-linecap="round" stroke-width="1.07574"/><path clip-rule="evenodd" d="m344.763 243.118 21.414-.339s14.149 0 15.678 4.078c2.676-5.438 14.913-5.098 14.913-5.098l22.178-.679.384 47.585c-4.335 18.468-19.376 31.498-35.946 37.049-19.756-5.665-32.248-20.507-36.327-37.389z" fill="#fff" fill-rule="evenodd" stroke="#000" stroke-width=".86059"/><path clip-rule="evenodd" d="m352.392 242.941 31.192 73.889 28.179-75.498c-8.741.501-27.497-1.223-29.826 5.867-3.606-6.346-23.336-3.788-29.546-4.257z" fill="#006b00" fill-rule="evenodd" stroke="#000" stroke-width=".86059"/><path d="m373.624 282.945c1.199.558 1.166-20.053 2.742-20.693.45-1.706.676-2.453 1.239-4.266-1.351-2.133-7.429-2.027-9.68-.213 1.013 2.879 1.463 3.839 1.463 3.839 3.04 4.374 2.435 21.798 4.236 21.334z" style="fill-rule:evenodd;clip-rule:evenodd;fill:#ffc900;stroke:#006b00;stroke-width:.592947;stroke-linecap:round"/><path d="m365.266 123.643s2.204-2.226 2.304-2.761c.1-.534 10.015-.89 15.925-10.683 3.306-5.164 0-2.137 0-2.137l-.2-2.493s4.106-3.472 2.604-5.342c-1.502-1.8698-1.001 2.404-3.405 2.315s-1.102-4.6292-1.102-4.6292-.2-.5348-.902-.8014c-1.001.0889-.701 1.691-1.602 1.8695-.902.1778-1.703-3.7397-1.703-3.7397s-1.502-1.7806-2.804 3.8286c.701 5.9652 5.008 4.8072 5.008 8.7252 0 3.917-3.807 6.944-4.908 7.033-1.103.089-.702-3.294-.702-3.294s-.6-1.603-1.001-1.603 2.203-.355 1.803-4.807c-.902-5.3424-1.603 1.246-3.205.979-1.602-.268-.4-4.897.2-5.431s-.702-2.7599-4.207 2.938c-.3 2.76-.701-.712-1.402-.534-1.201 2.226-1.002 3.828.701 5.876 2.504 2.048 4.107 4.096 4.006 5.164-.1 1.068-1.401 3.472-3.204 3.472-1.804 0 .1-2.938 0-3.917-.101-.98-3.105-4.541-3.105-4.541s-2.104-3.027-1.904-3.116-.199-.534-1.202 2.582c-1.002 3.115-2.203-2.048-2.203-2.048s-1.402 3.828 1.602 6.144c-2.304-.268-2.504.533-2.504.533 0 1.069 3.105 1.514 3.506 3.383.401 1.87-3.205 2.939-3.205 2.939s1.502 1.869 5.709-1.781c.101 2.315-1.603 3.917-1.603 3.917 1.403.564 2.505.505 2.705 1.959z" style="fill-rule:evenodd;clip-rule:evenodd;fill:#cdad56;stroke:#000;stroke-width:1.07574;stroke-linejoin:round"/><path d="m351.524 123.643s-1.872-2.471-1.957-2.957-9.208.614-13.526-9.276c-2.808-4.699 0-1.944 0-1.944l.171-2.269s-2.987-3.248-1.712-4.949c1.276-1.702.751 2.187 2.392 2.194 2.041-.08.936-4.212.936-4.212s.169-.4859.765-.7291c.85.081 1.196 2.5191 1.963 2.6811.765.161 2.346-2.8689 2.848-3.4918.701-.0896.674-2.5109 1.781 2.5928-.596 5.428-5.656 4.375-5.656 7.939 0 3.565 3.232 6.319 4.168 6.4s.596-2.997.596-2.997.509-1.458.849-1.458c.341 0-2.972.566-2.632-3.485.766-3.792 2.463.244 3.824.001 1.362-.243-.16-4.011.231-4.586.09-.575 2.097-3.045 2.872 2.406.256 2.512 1.796-2.161 2.392-1.999 1.021 2.026-.452 4.73-1.897 6.593-2.127 1.863-3.088 3.905-3.002 4.878.084.972.589 2.179 2.121 2.179 1.531 0 .516-1.694.601-2.585s2.637-3.776 2.637-3.776c.5-.712.084-2.041.615-2.656.831.007 1.172-1.021 2.022 1.814.851 2.836 1.871-1.863 1.871-1.863s1.191 3.484-1.36 5.589c1.956-.242 2.125.487 2.125.487 0 .972-.933 1.377-1.273 3.079-.341 1.701 1.018 2.674 1.018 2.674s-1.275 1.7-4.848-1.622c-.086 2.107 1.361 3.565 1.361 3.565-1.191.514-2.126.459-2.296 1.783z" style="fill-rule:evenodd;clip-rule:evenodd;fill:#cdad56;stroke:#000;stroke-width:.945788;stroke-linejoin:round"/><path clip-rule="evenodd" d="m406.56 253.963c-1.866-1.505-2.087-.191-3.005-.527-.449-.168-.802-.543-1.193-.883-.34-.31-.744-.439-1.194-.607-.169.446-.339.891-.509 1.337-.169.446.472 1.184.459 1.853-.128.994-.584 1.817-1.987 2.157.4-.704.627-.739.505-1.599-.06-.429-1.413-1.192-1.246-1.598.248-.655.671-1.411.358-2.063-.576.349-1.328.166-1.905.379-.483.192-.516.992-1.189 1.324-.69.288-2.212.145-3.483-.496.776-.523 1.419-.17 2.195-.694.388-.262.371-1.382.759-1.645.388-.262 1.318-.54 1.706-.803-.349-.353-.33-.913-.679-1.266-.35-.354-1.898-.277-2.248-.632-.698-.706-.565-1.637-1.264-2.344 1.808.577 1.546 1.36 2 1.301.856-.365 1.711-.438 2.16-.27.45.168 1.304 1.161 1.754 1.33.169-.446.416-1.012.587-1.458.169-.446-.763-1.218-.593-1.664.339-.89 1.182-1.678 1.522-2.571.121.861.282 1.583.404 2.443.06.43 1.011.653 1.072 1.083.06.43-.496 1.427-.436 1.857.52-.092 1.271-.029 1.789-.121.519-.093.864-1.165 1.383-1.257 1.038-.184 1.786-.128 2.844.049-.776.644-1.38.601-1.866 1.193-.389.262.152 1.126-.972 1.731-.422.217-1.531-.044-1.919.218l1.048 1.061c.349.354 1.917.518 2.266.871.699.708 1.069 1.552.877 2.311zm-47.966.728c1.866-1.506 2.088-.192 3.006-.527.448-.169.802-.543 1.193-.883.34-.31.744-.439 1.193-.608l.509 1.337c.17.446-.473 1.184-.457 1.853.126.994.582 1.817 1.985 2.159-.4-.705-.626-.74-.505-1.6.061-.43 1.413-1.192 1.247-1.6-.248-.652-.671-1.408-.359-2.062.577.35 1.328.167 1.905.379.484.192.517.992 1.191 1.326.689.287 2.212.145 3.481-.497-.777-.523-1.418-.17-2.194-.694-.389-.262-.371-1.383-.759-1.645-.389-.262-1.319-.541-1.708-.803.35-.353.332-.913.68-1.267.351-.353 1.899-.277 2.248-.63.699-.707.566-1.638 1.264-2.345-1.808.577-1.545 1.36-2 1.3-.856-.364-1.71-.437-2.16-.269-.448.168-1.304 1.161-1.753 1.329-.171-.445-.418-1.012-.587-1.457-.17-.446.763-1.218.592-1.664-.339-.891-1.181-1.679-1.52-2.57-.123.86-.283 1.582-.404 2.442-.062.429-1.013.654-1.074 1.083-.061.43.497 1.427.437 1.857-.52-.093-1.271-.03-1.79-.121-.518-.092-.864-1.165-1.384-1.257-1.037-.184-1.784-.128-2.842.05.776.643 1.379.599 1.866 1.192.388.262-.152 1.125.971 1.731.422.218 1.532-.043 1.92.218-.35.354-.699.707-1.048 1.061-.349.353-1.917.518-2.267.871-.698.707-1.068 1.552-.877 2.311z" fill="#ffc900" fill-rule="evenodd"/><path d="m404.888 258.723c-1.69 1.173-12.608 3.627-12.72 12.053s1.914 10.347-.112 10.56c-3.94 0-4.502-9.387-4.39-13.547.112-4.159.224-3.52.224-3.52s2.702.64 2.477 2.667 2.701-5.013 1.689-6.933c1.8 1.6 4.164.96 4.164.853 0-.106-1.35-1.386-1.913-2.346-.562-.96 2.026.533 2.026.533s.112-1.6-2.139-1.493c-2.926 0 .451-.854.451-.854s1.688 1.387 2.813-.106c-1.238-1.174-3.038-1.814-3.038-1.814s-1.576-2.666-3.714-3.2c-2.477-.533-2.14.96-4.953.747-.563.96-.563 1.067.563 1.387-1.914 1.173-.901 3.52-.901 3.52s3.039-1.174 2.927.746-1.802 1.6-2.927.427c-1.013-.533-1.35.533-1.35.533l1.576 1.494s-3.04-.107-3.828 1.706c1.689-.106 2.589.32 2.589.32s-3.489 1.387-3.828 2.133c-.336.747-.449-.853-.562-.853-.112 0-3.376-1.066-3.376-1.066l-1.127 4.612s2.253 2.001 3.49 1.361c1.239-.64 3.49-2.56 4.84-2.027-3.939 2.667-7.878 6.507-10.017 7.04-.563-.427-2.476-2.133-3.264-1.28s-.226 1.92.788 1.813c1.012-.106-3.264.854-2.364 2.454s.788 1.492 1.576 1.066-.676-.533 2.251-1.28c2.926-.746 2.813-1.494 2.813-1.494s-.562 1.174-2.137 1.494c-1.576.32-2.815.32-2.477.746.338.427 1.012 1.174.788 1.601-.226.426 3.264-2.24 4.165-.107 2.364-.106 3.939-2.666 2.813-4.16.113 1.6 1.238 2.134.563 2.88-.675.747 5.29-2.454 2.363-4.373.79 1.6.901 2.88.901 2.88s1.35-.107 1.689-.533c.337-.428-.676 1.173-.225 1.493.449.32 2.588 2.133 1.688 3.413-.563-.746-.675-1.92-1.351-1.813s-3.489 1.92-5.177 2.027c-1.688.106 2.025 5.546 2.025 5.546s-2.588-.32-2.925-.106c-.339.213-2.027-1.92-2.364-.64-.563 1.6.562.96.562.96s-1.463-.64-2.251.106c-.787.747-1.576 1.494-1.013 1.813.563.32 3.04.32 3.376.213.336-.106-2.813.214-3.038.534-.226.32-.675 1.493 0 1.92.675.426 2.364-.214 2.476-.534.113-.32.225 1.174.225 1.174s2.927.213 2.927-2.454c0-2.666.225 1.92.225 1.92s2.926.427 3.039-2.24c.113-2.666.337 1.814.337 1.814s1.914-.534 1.914-.96c0-.427-.113 5.333-1.463 6.933-2.139-1.28-3.49.853-3.49.853s.112 3.093-.112 3.84c-.225.747 1.463-.427 1.576-.747.112-.32 2.138-1.173 2.251-1.386l.675-1.28s-.451 1.493-1.238 1.706c-.787.214-1.576.96-1.239 1.6.338.64 1.577 1.067 2.026 1.707.451.64 2.027-3.733 2.027-3.733l.112.96s2.026-.427 2.251-1.28c.226-.854-2.138-1.6-.225-2.987s0 1.28 0 1.28.675 2.027 1.126 2.027c.45 0 1.575-3.84.45-4.8s1.688 1.173 1.688 1.173 1.576-3.946-.112-4.48c-1.688-.533-2.477-.746-2.477-.746s.901-1.067.451-1.174c-.451-.106 2.363 2.347 2.813 1.707.451-.64 1.126-2.56-2.137-3.627-3.265-1.066-.113-4.053-.113-4.053s2.026 2.133 3.489.96-.112-1.173-.112-1.173 4.164-2.346 4.276-3.52c-.787-.107-2.139.106-2.139.106s2.364-1.386 1.802-3.626c-.901 1.173-2.139 1.174-2.139 1.174s2.026-1.814 1.688-3.52c-1.238.853-1.125 1.492-1.913 1.28-.788-.213-2.138-6.934 1.013-7.36 3.152-.427 1.463 3.306 1.576 3.306.112 0 4.728-1.706 0-4.48 1.125-.32 3.489 1.6 3.489 1.6s-1.013-4.693-6.078-1.813c1.238-1.173 2.026-1.92 3.039-1.707 1.013.214 4.616-.106 4.616-1.066-.901-.64-2.815.32-3.829 0-1.012-.32 7.204-.853 6.529-4.48z" style="fill-rule:evenodd;clip-rule:evenodd;fill:#ffc900;stroke:#006b00;stroke-width:.592947;stroke-linecap:round;stroke-linejoin:round"/><path d="m380.799 270.773s4.164.32 6.865-3.627m-18.46-5.654s4.502-2.24 6.753.533zm8.554 4.801c-.112 0-1.575 1.386-1.913 1.386z" stroke="#006b00" stroke-linecap="round" stroke-width=".593102"/><path d="m385.298 269.599s.338 2.133 1.013 2.133c.676 0-1.125.534-1.801.107.788.96 1.239 2.667 0 3.307" stroke="#006b00" stroke-linecap="round" stroke-width=".593102"/><path clip-rule="evenodd" d="m383.159 296.48s-1.463 1.493-3.264 1.6z" fill="#e80000" fill-rule="evenodd"/><path d="m383.159 296.48s-1.463 1.493-3.264 1.6" stroke="#006b00" stroke-linecap="round" stroke-width=".593102"/><path d="m380.233 264.801s-1.801 1.494-1.126 3.52m5.743 21.331s-.901-4.267-.338-5.334c.338-1.386 1.801-1.92 2.927-3.733zm-.452-3.094s-1.126 2.56-6.078 1.707zm1.353-6.4s.337 3.413-4.165 2.133z" stroke="#006b00" stroke-linecap="round" stroke-width=".593102"/><path clip-rule="evenodd" d="m386.986 261.067s2.364-.854 2.813-1.28c.451-.427 1.239-1.28 1.464-1.92.224-.64-1.576-1.6-.676-2.987.563-.64 1.351-.747 2.702 0 1.35.747-1.239-2.347-2.589-2.453-1.35-.107-2.251.853-2.589.64-.337-.214.112.853-.45.853-.563 0 1.125.853 1.013 1.387-.112.533 1.8 2.346 1.688 2.773s-2.813 2.88-3.376 2.987z" fill="#006b00" fill-rule="evenodd"/><path d="m388.677 254.027c1.027-.222 1.192.024 1.013.854-.481-.23-.658-.425-1.013-.854z" style="fill-rule:evenodd;clip-rule:evenodd;fill:#ffc900;stroke:#ffc900;stroke-width:.593102;stroke-linecap:round;stroke-linejoin:round"/><path d="m381.486 301.549s-.38 2.233.548 2.42c-.046-.864.197-1.455.425-1.685-.198-.087-.927-.72-.973-.735zm-2.088-2.748c-.851-.116-2.29.554-1.877 1.362.692-.564 1.333.047 1.817-.529.148-.158.106-.631.06-.833zm-.007-1.596s-1.342-.202-1.529.679c.927-.112 1.204-.206 1.511-.021.089-.189.003-.614.018-.658z" style="fill-rule:evenodd;clip-rule:evenodd;fill:#e80000;stroke:#006b00;stroke-width:.593102;stroke-linejoin:round"/><path d="m373.704 284.624s.805.289 1.033 1.067c.638-.375.943-2.032-1.033-1.067zm-1.993 1.899c.031-.014 1.687-.965 1.855-.057-.35.331-.502.547-.776.619-.212 0-.638-.619-1.079-.562zm-.165 3.083c.03-.014 1.064-.878 1.459-.302s-.319.547-.319.547-.365-.158-1.14-.245zm-1.46-17.168c-.015 0-1.322-.475-1.869.389.866.101 1.17.389 1.565.677-.106-.36-.288-.907.304-1.066zm-2.536 6.466s.06-1.455.79-2.045c.41.216.532.561.805.994-.547.115-1.276.143-1.595 1.051zm3.492-1.038s-1.444.634-.973 1.325c.472-.475.988-.331.988-.346 0-.014 0-.965-.015-.979z" style="fill-rule:evenodd;clip-rule:evenodd;fill:#e80000;stroke:#006b00;stroke-width:.474482;stroke-linejoin:round"/><path d="m368.961 263.951c-.517.548.638 1.743 1.854 1.571.304-1.296-1.55-1.974-1.854-1.571z" style="fill-rule:evenodd;clip-rule:evenodd;fill:#ffc900;stroke:#006b00;stroke-width:.474482;stroke-linejoin:round"/><path d="m370.299 262.959s.228 1.023 1.277.749c-.167-.792-.897-1.383-.897-1.383-.045.231.152.591-.38.634zm.699 2.968s.577.591 1.717-.619c-.516.144-1.428-.288-1.428-.288s0 .835-.289.907z" style="fill-rule:evenodd;clip-rule:evenodd;fill:#e80000;stroke:#006b00;stroke-width:.474482;stroke-linejoin:round"/><path d="m368.895 261.604c-.517.547.214 1.31 1.431 1.137.304-1.295-1.127-1.54-1.431-1.137z" style="fill-rule:evenodd;clip-rule:evenodd;fill:#ffc900;stroke:#006b00;stroke-width:.474482;stroke-linejoin:round"/><path clip-rule="evenodd" d="m369.383 256.484s4.844-1.231 7.415.615 2.571.176 2.571.176 3.757 1.23 4.845.967c1.088-.264-.791.088.692-.703s-2.966.176-3.361-1.494c-.693-1.055.098-2.374-1.483-1.934-1.088-1.231.691-2.109.296-3.428-1.087.703-1.681-.264-2.571 1.495-2.076-.352-.297-2.901-2.571-3.165 0 1.846-1.681 1.934-1.78 2.988-.988.616-5.339 2.901-4.053 4.483z" fill="url(#c)" fill-rule="evenodd"/><path clip-rule="evenodd" d="m313.619 396.6c3.144-.674 20.176 3.342 26.743 9.601-1.393-11.145-4.868-19.684-4.868-19.684s-10.149-2.574-11.543-1.335c-2.044 1.913-8.181 7.644-10.332 11.418zm-5.192-51.478c-1.194.176-2.389.884-3.582 2.652-1.394 3.008-2.389 10.616-4.379 12.385-1.991 1.769-3.782 1.945-3.782 3.538 0 1.592.2 5.307 5.573 6.722 5.374.177 13.932-7.607 13.932-7.607s4.379-4.245 6.17-8.845c-10.349 3.185-17.713-5.308-13.932-8.846z" fill="#c01500" fill-rule="evenodd" stroke="#000" stroke-width=".86059"/><path clip-rule="evenodd" d="m458.106 394.825c-3.12-.67-20.348 3.323-26.864 9.546 1.383-11.081 4.83-19.57 4.83-19.57 1.203-.292 9.962-2.558 11.346-1.327 2.028 1.902 8.555 7.6 10.688 11.351zm4.826-51.179c1.186.176 1.605 1.561 2.572 3.318 1.382 2.99 2.806 7.346 4.782 9.105 1.975 1.759 3.752 4.364 3.752 5.947 0 1.582-.416 3.722-5.748 5.128-5.333.176-13.06-5.91-13.06-5.91s-4.344-4.222-6.122-8.794c10.27 3.167 16.921-4.985 13.824-8.794z" fill="#c01500" fill-rule="evenodd" stroke="#000" stroke-width="1.13942"/><path clip-rule="evenodd" d="m302.456 386.876s10.747 6.546 10.947 9.553c28.859-38.036 102.5-49.889 144.496-2.653 5.573-6.546 11.345-8.669 11.345-8.669-44.186-51.307-132.159-44.937-166.789 1.769z" fill="#fb0" fill-rule="evenodd" stroke="#000" stroke-width=".86059"/><path clip-rule="evenodd" d="m411.944 241.343 4.207-.088-7.512 8.457 9.016 9.348-17.73 19.854 16.727 17.896c-1.836 4.006-3.973 7.657-6.811 10.951l-9.615-9.438 17.428-19.32-14.323-14.422 8.613-23.237zm-60.096 1.69-4.507.089 8.413 8.101-8.915 9.883 18.53 17.895-15.325 18.251c1.837 4.007 4.475 8.458 7.312 11.752l9.115-10.239-18.73-18.518 13.722-15.491-9.616-21.724z" fill="#1e5aa6" fill-rule="evenodd" stroke="#000" stroke-width=".86059"/><path clip-rule="evenodd" d="m372.68 291.109-6.611 7.835 23.639 24.306c4.173-1.87 7.445-4.007 11.017-6.589l-12.32-12.643 5.008-13.087 7.212 7.39-22.536 25.552c-3.772-1.425-7.946-3.65-11.719-6.411l11.919-13.443-5.608-12.91zm-7.311-12.197 4.307 4.808-2.804-6.499-1.503 1.692z" fill="#1e5aa6" fill-rule="evenodd" stroke="#000" stroke-width=".86059"/><path clip-rule="evenodd" d="m396.219 283.165c.095-.089 3.476-4.096 3.476-4.096l-1.315-1.602-2.16 5.698z" fill="#1e5aa6" fill-rule="evenodd" stroke="#000" stroke-width="1.11102"/><g fill="#000"><path d="m315.112 388.511 2.593-2.705 1.13.856-3.815 3.979-6.827-5.173 1.221-1.273z"/><path d="m319.837 380.651-2.517 2.269 1.725 1.512 2.954-2.662 1.066.935-4.265 3.844-6.44-5.647 4.256-3.836 1.075.942-2.945 2.655 1.534 1.345 2.518-2.268z"/><path d="m325.127 376.019c.512.605.843 1.211.993 1.817.149.607.108 1.174-.125 1.703-.229.526-.629.97-1.199 1.332-.564.358-1.17.555-1.82.59-.65.036-1.288-.096-1.915-.395-.629-.302-1.195-.747-1.699-1.336l-.258-.304c-.512-.606-.843-1.214-.992-1.825-.148-.616-.106-1.186.126-1.709.233-.529.632-.973 1.199-1.333s1.175-.555 1.824-.586c.65-.036 1.29.101 1.921.411.631.304 1.202.758 1.712 1.361zm-1.657.623c-.545-.645-1.088-1.054-1.627-1.227s-1.046-.109-1.519.192c-.47.298-.692.694-.667 1.189.024.491.305 1.058.843 1.699l.254.299c.531.628 1.071 1.034 1.62 1.218.549.185 1.063.125 1.543-.18.47-.298.691-.694.662-1.186-.032-.495-.317-1.063-.855-1.704z"/><path d="m331.203 368.182-2.249 1.351 4.32 5.68-1.513.909-4.32-5.68-2.219 1.334-.865-1.138 5.98-3.594z"/><path d="m336.917 369.434-3.119 1.325 1.087 2.021 3.66-1.555.671 1.248-5.284 2.246-4.057-7.544 5.274-2.241.677 1.259-3.65 1.551.967 1.798 3.119-1.325z"/><path d="m340.687 367.796-1.308.517 1.404 2.804-1.641.649-3.835-7.659 2.96-1.171c.941-.372 1.768-.457 2.48-.256.712.202 1.253.67 1.622 1.407.261.523.361 1.006.3 1.451-.06.439-.277.857-.651 1.253l3.29 2.448.037.074-1.761.696zm-1.948-.761 1.324-.524c.412-.163.681-.389.807-.678.125-.293.098-.616-.079-.971-.181-.361-.431-.602-.75-.724-.315-.123-.693-.098-1.134.077l-1.319.521z"/><path d="m346.387 365.148-1.324.473 1.293 2.857-1.662.594-3.531-7.804 2.997-1.071c.953-.341 1.781-.398 2.484-.172.702.226 1.224.714 1.563 1.464.241.533.322 1.021.244 1.464-.076.438-.309.849-.697 1.233l3.188 2.565.034.075-1.784.638zm-1.913-.829 1.341-.48c.417-.149.694-.366.831-.652.135-.289.121-.614-.042-.975-.167-.368-.407-.618-.72-.751-.31-.134-.688-.122-1.135.038l-1.335.477z"/><path d="m376.028 358.422-1.402.104.293 3.121-1.761.131-.799-8.528 3.174-.235c1.009-.075 1.809.092 2.398.5.59.409.923 1.023 1 1.843.055.582-.027 1.077-.245 1.487-.214.405-.566.742-1.057 1.01l2.175 3.348.007.082-1.889.14zm-1.536-1.32 1.42-.105c.442-.033.774-.169.996-.41.221-.244.313-.564.276-.958-.038-.402-.183-.71-.435-.923-.248-.214-.609-.303-1.083-.268l-1.413.105z"/><path d="m393.244 357.914-1.406-.019-.053 3.136-1.764-.024.144-8.564 3.182.042c1.012.013 1.788.249 2.33.708.541.458.805 1.099.791 1.922-.009.585-.145 1.071-.407 1.46-.257.385-.645.689-1.162.914l1.794 3.524-.002.083-1.894-.025zm-1.382-1.448 1.424.019c.443.006.788-.101 1.035-.322.247-.224.374-.534.38-.93.007-.404-.103-.723-.331-.958-.223-.234-.572-.354-1.047-.361l-1.418-.018z"/><path d="m428.307 366.198-1.254-.635-1.691 2.641-1.575-.797 4.619-7.213 2.84 1.436c.903.457 1.477.999 1.724 1.627s.148 1.288-.296 1.982c-.315.492-.692.846-1.131 1.061-.433.214-.942.302-1.525.265l-.234 3.785-.044.069-1.69-.855zm-.484-1.839 1.271.643c.395.2.762.261 1.099.182.34-.081.617-.289.83-.623.218-.34.286-.66.204-.959-.078-.298-.329-.553-.752-.768l-1.265-.64z"/><path d="m446.613 375.897-2.723-2.017-1.569 1.674 3.196 2.367-.97 1.034-4.614-3.417 5.858-6.249 4.605 3.41-.978 1.043-3.186-2.36-1.397 1.49 2.724 2.016z"/><path d="m438.318 368.756c-.148.806-.421 1.49-.818 2.05-.398.559-.894.96-1.489 1.201-.591.241-1.23.304-1.919.189-.681-.113-1.258-.378-1.732-.794-.475-.415-.803-.949-.985-1.602-.182-.657-.203-1.38-.062-2.168l.074-.405c.148-.807.423-1.491.825-2.054.407-.566.905-.968 1.495-1.206.595-.241 1.235-.304 1.919-.19.685.115 1.262.381 1.732.8.474.415.799.955.976 1.619.181.66.198 1.392.051 2.194zm-1.647-.658c.157-.859.123-1.537-.104-2.035-.226-.498-.625-.795-1.197-.89-.568-.095-1.047.053-1.437.444-.389.387-.663 1.006-.823 1.857l-.073.4c-.154.836-.119 1.511.105 2.024s.625.817 1.204.914c.568.095 1.045-.053 1.431-.445.387-.395.66-1.019.82-1.869z"/><path d="m385.167 355.644c.125.789.094 1.499-.093 2.13-.186.631-.516 1.141-.988 1.532-.469.391-1.04.629-1.714.717-.667.086-1.287.004-1.861-.248-.573-.251-1.05-.653-1.43-1.207-.381-.557-.634-1.221-.759-1.991l-.063-.397c-.124-.789-.092-1.501.098-2.136.193-.639.523-1.152.993-1.538.472-.391 1.043-.63 1.714-.717.67-.087 1.291-.003 1.861.253.574.251 1.05.66 1.428 1.225.382.561.634 1.234.758 2.019zm-1.737-.145c-.132-.841-.384-1.46-.755-1.857-.371-.398-.836-.56-1.396-.488-.556.072-.952.345-1.185.817-.235.468-.288 1.119-.161 1.953l.062.391c.128.818.38 1.434.753 1.846s.843.581 1.411.508c.556-.072.949-.344 1.179-.816.23-.476.281-1.13.154-1.964z"/><path d="m354.663 363.408-2.94.966.119 1.813-1.783.586-.261-8.904 1.554-.511 6.336 6.908-1.783.586zm-3.036-.503 2.034-.669-2.254-2.624z"/><path d="m454.688 384.609-2.305-2.063-1.762.775-1.398-1.251 8.797-3.543 1.219 1.091-4.032 7.807-1.399-1.252zm-.879-2.692 1.596 1.428 1.601-2.84z"/><path d="m405.614 360.568-3.046-.544-.969 1.618-1.847-.33 5.027-7.795 1.61.288 1.268 8.918-1.847-.33zm-2.262-1.855 2.108.376-.353-3.316z"/><path d="m356.738 355.973 3.455 5.716.873-6.439 2.286-.382 1.773 8.38-1.747.292-.484-2.29-.662-3.984-.96 6.626-1.196.2-3.594-5.859 1.009 3.919.485 2.291-1.741.291-1.772-8.381z"/><path d="m368.844 359.252.351 2.998-1.758.162-.995-8.507 3.327-.308c.64-.059 1.216.006 1.728.194.515.189.929.487 1.242.896.311.404.5.881.564 1.43.097.834-.113 1.518-.63 2.055-.514.531-1.277.844-2.288.938zm-.166-1.42 1.57-.145c.464-.043.805-.185 1.022-.425.22-.241.307-.564.259-.969-.049-.417-.211-.743-.487-.977s-.632-.335-1.066-.303l-1.611.149z"/><path d="m386.833 357.97.087 3.017-1.765.04-.246-8.562 3.341-.076c.643-.015 1.211.09 1.704.314.497.225.883.551 1.158.98.275.426.421.915.436 1.467.025.839-.245 1.508-.807 2.008-.559.495-1.346.754-2.361.777zm-.041-1.429 1.576-.036c.467-.01.818-.128 1.055-.353.241-.225.355-.542.344-.949-.012-.42-.146-.756-.4-1.009-.255-.253-.599-.379-1.035-.377l-1.617.037z"/><path d="m421.509 363.178-1.62 2.546-1.577-.792 4.599-7.227 2.986 1.502c.574.289 1.016.642 1.324 1.059.311.418.468.87.469 1.356.003.482-.144.956-.441 1.423-.451.708-1.064 1.137-1.84 1.289-.771.149-1.61-.004-2.517-.46zm.768-1.206 1.408.709c.417.209.793.276 1.129.2.338-.074.617-.283.836-.627.225-.354.297-.696.215-1.025-.081-.33-.315-.596-.699-.798l-1.446-.727z"/><path d="m398.544 361.401-1.756-.18 1.103-8.494 1.756.18z"/><path d="m464.019 386.192-1.912-1.796-5.461 4.593-1.287-1.209 5.462-4.593-1.887-1.772 1.094-.92 5.085 4.777z"/><path d="m444.783 370.686-2.185-1.454-4.596 5.459-1.47-.978 4.597-5.458-2.155-1.434.921-1.094 5.809 3.865z"/><path d="m411.525 354.92.174 6.454 4.072-5.343 2.242.587-2.694 8.131-1.713-.448.736-2.223 1.442-3.792-4.244 5.474-1.173-.307-.225-6.638-1.098 3.876-.737 2.222-1.707-.447 2.694-8.13z"/><path d="m450.12 382.23c-.523.017-1.074-.11-1.654-.382-.578-.274-1.119-.658-1.624-1.151-.531-.518-.872-1.074-1.023-1.668-.146-.593-.089-1.191.17-1.792.263-.598.714-1.162 1.355-1.691l.452-.366c.665-.538 1.342-.904 2.031-1.096.696-.193 1.365-.204 2.008-.033.65.171 1.235.511 1.758 1.02.727.71 1.106 1.417 1.138 2.123.035.704-.269 1.384-.912 2.04l-1.23-1.199c.325-.364.479-.711.462-1.044-.014-.329-.19-.658-.527-.987-.429-.419-.932-.596-1.507-.531s-1.21.376-1.904.934l-.426.344c-.697.565-1.103 1.111-1.215 1.639-.112.527.067 1.02.539 1.48.475.463.923.704 1.344.724l1.148-.93-1.15-1.121 1.01-.818 2.413 2.353z"/></g><path d="m446.622 216.112s10.284-1.758 21.062 9.756m-21.66-9.579s4.152-3.164 7.119-3.252zm.598-.441c.099-.087 24.82-3.163 25.611-3.867zm.097.178c.099-.088 27.688-2.11 27.688-2.11zm-.097.086s29.368-1.231 31.148.088zm-.103-.086s28.776.176 29.27.791zm.103 0 27.688 2.021zm-.296.177c.099 0 28.182 2.198 30.951 5.362zm32.428 9.841c-.099-.087-9.592-10.108-32.533-9.932zm-32.428-9.755s15.92.967 20.964 5.889z" stroke="#fff700" stroke-linecap="round" stroke-width=".86059"/><path clip-rule="evenodd" d="m440.144 226.571s14.264.497 14.264 1.74-10.628 3.605-10.768 8.826 8.111 5.593 8.67 12.181c.56 6.589-6.432 7.583-7.831 9.323-1.399.87-4.755 10.193-4.335 15.662.419 5.47 2.237 23.991 5.453 27.72 2.518 1.74 6.294 7.334 10.349 5.593 4.056-1.74 1.258-8.079.839-9.819-.419-1.741 1.678-4.6 1.678-7.21 0-2.611-1.538-4.724-1.398-5.345.139-.622 11.327 2.362 10.627 12.182-.698 9.82-5.173 6.836-5.173 6.836s1.398 12.058-2.098 13.673c-6.293 2.984-10.908-.621-10.908-.621l.592 2.453-4.787-2.204s-6.153-7.832-7.551-11.312c-1.399-3.48-3.077-19.018-2.517-22.374.559-3.357.978-22.997.698-23.991-.279-.995-1.398-17.402-.698-19.888.698-2.486 5.034-13.425 4.894-13.425z" fill="url(#e)" fill-rule="evenodd" stroke="#000" stroke-width=".86059"/><path clip-rule="evenodd" d="m424.763 223.339s9.929-8.576 15.663-7.582c2.936 0 .14 1.864.14 1.864s5.033.374 5.733 2.362c.139.87-2.377 1.119-2.377 1.119s2.097.373 2.237 1.989c.14 1.617-21.256.373-21.396.248z" fill="#ff7000" fill-rule="evenodd" stroke="#000" stroke-width=".86059"/><path d="m436.089 220.358s7.832-.248 7.832.747m-18.6 1.861s10.628-1.243 15.104-5.221z" stroke="#000" stroke-width=".86059"/><path d="m463.917 322.038s6.712-1.367 8.53-3.48c1.12-.747 6.992 7.831-8.53 3.48z" style="fill-rule:evenodd;clip-rule:evenodd;fill:#fff;stroke:#000;stroke-width:1.07574;stroke-linejoin:round"/><path d="m449.796 257.775s-5.314 1.616-6.432 6.34m18.735 8.574s.84 4.599-1.538 7.706c-1.259 1.243-5.035 3.357-5.035 4.848 0 1.492 1.399 3.481 1.12 5.221-.28 1.741-2.378 3.481-2.238 4.972 0 1.492 2.377 9.447 2.098 9.572z" stroke="#fff" stroke-linecap="round" stroke-width="1.07574"/><path clip-rule="evenodd" d="m447.552 220.359s1.818 4.475 7.691.249c-3.775-4.598-7.691-.124-7.691-.248z" fill="#c75b00" fill-rule="evenodd" stroke="#000" stroke-width=".86059"/><path clip-rule="evenodd" d="m451.892 220.171c0 .24-.282.435-.63.435s-.628-.195-.628-.435.281-.435.628-.435c.348 0 .63.195.63.435z" fill="#000" fill-rule="evenodd"/><path clip-rule="evenodd" d="m399.531 209.974s11.138 10.715 18.344 10.599c1.31 3.144-3.272 6.069-5.106 7.467-3.669-1.048-6.984.191-15.501-9.126.524-5.94 2.394-8.707 2.263-8.94zm15.071-24.925c1.441-3.961 4.324-7.104 6.813-7.454-.655-3.028 5.241-16.422 22.406-21.547 1.048 6.872-7.338 13.627-7.338 13.627s25.288-3.843 30.398-9.55c-.524 2.562-5.634 18.518-32.625 18.402 10.22 8.619-3.276 15.49-9.042 13.393 10.614-7.221-3.013-11.53-10.612-6.871z" fill="#fff" fill-rule="evenodd" stroke="#000" stroke-width=".86059"/><path clip-rule="evenodd" d="m423.249 179.462c5.11-2.912 6.944-2.912 11.137-2.33-3.013.349-3.013.466-3.013.466s-.263.35 1.572 1.863c-2.096-.465-3.931-1.513-9.696 0z" fill="#cccccd" fill-rule="evenodd" stroke="#ccc" stroke-width=".86059"/><path d="m421.28 177.595s10.088-4.775 15.723-8.036" stroke="#000" stroke-width=".86059"/><path clip-rule="evenodd" d="m412.632 228.027s13.889 3.378 15.462-14.325c-3.014-7.687-7.207-24.226-.787-29.001-5.896-3.61-12.317.117-12.317.117-.392.815-5.633 7.454 1.442 19.1-16.771-3.959-9.958 10.133-9.958 10.133.656-2.213 9.565-4.309 11.792 6.988.917 2.795-6.027 7.104-5.634 6.988z" fill="#00f" fill-rule="evenodd" stroke="#000" stroke-width=".86059"/><path clip-rule="evenodd" d="m428.226 213.817s14.676-6.988 14.282-23.409c-12.448.233-16.902 14.558-16.902 14.558z" fill="#00f" fill-rule="evenodd" stroke="#000" stroke-width=".86059"/><path clip-rule="evenodd" d="m362.45 213.003s-10.875 8.386-17.033 5.707c-4.587 2.446-9.959-1.863-9.959-1.863s6.29 20.615 28.826 5.707c-.393-4.543-1.572-9.202-1.834-9.551z" fill="#fff" fill-rule="evenodd" stroke="#000" stroke-width=".86059"/><path clip-rule="evenodd" d="m345.286 218.358c.917-4.309 4.717-6.405 7.731-2.329 4.062.699 8.124-14.093-6.289-11.647 4.062-19.333-8.123-26.554-8.123-26.554s-4.324 21.43-2.359 25.39-2.883-7.338-18.474-10.482c-.262 16.189 17.426 23.759 17.426 23.759s4.98 4.076 10.088 1.863z" fill="#00f" fill-rule="evenodd" stroke="#000" stroke-width=".86059"/><path d="m335.329 217.311s3.145-4.541 9.958 1.282m1.439-14.329s-6.814 5.125-5.242 12.113zm-10.348-.698s-1.573 5.009 1.834 12.113z" stroke="#000" stroke-width=".86059"/><path clip-rule="evenodd" d="m336.639 185.863c0-.117-10.352 0-4.193 9.317-4.586 1.281-14.806-4.659-7.731-12.579-23.192-.466-32.625-10.365-32.625-19.448 6.813 6.288 23.06 3.726 28.826 7.569-7.076-5.824-5.634-13.859-5.634-13.859s19.785 5.241 23.322 20.847c-1.179 3.028-1.703 8.386-1.965 8.152z" fill="#fff" fill-rule="evenodd" stroke="#000" stroke-width=".86059"/><path d="m320.723 170.318c3.818 3.453 13.629 4.485 18.608 8.329" stroke="#000" stroke-width=".86059"/><path clip-rule="evenodd" d="m325.24 180.509s8.122-.933 10.476 1.63c-3.178 0-4.238-.7-8.829.815 1.295-.583.943-1.63 1.648-1.63.706 0-2.942-.816-3.296-.816z" fill="#cccccd" fill-rule="evenodd" stroke="#ccc" stroke-width=".815839"/><path clip-rule="evenodd" d="m365.727 124.021s4.454-3.494 9.302-.35c-2.19 5.818-10.088 3.611-10.088 3.611s.262 2.912-.524 4.309c1.581 1.057 2.882 4.543 2.882 4.543s8.124-1.748 9.827 1.397c3.111-.382 5.372 0 5.372 0s6.29-1.397 8.517-1.397 9.303 1.63 9.958 2.794c.656 1.165 3.013 8.969 4.586 8.852 1.572-.117-3.8 1.863-5.241-.117-1.441-1.979-1.048 2.562-1.048 2.562s4.455 4.194 4.979 5.125c.524.932-2.752 8.502-.263 13.743-2.18.179-2.358 2.213-2.358 2.213-.12 2.308-3.406 2.912-3.406 2.912l-.787-3.145-2.227 1.165.917-2.446s3.013-6.522 3.276-8.618c.262-2.097-2.752-5.824-5.111-5.824-2.358 0-4.061 6.639-4.061 6.639s-1.18 5.008-.786 5.474c.392.466-1.573-1.63-1.573-1.63s-1.048 3.028-1.834 3.959c-.786.932-2.49 1.282-2.49 1.282s-1.179-3.029-.785-4.193c.392-1.165 6.42-5.707 5.896-8.968s0-2.446-.131-2.563c-.132-.116-3.144-2.446-3.276-3.726-.131-1.281-3.931 1.63-8.909.699-1.524 2.366-1.704 8.268-1.704 8.268s-.524 7.104.524 7.92c1.048.815-2.62 2.562-2.62 2.562l-2.621 3.144s-.917-1.979-.917-1.863c0 .117-1.834 1.165-1.834 1.165l1.048-2.329c-.064-1.764 2.547-6.579 2.547-10.656 0-4.076.336-8.445.336-8.445s-4.848-.233-4.718 4.192c.131 4.426-1.179 4.659-.916 5.94.261 1.282 1.572 4.892 1.179 5.94-.394 1.048-1.966 1.398-1.966 1.398l-.393.582s-4.848 1.98-4.717 2.795c.131.816-.131-2.329-.131-2.329l-.262-3.378s2.882-1.63 2.882-5.706c0-4.077-.664-4.657-.532-5.588.13-.932.795-4.312.664-4.661-.132-.35-2.752.931-3.538.931s1.441-2.446 1.703-4.192c.263-1.748-2.621 1.63-4.979-.35 1.097-2.151 2.752-2.795 3.014-4.426.261-1.63-1.835 1.398-3.669.233.149-1.562 1.965-2.911 1.965-2.911s-1.492-.163-2.096 0c-1.179-.35 1.31-1.981 1.441-4.31s-1.441-3.261-1.441-3.377c0-.117-2.62-2.097-3.013-2.912-.394-.815-.394-1.747-.394-1.747s-4.324 2.795-9.433-3.144c4.679-3.551 9.696-.932 9.696-.932s1.309-3.262 7.336-3.028c6.027.233 7.207 3.261 6.945 2.912z" fill="#923f00" fill-rule="evenodd" stroke="#000" stroke-width=".86059"/><path clip-rule="evenodd" d="m398.691 184.265c.109 0 11.131.292 11.239 5.529.109 5.238-3.383 3.88-3.492 3.88-.108 0-8.075-.873-8.075-.873z" fill="#00f" fill-rule="evenodd" stroke="#000" stroke-width=".86059"/><path clip-rule="evenodd" d="m387.992 182.809s13.75-.097 12.986 5.238c-.764 5.334-4.256 4.267-4.256 4.267l-6.656-.485z" fill="#fffeff" fill-rule="evenodd" stroke="#000" stroke-width=".86059"/><path clip-rule="evenodd" d="m380.247 182.228 7.966.581s4.8.582 4.583 4.656c-.219 4.074-4.911 4.17-4.911 4.17l-7.748-.387z" fill="#00f" fill-rule="evenodd" stroke="#000" stroke-width=".86059"/><path clip-rule="evenodd" d="m361.59 184.265c-.11 0-11.132.292-11.24 5.529-.109 5.238 3.383 3.88 3.492 3.88.108 0 8.075-.873 8.075-.873l-.331-8.537z" fill="#fff" fill-rule="evenodd" stroke="#000" stroke-width=".86059"/><path clip-rule="evenodd" d="m372.281 182.809s-13.749-.097-12.985 5.238c.764 5.334 4.256 4.267 4.256 4.267l6.656-.485z" fill="#00f" fill-rule="evenodd" stroke="#000" stroke-width=".86059"/><path clip-rule="evenodd" d="m380.034 182.228-7.966.581s-4.802.582-4.583 4.656c.218 4.074 4.91 4.17 4.91 4.17l7.747-.387z" fill="#fff" fill-rule="evenodd" stroke="#000" stroke-width=".86059"/><path clip-rule="evenodd" d="m401.362 241.117s5.728-7.503 8.14-6.7c2.111.626.503 6.432-.502 6.968zm-39.264 1.341c-1.808-2.233-4.421-8.397-6.833-6.7-2.111.625-.503 6.432.503 6.968z" fill="#5e0043" fill-rule="evenodd" stroke="#000" stroke-width=".86059"/><path d="m365.892 227.617s11.162 6.112 14.823 6.271c3.661.158 15.269-7.938 15.269-7.938" stroke="#000" stroke-width=".86059"/><path clip-rule="evenodd" d="m366.966 203.652 2.143-2.381 10.716 4.842 10.893-4.286 2.143 1.984-12.143 7.62z" fill="#5e0043" fill-rule="evenodd" stroke="#000" stroke-width=".86059"/><path d="m358.457 203.524c.87.977 7.795 8.462 9.045 14.653 1.251 6.191-.714-8.493-.714-8.493s8.573 3.731 8.84 6.111c.268 2.382 4.098-.16 4.282-.568l-24.819-14.329zm42.348-.428s-9.019 10.556-7.947 22.064c-1.86-5.51-.357-14.604-.357-14.604l-1.965 1.111s-2.054 7.778-4.643 8.97c-.437-.928-.357-1.27-.357-1.27s-2.768 3.174-3.304 3.491c-.536.318.178 10.716.178 10.716s.93 7.535 2.001 7.456c-1.218.532-2.715 1.356-2.715 1.356l-1.111-20.123 2.54-2.261s3.393-3.651 3.661-7.223c-1.472 1.111-3.125 1.429-3.125 1.429s-.447 5.08-1.787 5.794c-1.339.714-1.376 2.039-1.376 2.039l-.317-6.638z" style="fill-rule:evenodd;clip-rule:evenodd;fill:#474747;stroke:#474747;stroke-width:1.07574;stroke-linejoin:round"/><path d="m380.178 215.317 1.743 31.744" stroke="#000" stroke-linecap="round" stroke-width="1.07574"/><path d="m358.216 230.475s4.107 2.143 5.626 8.652c13.392-.874 17.59 3.333 17.59 3.333s10.983-4.683 16.072-3.81c1.786-3.333 6.875-7.619 6.875-7.619" stroke="#000" stroke-width=".86059"/><path clip-rule="evenodd" d="m352.612 199.362 27.57 16.034 24.824-14.842s5.178-2.54 4.732-4.366c-.447-1.825-2.232-1.111-3.126-.793-.893.317-25.984 16.111-25.984 16.111l-26.698-15s-1.964-.556-2.322.555c-.358 1.11.736 1.746 1.003 2.302z" fill="#b4b6b9" fill-rule="evenodd" stroke="#000" stroke-width=".86059"/><path d="m401.913 195.201s-7.054-2.661-7.054-.355c0 2.307.2 2.544 1.331 4.022 1.132 1.48-.864 2.426-.864 2.426s-.268-.651-.667-1.657c-.399-1.005-4.192-1.714-4.525-2.898-.332-1.183.799-3.076-1.464-3.313-2.263-.236-4.459.829-4.924 3.136-.466 2.307-3.394 7.69-3.394 7.69l.399-12.246c4.968.317 14.197 1.282 21.295 2.013-2.129-.297.799.118.732.768-.2.533-.932.592-.865.414zm-24.957-3.078c-1.264 0-7.586.651-9.184 1.479-1.597.829 2.596 2.13 2.064 3.253-.533 1.124-.6 3.372-2.596 2.899s-8.718-3.431-8.917-4.437c-.2-1.005-1.597-1.064-1.597-1.064s19.299-2.307 20.231-2.13z" style="fill-rule:evenodd;clip-rule:evenodd;fill:#474747;stroke:#474747;stroke-width:1.07574;stroke-linejoin:round"/><path d="m366.966 172.993s-7.732 11.16-7.885 11.5m20.918 6.223-.048 15.043z" stroke="#000" stroke-width=".86059"/><path clip-rule="evenodd" d="m381.211 172.717s3.368 4.083 2.986 5.24c1.377.953 2.908 4.764 2.908 4.764" fill="url(#f)" fill-rule="evenodd"/><path d="m381.211 172.717s3.368 4.083 2.986 5.24c1.377.953 2.908 4.764 2.908 4.764" stroke="#000" stroke-width=".86059"/><path d="m394.223 172.039s-7.273 9.118-7.043 9.799" stroke="#000" stroke-width=".86059"/><path clip-rule="evenodd" d="m356.97 128.68c-.164.51-1.091.707-2.07.441-.979-.267-1.638-.896-1.474-1.405.165-.51 1.092-.708 2.071-.441.978.266 1.638.896 1.473 1.405zm2.939-.18c.165.51 1.091.708 2.07.441s1.638-.896 1.474-1.405c-.165-.51-1.092-.708-2.071-.441-.978.266-1.638.896-1.473 1.405z" fill="#000" fill-rule="evenodd"/><path d="m445.025 317.381s-2.696.449-2.612.674-7.838.449-8.007.225c-.168-.225-1.18 1.198-1.18 1.198l1.264-.674s1.939 1.798 2.528 1.648c.591-.149-.252.674-.084.824.169.15.76-.3.76-.3l13.096-.194z" style="fill-rule:evenodd;clip-rule:evenodd;fill:#ff7000;stroke:#000;stroke-width:.86059;stroke-linejoin:round"/><path d="m449.906 321.004-10.696.275s-2.697 2.173-2.866 2.697 1.77.674 1.77.674l.59 1.798 1.349-.45s9.095 1.202 17.445-.449c4.213-1.311 4.952-2.884 2.001-3.839-2.949-.955-9.509-.669-9.592-.706z" style="fill-rule:evenodd;clip-rule:evenodd;fill:#ff7000;stroke:#000;stroke-width:1.07574;stroke-linejoin:round"/><path clip-rule="evenodd" d="m413.273 340.513 19.257-.762-3.587-2.703 52.082-1.871-1.794-3.673-58.318 2.079 7.017 2.911-15.749.416.468 1.455-4.132-.139s4.6 1.595 4.756 2.287z" fill="url(#g)" fill-rule="evenodd" stroke="#000" stroke-width=".86059"/><path clip-rule="evenodd" d="m434.863 245.958c-1.529-.679-8.26-1.496-15.755 2.855l.306 15.364s11.014-5.302 16.367-4.079c-.306-4.759-.306-10.877-.918-14.14z" fill="url(#h)" fill-rule="evenodd" stroke="#000" stroke-width=".86059"/><path d="m324.932 334.877-4.771 5.556m8.226-47.825-45.408 40.07zm20.239.293-36.856 43.145zm-1.646-11.26-49.195 52.942zm-50.676 52.207 4.771-4.972zm60.053-25.592-19.086 23.402zm-19.909 26.474.495 8.916zm28.625-18.286-20.236 22.522zm-3.614 20.77 8.226-11.992zm3.125-14.332-9.871 9.944zm-2.96-9.357-6.745 7.312zm-8.723-10.679s-20.566 26.763-20.236 28.956zm-2.141-3.506c-.493.292-17.769 20.62-17.769 20.62zm-18.753 27.049-3.126 3.363z" stroke="#000" stroke-width=".86059"/><path clip-rule="evenodd" d="m326.141 231.014s-1.394 3.892 0 5.838c1.393 1.947 10.149 17.691 10.149 17.691s5.972-6.546 8.161-6.723c2.19-.177 1.194 16.984 1.194 16.984s-3.582 3.008-5.771 2.831c-2.19-.177 5.373 6.722 5.174 12.56-.199 5.839-9.951 34.852-13.534 35.383-3.582.53 1.592-5.308 1.393-6.9s-1.194-.531-1.99-2.3c-.796-1.77 1.194-4.423.796-6.192-.399-1.768-2.189-1.415-2.388-2.654s1.194-1.592.995-3.006c-.199-1.416-2.388-1.063-2.19-2.301.2-1.238.399-.707.2-3.008-.2-2.299-.597 1.593-2.787 1.77-2.189.177-3.981 4.6-3.981 4.6s-4.378 5.484-8.756 3.007c2.587 4.953.596 7.077-.399 7.253s.796 3.893-1.592 4.069 1.791 8.315-.995 9.023c2.986 1.238.597 2.83.597 2.83s-6.899.51-5.374 8.492c-20.301-6.358-30.252-17.325-30.053-28.469.2-11.145 4.18-21.229 13.932-24.944 2.787-9.2 7.563-19.106 7.563-19.106s-.796-4.069-.199-6.723 3.384-5.307 3.384-5.307-.399-6.369-.2-9.553c.2-3.185 1.592-4.601 1.792-6.369.199-1.769-.597-10.792 1.392-12.384 1.991-1.592 5.772-1.415 7.763-2.477 1.99-1.061 4.577-3.007 7.165-2.83 2.587.177 4.776 1.769 4.776 1.769s9.752 0 10.349 3.361c.598 3.361-1.99 4.6-1.99 4.6s1.393 4.776-4.578 9.199z" fill="#8a9396" fill-rule="evenodd" stroke="#2b2b2b" stroke-width=".86059"/><path clip-rule="evenodd" d="m317.481 218.757c.312.513-.399 1.393-1.588 1.965-1.19.573-2.408.622-2.72.108-.312-.512.398-1.392 1.588-1.965 1.191-.573 2.408-.621 2.72-.108z" fill="#cecfcf" fill-rule="evenodd" stroke="#2b2b2b" stroke-width=".86059"/><path clip-rule="evenodd" d="m315.83 219.651c0 .323-.332.586-.74.586s-.74-.263-.74-.586.332-.586.74-.586.74.263.74.586z" fill="#000" fill-rule="evenodd"/><path d="m332.494 218.873s2.587 1.622 3.196 3.245m-5.308 3.388s2.416 9.593-.474 16.22zm.743-4.198s4.717 5.545 4.108 12.441zm.457-1.218c.152 0 3.955 2.975 3.803 5.003z" stroke="#2b2b2b" stroke-width=".537869"/><path d="m331.277 217.924s-9.28 13.387-8.063 21.771" stroke="#000" stroke-width=".86059"/><path d="m331.886 217.52s-12.323 6.491-14.604 27.722" stroke="#2b2b2b" stroke-width=".537869"/><path d="m330.517 221.442-4.869 3.246" stroke="#000" stroke-width=".86059"/><path d="m312.718 246.46s6.845-25.288 19.016-28.939" stroke="#2b2b2b" stroke-width=".537869"/><path clip-rule="evenodd" d="m336.45 254.978s6.541-7.301 8.063-7.031c1.521.27 1.064 16.903 1.064 16.903s-4.868 3.246-5.933 3.11c-1.064-.135 5.477 7.844 5.325 10.819s-.304 2.975-.304 2.975 0-1.758-1.522-4.598c-1.521-2.84-.608-6.086-10.497-13.252-2.434-4.463 4.868 2.704 6.39 1.623 1.521-1.083-2.738-10.413-2.586-10.548z" fill="#2b2b2b" fill-rule="evenodd" stroke="#2b2b2b" stroke-width=".86059"/><path d="m324.82 213.854s-2.751.667-3.125 1.667c-.376 1-2 2-2.875 1.667-.875-.334-2.501-1.556-2.501-1.556" stroke="#2b2b2b" stroke-width=".86059"/><path d="m309.194 222.409s-4.125 3.667-2.125 4.112c2 .444 4.125-2.889 4.125-2.889s0 5.667 1.75 4.777c1.75-.889 6.876-4.111 6.876-4.111s1.75-.111 2.125 0c.375.112 4.75 3.444 7.625 2.223-1.624 3.777-3.5 4.222-3.5 4.222s-3 3.445-6.876 2.667c-3.875-.778-4.875-2.222-4.875-2.222s-3.25.222-4.25-1.112c-1-1.333-1.375-2.111-1.375-2.111s-1.876 1.667-2.376.889 0-5.333 2.876-6.445z" style="fill-rule:evenodd;clip-rule:evenodd;fill:#2b2b2b;stroke:#2b2b2b;stroke-width:1.07574;stroke-linejoin:round"/><path d="m332.571 217.3s-7.625-2.001-10.251 1.333c-2.625 3.334-2 5.223-.625 5.556" stroke="#2b2b2b" stroke-width=".86059"/><path clip-rule="evenodd" d="m333.747 217.11c0 .799-.643 1.447-1.438 1.447-.794 0-1.437-.648-1.437-1.447 0-.8.644-1.447 1.437-1.447.794 0 1.438.647 1.438 1.447z" fill="#000" fill-rule="evenodd"/><path clip-rule="evenodd" d="m311.554 234.403s3.109 4.253 6.817 5.423c3.707 1.169-2.572 2.178-6.279-.054-2.69-3.242-1.973-5.58-1.973-5.58s.718-.639 1.435.211zm26.61 25.092s-8.73-10.79-11.242-11.375c-2.511-.585 1.913-1.063 4.605 1.222 2.69 2.286-.718-3.72-.718-3.72z" fill="#2b2b2b" fill-rule="evenodd" stroke="#2b2b2b" stroke-width=".86059"/><path d="m310.718 321.843c3.349-.798 17.938 7.441 21.227 9.514s10.166.744 10.166.744-3.17 1.701-5.143 2.126c-1.973.426 5.86.425 5.86.425s-18.657 4.572-37.613-4.305c-1.733-6.91 4.067-8.452 5.502-8.505z" style="fill-rule:evenodd;clip-rule:evenodd;fill:#2b2b2b;stroke:#2b2b2b;stroke-width:1.07574;stroke-linejoin:round"/><path clip-rule="evenodd" d="m332.065 262.15s-2.451-.424-3.707-1.7-3.05-4.412-4.904-5.741c-1.855-1.329-11.122-5.846-14.471-5.528-3.349.319-4.365-.318-4.784-.69-.418-.373-1.793.159-1.554 1.701.239 1.541-2.571 4.943-1.555 6.537 1.016 1.595 5.8 8.079 6.757 8.291.957.214.359 3.774.359 3.774s4.245 3.827 5.322 4.04c1.076.213 2.152.903 2.033 1.807-.12.904-4.664 5.847-4.664 5.847s-4.904 2.286-4.963 3.561c-.06 1.275 1.196 3.934 5.082 4.784 3.887.851 14.352.159 14.89-.638s1.376-5.581 1.016-6.059c-.359-.479-2.93-1.914-4.245-1.701-1.316.213-2.512 1.169-2.392 1.382s-1.854 1.116-1.854.266c0-.851 3.887-4.678 4.246-4.36.358.32 5.86.798 6.877 3.243 1.016 2.445 1.016 4.199 3.886 3.933 2.87-.265 6.877-2.604 7.235-7.493.359-4.891-3.228-8.187-4.125-8.664-.898-.478-3.888-2.073-4.127-2.817-.239-.745-.837-3.189-.358-3.774z" fill="#2b2b2b" fill-rule="evenodd" stroke="#2b2b2b" stroke-width=".86059"/><path clip-rule="evenodd" d="m280.34 283.735s9.268-2.126 11.661-2.073c2.392.053 11.421 3.774 14.052 6.059 2.632 2.286 8.013 7.707 11.541 7.229 3.528-.479 4.544-1.117 4.544-1.117l-1.376 2.339s-2.869.691-4.304.372c-1.436-.318-4.246-1.116-7.056-3.561-2.811-2.445-11.481-9.035-18.836-8.558-7.356.478-11.6 6.91-11.6 6.91s.059-3.136.358-3.827c.298-.691-1.555 1.488-1.555 1.488l2.571-5.262z" fill="#2b2b2b" fill-rule="evenodd" stroke="#2b2b2b" stroke-width=".86059"/><path clip-rule="evenodd" d="m314.484 290.111c.06.054 2.332.585 6.159.585s5.86-1.488 5.86-1.488l-.239-1.329.598-1.86s2.93 2.658 2.87 3.189c-.059.532-1.196.744-1.196.744l-.418-1.275-1.016 1.116s-5.562 3.932-8.612 3.348c-3.049-.585-5.86-2.338-5.082-2.763.778-.426 1.196-.266 1.076-.266zm-13.514 6.965s-3.348-.053-4.844.585c-1.495.638-2.032 1.435-3.049 1.328-1.016-.107-1.794-1.276-1.495-1.753.419-.745 2.392-1.701 6.16-1.435 3.768.265 3.228 1.275 3.228 1.275zm11.72 8.078c0-.16-.239-4.359-2.092-6.059-1.854-1.7-4.126-1.702-5.143-1.489-1.016.213 3.767 2.073 4.246 3.296.478 1.222 2.033 4.624 1.614 5.474-.418.851-1.196-2.391-4.125-3.295-2.93-.904-6.997-.425-6.16.744.836 1.17 4.126.106 5.8 2.604 1.675 2.498 2.931 5.156 2.931 5.156l.537-1.806 1.496-.373.179-3.455z" fill="#2b2b2b" fill-rule="evenodd" stroke="#2b2b2b" stroke-width=".86059"/><path d="m310.299 318.758-3.05-5.422s-.956-3.454-3.528-4.411c-2.571-.957-5.979-.797-6.039.372s5.501 2.658 5.86 3.296.18 1.7-.299 1.753c-.478.054-2.93-.796-4.186-.531s-1.973 1.701-3.827 1.276-3.408-5.688-2.691-6.22c.718-.531-1.376.958-1.793-.425-.42-1.381.597-5.687-.12-6.218-.718-.532-4.186-2.392-4.246-2.764s.179-21.155 19.733-3.934c-8.371-8.823-11.66-7.866-13.215-7.919-1.136 0-8.731.584-10.644 9.195s-4.186 3.243-4.186 3.243-.418 3.72 1.615 4.783c2.032 1.063-.957 4.146-.957 4.146s-3.648-7.919-3.109-11.375c-.718 2.764-.658 9.622 3.946 17.116 5.382 5.049 10.465 9.726 23.979 14.989 7.116-9.674 6.757-10.843 6.757-10.95z" style="fill-rule:evenodd;clip-rule:evenodd;fill:#2b2b2b;stroke:#2b2b2b;stroke-width:1.07574;stroke-linejoin:round"/><path d="m297.502 318.813s3.947.426 5.023 2.233c1.077 1.806 1.555 4.571 1.555 4.571.658-1.17.957-2.179 2.272-3.03 1.315-.85 2.272-.957 2.213-1.595-.06-.638-4.186-4.517-6.279-4.73s-5.74 2.019-5.74 2.019-.658.851.956.532z" style="fill-rule:evenodd;clip-rule:evenodd;fill:#8a9396;stroke:#2b2b2b;stroke-width:1.07574;stroke-linejoin:round"/><path d="m306.516 327.956s10.228 4.144 27.075 4.412" stroke="#8a9396" stroke-linecap="round" stroke-width="1.07574"/><path d="m340.66 285.755s-.88 7.627-7.481 22.686" stroke="#2b2b2b" stroke-linecap="round" stroke-width="1.07574"/><path d="m339.345 290.448s-1.98 5.476-7.481 9.583" stroke="#2b2b2b" stroke-width=".86059"/></svg>