<svg enable-background="new 0 0 512 512" viewBox="0 0 512 512" xmlns="http://www.w3.org/2000/svg"><path d="m0 85.331h512v341.337h-512z" fill="#f0f0f0"/><path d="m0 85.331h170.663v341.337h-170.663z" fill="#338af3"/><path d="m341.337 85.331h170.663v341.337h-170.663z" fill="#338af3"/><path d="m304.083 286.736-31.112-31.112 29.615-29.616-1.342-15.642-8.478-8.48-36.766 36.766-36.766-36.766-8.478 8.48-1.342 15.642 29.615 29.616-31.112 31.112 16.97 16.97 31.113-31.112 31.113 31.112z" fill="#acabb1"/><path d="m301.255 210.367-16.971 16.971c7.238 7.239 11.716 17.239 11.716 28.285 0 22.092-17.909 40.001-40.001 40.001s-40.001-17.909-40.001-40.001c0-11.045 4.478-21.045 11.716-28.285l-16.971-16.971c-11.581 11.582-18.743 27.582-18.743 45.256 0 35.346 28.654 64 64 64s64-28.654 64-64c0-17.674-7.164-33.674-18.745-45.256z" fill="#6da544"/></svg>