<svg enable-background="new 0 0 512 512" viewBox="0 0 512 512" xmlns="http://www.w3.org/2000/svg"><path d="m0 85.331h512v341.337h-512z" fill="#d80027"/><path d="m11.13 96.462h489.739v319.076h-489.739z" fill="#0052b4"/><path d="m246.342 363.726c-2.333-1.999-57.125-49.632-57.125-107.731s54.792-105.732 57.125-107.731l9.658-8.279 9.658 8.279c2.333 1.999 57.125 49.632 57.125 107.731s-54.792 105.732-57.125 107.731l-9.658 8.279z" fill="#d80027"/><path d="m307.942 255.994c0-51.942-51.942-96.464-51.942-96.464s-51.942 44.524-51.942 96.464c0 15.89 4.865 31.083 11.613 44.522h80.658c6.748-13.439 11.613-28.632 11.613-44.522z" fill="#338af3"/><path d="m307.942 255.994c0 15.89-4.865 31.083-11.613 44.522l-40.329 7.421-40.329-7.421c-6.748-13.439-11.613-28.632-11.613-44.522z" fill="#0052b4"/><path d="m256 352.459s25.019-21.452 40.329-51.942h-80.658c15.31 30.49 40.329 51.942 40.329 51.942z" fill="#ffda44"/><path d="m222.609 226.313h66.782l-33.391 33.391z" fill="#6da544"/><path d="m244.87 248.57h22.261v66.783h-22.261z" fill="#a2001d"/></svg>