<svg enable-background="new 0 0 512 512" viewBox="0 0 512 512" xmlns="http://www.w3.org/2000/svg"><path d="m0 85.331h512v341.337h-512z" fill="#d80027"/><g fill="#f0f0f0"><path d="m273.621 214.44c-3.878 16.132-10.77 13.056-14.152 27.125-19.921-4.789-32.191-24.823-27.401-44.747 4.788-19.921 24.823-32.191 44.745-27.402-6.765 28.139.277 30.595-3.192 45.024z"/><path d="m221.924 226.394c14.145 8.674 9.088 14.278 21.423 21.842-10.712 17.467-33.555 22.944-51.023 12.232-17.467-10.711-22.945-33.556-12.233-51.023 24.671 15.129 29.181 9.191 41.833 16.949z"/><path d="m217.318 279.255c12.621-10.772 16.387-4.232 27.393-13.626 13.303 15.585 11.452 39.003-4.132 52.306-15.586 13.303-39.004 11.451-52.306-4.133 22.011-18.786 17.757-24.912 29.045-34.547z"/><path d="m266.17 299.971c-6.347-15.331 1.037-16.894-4.494-30.263 18.933-7.835 40.634 1.161 48.471 20.094 7.835 18.933-1.162 40.634-20.095 48.47-11.068-26.74-18.207-24.587-23.882-38.301z"/><path d="m300.967 259.912c-16.542 1.298-15.747-6.209-30.171-5.077-1.602-20.427 13.66-38.286 34.088-39.89 20.427-1.599 38.286 13.663 39.888 34.09-28.851 2.262-29.012 9.718-43.805 10.877z"/></g></svg>