<svg enable-background="new 0 0 512 512" viewBox="0 0 512 512" xmlns="http://www.w3.org/2000/svg"><path d="m0 85.333h512v341.337h-512z" fill="#0052b4"/><g fill="#f0f0f0"><path d="m223.397 255.996c.273-.304.543-.609.813-.916-.27.308-.546.61-.82.916z"/><path d="m189.217 297.923 10.958 22.913 24.747-5.718-11.083 22.853 19.9 15.781-24.776 5.585.069 25.398-19.815-15.89-19.814 15.89.069-25.398-24.776-5.585 19.9-15.781-11.083-22.853 24.746 5.718z"/><path d="m387.076 326.387 5.227 10.929 11.803-2.728-5.286 10.9 9.492 7.528-11.818 2.663.032 12.114-9.45-7.578-9.45 7.578.032-12.114-11.817-2.663 9.491-7.528-5.285-10.9 11.803 2.728z"/><path d="m338.453 210.448 5.227 10.93 11.803-2.729-5.286 10.901 9.491 7.528-11.817 2.663.032 12.115-9.45-7.58-9.451 7.58.033-12.115-11.818-2.663 9.491-7.528-5.284-10.901 11.802 2.729z"/><path d="m387.076 144.198 5.227 10.93 11.803-2.73-5.286 10.902 9.491 7.527-11.817 2.664.032 12.114-9.45-7.58-9.45 7.58.032-12.114-11.817-2.664 9.491-7.527-5.285-10.902 11.803 2.73z"/><path d="m429.547 193.886 5.227 10.929 11.802-2.728-5.284 10.9 9.491 7.527-11.818 2.664.033 12.114-9.451-7.578-9.45 7.578.032-12.114-11.817-2.664 9.491-7.527-5.286-10.9 11.803 2.728z"/><path d="m399.179 251.856 4.11 12.652h13.304l-10.763 7.82 4.112 12.652-10.763-7.819-10.765 7.819 4.112-12.652-10.763-7.82h13.304z"/><path d="m256 85.333v30.553l-45.167 25.099h45.167v59.359h-59.103l59.103 32.835v22.817h-26.68l-73.494-40.826v40.826h-55.652v-48.573l-87.43 48.573h-12.744v-30.553l45.167-25.099h-45.167v-59.359h59.103l-59.103-32.846v-22.806h26.68l73.494 40.827v-40.827h55.652v48.573l87.43-48.573z"/></g><path d="m144 85.33h-32v69.332h-112v32h112v69.334h32v-69.334h112v-32h-112z" fill="#d80027"/><path d="m155.826 200.344 100.174 55.652v-15.737l-71.847-39.915z" fill="#0052b4"/><path d="m155.826 200.344 100.174 55.652v-15.737l-71.847-39.915z" fill="#f0f0f0"/><path d="m155.826 200.344 100.174 55.652v-15.737l-71.847-39.915z" fill="#d80027"/><path d="m71.846 200.344-71.846 39.915v15.737l100.174-55.652z" fill="#d80027"/><path d="m100.174 140.982-100.174-55.652v15.737l71.847 39.915z" fill="#0052b4"/><path d="m100.174 140.982-100.174-55.652v15.737l71.847 39.915z" fill="#f0f0f0"/><path d="m100.174 140.982-100.174-55.652v15.737l71.847 39.915z" fill="#d80027"/><path d="m184.154 140.982 71.846-39.915v-15.737l-100.174 55.652z" fill="#d80027"/></svg>