<svg enable-background="new 0 0 512 512" viewBox="0 0 512 512" xmlns="http://www.w3.org/2000/svg"><path d="m0 85.337h512v341.326h-512z" fill="#f0f0f0"/><g fill="#338af3"><path d="m0 85.337h512v113.775h-512z"/><path d="m0 312.888h512v113.775h-512z"/><path d="m203.491 208.511 4.421 13.605h14.305l-11.574 8.408 4.421 13.604-11.573-8.408-11.572 8.408 4.421-13.604-11.574-8.408h14.305z"/><path d="m203.491 267.872 4.421 13.606h14.305l-11.574 8.406 4.421 13.605-11.573-8.408-11.572 8.408 4.421-13.605-11.574-8.406h14.305z"/><path d="m308.509 208.511 4.42 13.605h14.305l-11.574 8.408 4.421 13.604-11.572-8.408-11.573 8.408 4.421-13.604-11.574-8.408h14.305z"/><path d="m308.509 267.872 4.42 13.606h14.305l-11.574 8.406 4.421 13.605-11.572-8.408-11.573 8.408 4.421-13.605-11.574-8.406h14.305z"/><path d="m256 238.191 4.421 13.605h14.304l-11.573 8.408 4.421 13.605-11.573-8.408-11.573 8.408 4.421-13.605-11.573-8.408h14.304z"/></g></svg>