<svg enable-background="new 0 0 512 512" viewBox="0 0 512 512" xmlns="http://www.w3.org/2000/svg"><path d="m0 85.337h512v341.326h-512z" fill="#f0f0f0"/><path d="m0 85.337h512v113.775h-512z" fill="#d80027"/><path d="m0 312.888h512v113.775h-512z" fill="#0052b4"/><path d="m300.522 204.059h-29.682l4.948-37.102 19.787-14.841 19.787 14.841v29.681z" fill="#338af3"/><path d="m211.478 204.059h29.682l-4.948-37.102-19.787-14.841-19.787 14.841v29.681z" fill="#338af3"/><path d="m275.788 204.059h-39.576v-37.102l19.788-14.841 19.788 14.841z" fill="#0052b4"/><path d="m196.638 196.638v81.623c0 19.436 9.389 36.719 23.868 47.555l10.388-2.6 13.109 13.188c3.876.798 7.887 1.219 11.996 1.219 4.087 0 8.077-.415 11.934-1.205l14.964-12.459 8.595 1.834c14.474-10.834 23.868-28.101 23.868-47.531v-81.623z" fill="#f0f0f0"/><g fill="#d80027"><path d="m196.641 196.641h23.745v23.745h-23.745z"/><path d="m244.124 196.641h23.745v23.745h-23.745z"/><path d="m291.617 196.641h23.745v23.745h-23.745z"/><path d="m220.383 220.383h23.745v23.745h-23.745z"/><path d="m267.876 220.383h23.745v23.745h-23.745z"/><path d="m196.641 244.124h23.745v23.745h-23.745z"/><path d="m220.383 267.865h23.745v23.745h-23.745z"/><path d="m244.124 244.124h23.745v23.745h-23.745z"/><path d="m291.617 244.124h23.745v23.745h-23.745z"/><path d="m267.876 267.865h23.745v23.745h-23.745z"/><path d="m244.124 291.617h23.745v23.745h-23.745z"/><path d="m220.383 291.613h-22.212c2.038 8.826 6.042 16.904 11.536 23.745h10.676z"/><path d="m291.617 315.357h10.677c5.493-6.842 9.498-14.919 11.536-23.745h-22.213z"/><path d="m220.383 315.357v10.361c6.906 5.196 14.976 8.923 23.745 10.71v-21.071z"/><path d="m267.873 315.357v21.071c8.769-1.786 16.839-5.514 23.745-10.71v-10.361z"/></g></svg>