<svg enable-background="new 0 0 512 512" viewBox="0 0 512 512" xmlns="http://www.w3.org/2000/svg"><path d="m0 85.331h512v341.337h-512z" fill="#f0f0f0"/><g fill="#2e52b2"><path d="m320 219.045h-42.667l-21.333-36.951-21.333 36.95h-42.667l21.335 36.951-21.335 36.949h42.667l21.333 36.951 21.333-36.95h42.667l-21.335-36.951zm-37.791 36.949-13.104 22.699h-26.209l-13.105-22.699 13.105-22.699h26.209zm-26.209-45.397 4.877 8.448h-9.754zm-39.315 22.698h9.755l-4.877 8.448zm0 45.399 4.877-8.448 4.877 8.448zm39.315 22.698-4.876-8.448h9.754zm39.315-22.698h-9.755l4.877-8.448zm-9.755-45.399h9.755l-4.877 8.448z"/><path d="m0 106.657h512v42.663h-512z"/><path d="m0 362.657h512v42.663h-512z"/></g></svg>