<svg fill="none" height="512" viewBox="0 0 512 512" width="512" xmlns="http://www.w3.org/2000/svg"><g clip-rule="evenodd" fill-rule="evenodd"><path d="m0 141.836v56.836h256 256v-56.836-56.836h-256-256zm128.027 170.747c70.502.043 185.774.043 256.16 0 70.385-.045 12.701-.082-128.187-.082s-198.4768.037-127.973.082z" fill="#fc9c34"/><path d="m0 255.506v56.836h256 256v-56.836-56.834h-256-256zm265.125-44.512c35.697 7.899 48.622 51.253 22.919 76.864-17.932 17.865-46.269 17.798-64.245-.154-26.161-26.129-11.747-70.56 24.996-77.054 3.288-.58 13.085-.374 16.33.344zm-12.651 6.022c-.866 1.379-2.111 1.529-3.175.381l-.786-.847-2.639.684c-3.169.821-3.162.818-3.162 1.739 0 1.519-2.237 2.392-3.329 1.3-.87-.872-6.056 2.07-5.756 3.264.42 1.672-1.287 3.141-2.742 2.362-1.099-.588-5.661 3.443-4.833 4.271.498.497.395 2.011-.174 2.579-.517.517-.686.57-2.058.629-1.364.06-4.032 4.807-3.181 5.659 1.216 1.216.137 3.502-1.653 3.502-.429 0-.719.449-1.085 1.68-.914 3.07-.961 4.011-.233 4.639 1.276 1.103.777 3.607-.718 3.607-.548 0-.807 1.025-.807 3.201 0 2.178.259 3.203.807 3.203 1.495 0 1.994 2.504.718 3.606-.728.63-.681 1.57.233 4.638.366 1.233.656 1.682 1.085 1.682 1.79 0 2.869 2.285 1.653 3.501-.855.855 1.821 5.607 3.181 5.65 1.308.041 1.53.11 2.058.638.559.559.674 2.08.194 2.561-.824.823 3.721 4.874 4.813 4.289 1.476-.79 3.255.828 2.729 2.483-.15.475.222.832 1.813 1.749 3.395 1.953 3.397 1.954 3.953 1.399 1.117-1.118 3.332-.219 3.332 1.352 0 .86.014.867 3.162 1.683l2.639.685.786-.849c1.064-1.147 2.309-.997 3.175.383l.645 1.027h2.881 2.881l.645-1.027c.862-1.374 2.111-1.53 3.163-.395l.775.835 2.031-.471c3.2-.743 3.793-1.039 3.793-1.901 0-1.545 2.226-2.428 3.332-1.322.555.555.559.554 3.943-1.394 1.7-.977 1.966-1.251 1.813-1.862-.423-1.684 1.277-3.157 2.739-2.375 1.092.585 5.637-3.466 4.813-4.289-.48-.481-.365-2.002.194-2.561.528-.528.75-.597 2.058-.638 1.36-.043 4.036-4.795 3.181-5.65-1.216-1.216-.137-3.501 1.653-3.501.429 0 .719-.449 1.085-1.682.914-3.068.961-4.008.233-4.638-1.276-1.102-.777-3.606.718-3.606.548 0 .807-1.025.807-3.203 0-2.176-.259-3.201-.807-3.201-1.495 0-1.994-2.504-.718-3.607.728-.628.681-1.569-.233-4.639-.366-1.231-.656-1.68-1.085-1.68-1.79 0-2.869-2.286-1.653-3.502.851-.852-1.817-5.599-3.181-5.659-1.372-.059-1.541-.112-2.058-.629-.559-.558-.674-2.08-.194-2.56.824-.823-3.721-4.874-4.813-4.29-1.462.783-3.162-.69-2.739-2.375.153-.61-.113-.884-1.813-1.862-3.384-1.947-3.388-1.948-3.943-1.393-1.128 1.128-3.332.217-3.332-1.378 0-.798-.657-1.118-3.793-1.845l-2.031-.472-.775.836c-1.052 1.135-2.301.979-3.163-.394l-.645-1.03h-2.881-2.881zm4.317 11.618c.597 10.322.611 11.525.169 14.869-.589 4.468-.598 4.158.109 4.158.507 0 .66-.514 1.113-3.762.471-3.372 7.382-26.004 7.811-25.575.44.44-4.605 22.502-5.864 25.642-1.545 3.85-1.665 4.434-.882 4.28.327-.065 1.147-1.523 2.162-3.842 1.431-3.272 13.509-22.556 13.901-22.198.43.393-10.204 20.493-12.317 23.283-2.139 2.825-2.695 4.094-1.79 4.094.144 0 1.265-1.31 2.492-2.912 1.934-2.525 18.745-18.221 19.515-18.221.74 0-15.516 17.433-18.195 19.512-2.369 1.839-2.99 2.478-2.724 2.799.407.491.284.559 3.966-2.168 2.456-1.817 22.883-12.546 22.883-12.018 0 .57-19.553 12.796-22.351 13.975-3.544 1.495-3.67 1.579-3.295 2.185.186.301 1.128.04 3.79-1.051 3.129-1.281 23.64-6.044 25.49-5.918 1.268.085-20.787 7.083-23.646 7.502-5.086.746-5.283.795-5.283 1.293 0 .576 1.033.595 4.941.09 2.949-.38 25.478.518 25.478 1.015 0 .498-22.529 1.396-25.478 1.015-3.908-.504-4.941-.485-4.941.093 0 .498.197.546 5.283 1.291 2.859.42 24.914 7.418 23.646 7.504-1.85.124-22.361-4.638-25.49-5.919-2.662-1.091-3.604-1.352-3.79-1.051-.375.607-.249.69 3.295 2.184 2.798 1.18 22.351 13.405 22.351 13.976 0 .527-20.427-10.2-22.883-12.019-3.682-2.725-3.559-2.658-3.966-2.167-.266.321.355.96 2.724 2.798 2.679 2.078 18.935 19.513 18.195 19.513-.77 0-17.581-15.696-19.515-18.222-1.227-1.601-2.348-2.912-2.492-2.912-.905 0-.349 1.27 1.79 4.094 2.112 2.789 12.748 22.894 12.317 23.282-.413.373-12.713-19.346-14.112-22.627-1.131-2.652-1.723-3.689-2.035-3.569-.65.25-.576.594.966 4.438 1.261 3.145 6.304 25.202 5.863 25.644-.427.426-7.332-22.199-7.807-25.577-.456-3.246-.609-3.763-1.116-3.763-.707 0-.698-.31-.109 4.161.442 3.342.429 4.531-.159 14.548-.352 6.001-.651 11.198-.665 11.55-.082 2.012-.35-1.237-.927-11.231-.597-10.322-.611-11.526-.169-14.87.589-4.468.598-4.158-.109-4.158-.507 0-.66.517-1.116 3.763-.475 3.378-7.38 26.003-7.807 25.577-.441-.442 4.602-22.499 5.863-25.644 1.542-3.844 1.616-4.188.966-4.438-.312-.12-.904.917-2.034 3.569-1.355 3.182-12.479 21.091-14.253 22.949-1.408 1.476 10.379-20.859 12.457-23.604 2.139-2.824 2.695-4.094 1.79-4.094-.144 0-1.265 1.314-2.492 2.919-1.94 2.535-18.734 18.215-19.511 18.215-.608 0 15.465-17.409 17.602-19.065 1.354-1.05 2.747-2.134 3.096-2.409.538-.425.566-.557.18-.877-.365-.303-1.041.065-3.467 1.891-2.634 1.982-24.471 13.473-23.185 12.201 1.667-1.653 19.014-12.42 22.132-13.739 1.998-.846 3.633-1.609 3.634-1.697.001-.965-.702-.879-4.146.506-3.256 1.309-25.732 6.489-26.217 6.042-.352-.323 22.817-7.495 25.249-7.814 3.953-.518 4.483-.655 4.483-1.161 0-.558-.704-.569-4.682-.081-3.092.381-25.096-.509-25.096-1.015 0-.504 22.004-1.393 25.096-1.013 3.978.489 4.682.476 4.682-.081 0-.506-.53-.643-4.483-1.161-2.432-.32-25.601-7.49-25.249-7.814.485-.447 22.961 4.733 26.217 6.043 3.441 1.382 4.163 1.47 4.142.505-.001-.088-1.692-.886-3.757-1.771-3.104-1.333-23.07-13.762-22.701-14.132.318-.317 21.691 10.982 23.764 12.562 3.23 2.464 3.209 2.453 3.621 1.957.266-.321-.355-.96-2.724-2.799-2.685-2.084-18.935-19.512-18.191-19.512.777 0 17.571 15.679 19.511 18.215 1.227 1.606 2.348 2.918 2.492 2.918.905 0 .349-1.269-1.79-4.094-2.078-2.744-13.865-25.079-12.457-23.603 1.673 1.752 12.893 19.758 14.165 22.734.941 2.202 1.705 3.561 2.035 3.626.786.154.667-.427-.879-4.28-1.261-3.145-6.304-25.203-5.863-25.644.427-.426 7.332 22.199 7.807 25.577.456 3.246.609 3.762 1.116 3.762.707 0 .698.311.109-4.16-.442-3.343-.429-4.531.159-14.549.352-6 .651-11.197.665-11.549.082-2.012.35 1.237.927 11.231z" fill="#fbfbfb"/><path d="m0 369.498v56.836h256 256v-56.836-56.836h-256-256z" fill="#0c8c04"/><path d="m250.912 210.538c-36.317 4.214-53.107 47.764-28.964 75.129 27.638 31.324 79.195 11.794 79.195-30.001 0-27.352-23.269-48.256-50.231-45.128zm7.424 5.298c.68.136 1.033.43 1.169.972.386 1.54 2.571 1.624 3.371.13.319-.595.398-.591 3.232.167 1.599.427 2.968.778 3.043.778s.137.36.137.8c0 1.695 2.035 2.659 3.264 1.545 1.066-.964 6.215 1.965 5.87 3.341-.423 1.683 1.788 3.117 2.977 1.928.821-.821 5.046 3.973 4.552 5.164-.617 1.49.249 2.706 1.799 2.525 1.245-.145 1.407.021 3.293 3.366.969 1.722 1.008 1.902.533 2.427-1.156 1.276-.466 3.239 1.138 3.239.805 0 .938.178 1.498 2.001 1.151 3.752 1.165 4.031.24 4.759-1.333 1.048-.682 3.487.932 3.487.396 0 .48.568.48 3.201s-.084 3.203-.48 3.203c-1.614 0-2.265 2.438-.932 3.486.925.729.911 1.007-.24 4.758-.56 1.824-.693 2.002-1.498 2.002-1.604 0-2.294 1.962-1.138 3.239.475.526.436.706-.533 2.426-1.886 3.345-2.048 3.513-3.293 3.367-1.55-.181-2.416 1.034-1.799 2.524.494 1.192-3.731 5.985-4.552 5.165-1.189-1.188-3.4.244-2.977 1.929.345 1.374-4.804 4.304-5.87 3.339-1.229-1.112-3.264-.148-3.264 1.545 0 .441-.062.801-.137.801s-1.444.35-3.043.777c-2.834.759-2.913.763-3.232.168-.8-1.494-2.985-1.41-3.371.129-.416 1.662-6.594 1.662-7.01 0-.386-1.539-2.571-1.623-3.371-.129-.319.595-.398.591-3.232-.168-1.599-.427-2.968-.777-3.043-.777s-.137-.36-.137-.801c0-1.693-2.035-2.657-3.264-1.545-1.066.965-6.215-1.965-5.87-3.339.423-1.685-1.788-3.117-2.977-1.929-.821.82-5.046-3.973-4.552-5.165.617-1.49-.249-2.705-1.799-2.524-1.245.146-1.407-.022-3.293-3.367-.969-1.72-1.008-1.9-.533-2.426 1.156-1.277.466-3.239-1.138-3.239-.805 0-.938-.178-1.498-2.002-1.151-3.751-1.165-4.029-.24-4.758 1.333-1.048.682-3.486-.932-3.486-.396 0-.48-.57-.48-3.203s.084-3.201.48-3.201c1.614 0 2.265-2.439.932-3.487-.925-.728-.911-1.007.24-4.759.56-1.823.693-2.001 1.498-2.001 1.604 0 2.294-1.963 1.138-3.239-.475-.525-.436-.705.533-2.427 1.886-3.345 2.048-3.511 3.293-3.366 1.55.181 2.416-1.035 1.799-2.525-.494-1.191 3.731-5.985 4.552-5.164 1.189 1.189 3.4-.245 2.977-1.928-.345-1.376 4.804-4.305 5.87-3.341 1.21 1.096 3.264.155 3.264-1.494 0-.638.273-.828 1.841-1.275 4.077-1.163 4.219-1.18 4.572-.519.804 1.502 2.984 1.406 3.374-.147.117-.468.483-.85.89-.93 1.131-.22 3.901-.235 4.947-.027zm-2.496 3.558c0 .712-.23 5.024-.511 9.579-.475 7.676-.455 11.875.073 17.007.196 1.896.17 2.002-.478 2.002-.377 0-.688-.108-.693-.24-.111-3.648-7.546-29.987-7.665-27.154-.079 1.906 4.338 20.71 5.602 23.84 1.154 2.861 1.381 3.708 1.051 3.917-.745.472-.975.148-2.662-3.742-1.419-3.272-11.054-18.785-12.716-20.476-1.381-1.404 9.116 18.379 11.335 21.363 1.403 1.887 2.461 3.58 2.348 3.762-.466.753-1.207.177-3.483-2.705-2.077-2.63-17.818-17.333-17.818-16.643 0 .748 14.011 15.699 16.724 17.844 2.795 2.212 3.107 2.559 2.804 3.125-.319.595-.538.486-3.45-1.714-2.562-1.937-24.266-13.549-22.606-12.095 2.152 1.883 18.546 12.019 21.498 13.29 3.391 1.461 4.278 2.192 3.173 2.615-.235.091-2.001-.475-3.922-1.255-3.032-1.234-21.035-5.442-22.712-5.309-1.543.123 19.036 6.437 22.486 6.9 3.777.506 3.937.559 3.937 1.285 0 .88.171.87-4.163.274-3.308-.455-23.054.233-23.054.802 0 .571 19.746 1.258 23.054.803 4.334-.595 4.163-.607 4.163.275 0 .726-.16.778-3.937 1.284-3.45.462-24.029 6.776-22.486 6.899 1.677.134 19.68-4.073 22.712-5.307 1.921-.782 3.687-1.346 3.922-1.257 1.105.425.218 1.156-3.173 2.616-2.952 1.271-19.346 11.407-21.498 13.291-1.66 1.454 20.044-10.158 22.606-12.095 2.912-2.202 3.131-2.31 3.45-1.714.303.566-.009.913-2.804 3.125-2.713 2.145-16.724 17.095-16.724 17.844 0 .69 15.741-14.013 17.818-16.644 2.276-2.882 3.017-3.457 3.483-2.704.113.181-.945 1.875-2.348 3.761-2.219 2.983-12.716 22.767-11.335 21.364 1.662-1.691 11.297-17.205 12.716-20.477 1.687-3.891 1.917-4.213 2.662-3.742.33.21.102 1.057-1.054 3.918-1.265 3.129-5.651 21.785-5.601 23.822.073 3.005 7.556-23.475 7.667-27.136.005-.132.296-.241.648-.241.765 0 .772.117.265 4.978-.311 2.983-.277 5.433.199 14.125.523 9.541.817 12.955.817 9.486 0-.713.23-5.024.511-9.579.475-7.677.455-11.875-.073-17.008-.196-1.895-.17-2.002.478-2.002.377 0 .688.109.693.241.111 3.648 7.546 29.986 7.665 27.154.079-1.906-4.338-20.712-5.602-23.84-1.154-2.862-1.381-3.708-1.051-3.918.747-.473.987-.14 2.564 3.548 1.324 3.095 11.207 19.037 12.814 20.671 1.38 1.401-9.116-18.38-11.335-21.364-1.403-1.886-2.46-3.58-2.348-3.761.466-.754 1.207-.177 3.491 2.714 2.089 2.645 16.906 16.487 17.647 16.487.712 0-13.803-15.523-16.554-17.704-2.782-2.207-3.107-2.568-2.808-3.124.314-.588.551-.469 3.477 1.748 2.692 2.039 23.143 12.879 21.65 11.477-1.764-1.659-17.543-11.404-20.572-12.706-1.981-.85-3.602-1.661-3.602-1.799 0-1.241.375-1.219 3.788.22 2.869 1.211 23.308 6.054 24.699 5.853 1.187-.171-20.655-6.779-23.925-7.238-3.72-.521-3.922-.588-3.922-1.287 0-.858-.203-.846 4.323-.257 3.463.449 23.214-.23 23.214-.8 0-.569-19.751-1.249-23.214-.799-4.526.589-4.323.601-4.323-.257 0-.699.202-.765 3.922-1.286 3.26-.458 25.151-7.082 23.925-7.241-1.444-.187-21.836 4.647-24.699 5.855-3.413 1.44-3.788 1.461-3.788.221 0-.14 1.621-.95 3.602-1.801 3.029-1.3 18.808-11.045 20.572-12.705 1.493-1.402-18.958 9.438-21.65 11.477-2.926 2.216-3.163 2.335-3.477 1.749-.299-.557.026-.918 2.808-3.125 2.711-2.15 16.717-17.105 16.717-17.85 0-.69-15.741 14.013-17.818 16.643-2.276 2.882-3.017 3.458-3.483 2.705-.112-.182.945-1.875 2.348-3.762 2.219-2.984 12.715-22.765 11.335-21.363-1.607 1.633-11.49 17.576-12.814 20.671-1.577 3.687-1.817 4.02-2.564 3.547-.33-.209-.103-1.056 1.051-3.917 1.264-3.13 5.681-21.934 5.602-23.84-.119-2.833-7.554 23.506-7.665 27.154-.005.132-.296.24-.648.24-.765 0-.772-.116-.265-4.978.311-2.982.277-5.432-.199-14.124-.523-9.542-.817-12.957-.817-9.486z" fill="#05058c"/><path d="m251.437 210.42c.308.079.813.079 1.121 0 .309-.081.056-.148-.561-.148s-.869.067-.56.148zm8.005 0c.308.079.813.079 1.121 0 .309-.081.057-.148-.56-.148s-.87.067-.561.148zm-4.65 5.452c.568.072 1.577.073 2.241.003.664-.069.2-.127-1.033-.128s-1.777.055-1.208.125zm.815 5.854c0 .792.063 1.116.138.721.077-.397.077-1.046 0-1.442-.075-.397-.138-.071-.138.721zm.64 0c0 .792.063 1.116.14.721.075-.397.075-1.046 0-1.442-.077-.397-.14-.071-.14.721zm-19.561.8c.201.44.489.801.641.801.151 0 .04-.361-.248-.801-.289-.44-.577-.8-.641-.8s.047.36.248.8zm18.601 4.964c0 .792.063 1.116.138.719.077-.395.077-1.044 0-1.44-.075-.397-.138-.073-.138.721zm1.28 0c0 .792.063 1.116.14.719.075-.395.075-1.044 0-1.44-.077-.397-.14-.073-.14.721zm-27.305 1.758c.414.441.822.73.908.643.212-.212-.923-1.441-1.333-1.441-.179 0 .012.359.425.798zm52.992-.156c-.855.946-.397 1.095.484.156.413-.439.604-.798.425-.798-.181 0-.589.289-.909.642zm-27.287 3.84c0 .793.061 1.118.138.721.077-.396.077-1.045 0-1.441s-.138-.072-.138.72zm1.921 0c0 .793.062 1.118.139.721.076-.396.076-1.045 0-1.441-.077-.396-.139-.072-.139.72zm-2.229 6.244c.001 1.057.061 1.45.133.876.07-.576.069-1.44-.004-1.922-.073-.481-.132-.01-.129 1.046zm2.561 0c.001 1.057.061 1.45.133.876.072-.576.069-1.44-.004-1.922-.073-.481-.13-.01-.129 1.046zm-38.523 6.522c.779.463 2.127.801 1.761.44-.176-.173-.752-.407-1.281-.521-.627-.134-.794-.106-.48.081zm-8.21 9.968c0 1.673.054 2.358.12 1.522.066-.837.066-2.205 0-3.042-.066-.836-.12-.153-.12 1.52zm90.936 0c0 1.673.054 2.358.121 1.522.066-.837.066-2.205 0-3.042-.067-.836-.121-.153-.121 1.52zm-65.835-1.054c.395.076 1.044.076 1.44 0 .397-.076.073-.139-.721-.139-.792 0-1.116.063-.719.139zm39.704 0c.396.076 1.045.076 1.441 0s.072-.139-.72-.139c-.793 0-1.118.063-.721.139zm-45.148.32c.396.076 1.044.076 1.441 0 .396-.076.072-.139-.72-.139-.793 0-1.118.063-.721.139zm50.756.003c.486.075 1.207.072 1.601-.003.394-.076-.005-.136-.884-.135-.881.003-1.204.066-.717.138zm-56.52.318c.397.075 1.045.075 1.441 0 .396-.077.072-.14-.72-.14-.793 0-1.118.063-.721.14zm62.119 0c.396.075 1.045.075 1.441 0 .397-.077.072-.14-.721-.14-.792 0-1.116.063-.72.14zm-68.122.413c0 .177.576.32 1.28.32.705 0 1.281-.143 1.281-.32 0-.175-.576-.32-1.281-.32-.704 0-1.28.145-1.28.32zm73.005 0c0 .177.649.32 1.441.32s1.441-.143 1.441-.32c0-.175-.649-.32-1.441-.32s-1.441.145-1.441.32zm-67.002.547c.397.077 1.045.077 1.441 0s.072-.138-.72-.138c-.793 0-1.118.061-.721.138zm62.119 0c.396.077 1.045.077 1.441 0 .397-.077.072-.138-.721-.138-.792 0-1.116.061-.72.138zm-56.355.32c.396.077 1.044.077 1.441 0 .396-.076.072-.138-.72-.138-.793 0-1.118.062-.721.138zm50.756.004c.486.074 1.207.071 1.601-.004.394-.077-.005-.137-.884-.134-.881.002-1.204.065-.717.138zm-45.312.316c.395.077 1.044.077 1.44 0 .397-.076.073-.138-.721-.138-.792 0-1.116.062-.719.138zm39.704 0c.396.077 1.045.077 1.441 0 .396-.076.072-.138-.72-.138-.793 0-1.118.062-.721.138zm-56.115 8.581-.96.453.96-.188c.529-.104 1.097-.314 1.265-.467.457-.419-.155-.321-1.265.202zm35.482 6.723c.001 1.057.061 1.45.133.875.07-.576.069-1.44-.004-1.921s-.132-.01-.129 1.046zm2.561 0c.001 1.057.061 1.45.133.875.072-.576.069-1.44-.004-1.921s-.13-.01-.129 1.046zm-2.253 6.243c0 .794.061 1.118.138.721.077-.395.077-1.044 0-1.44-.077-.397-.138-.073-.138.719zm1.921 0c0 .794.062 1.118.139.721.076-.395.076-1.044 0-1.44-.077-.397-.139-.073-.139.719zm-27.626 3.684c-.413.441-.604.8-.425.8.41 0 1.545-1.23 1.333-1.442-.086-.086-.494.203-.908.642zm52.835-.001c.413.44.896.801 1.071.801.177 0-.018-.361-.431-.801-.414-.44-.896-.8-1.073-.8-.175 0 .019.36.433.8zm-26.81 1.761c0 .793.063 1.118.138.721.077-.397.077-1.045 0-1.441-.075-.396-.138-.072-.138.72zm1.28 0c0 .793.063 1.118.14.721.075-.397.075-1.045 0-1.441-.077-.396-.14-.072-.14.72zm-35.309 1.381c0 .055.469.524 1.041 1.041l1.041.941-.941-1.041c-.877-.97-1.141-1.188-1.141-.941zm15.428 3.583c-.201.439-.312.8-.248.8s.352-.361.641-.8c.288-.44.399-.801.248-.801-.152 0-.44.361-.641.801zm18.921.8c0 .792.063 1.116.138.721.077-.397.077-1.045 0-1.442-.075-.396-.138-.071-.138.721zm.64 0c0 .792.063 1.116.14.721.075-.397.075-1.045 0-1.442-.077-.396-.14-.071-.14.721zm-1.455 5.994c.568.072 1.577.072 2.241.003s.2-.127-1.033-.128-1.777.055-1.208.125z" fill="#5a5ab4"/></g></svg>