<svg enable-background="new 0 0 512 512" viewBox="0 0 512 512" xmlns="http://www.w3.org/2000/svg"><path d="m0 85.337h512v341.326h-512z" fill="#f0f0f0"/><path d="m0 85.337h512v113.775h-512z" fill="#a2001d"/><path d="m0 312.888h512v113.775h-512z"/><g fill="#496e2d"><path d="m219.186 246.069c-.083 0-.165.006-.248.007v-.007h-29.108c1.476-5.702 6.649-9.931 12.806-9.931v-19.863c-18.254 0-33.103 14.85-33.103 33.103v16.22.331h49.407.248c1.825 0 3.31 1.485 3.31 3.31v6.62h-66.208v19.862h86.069v-26.481c0-12.776-10.395-23.171-23.173-23.171z"/><path d="m268.841 275.862v-59.587h-19.861v79.449h33.103v-19.862z"/><path d="m335.048 275.862v-59.587h-19.862v59.587h-6.62v-19.861h-19.863v39.723h59.587v-19.862z"/></g></svg>