<svg enable-background="new 0 0 512 512" viewBox="0 0 512 512" xmlns="http://www.w3.org/2000/svg"><path d="m0 85.337h512v341.326h-512z" fill="#f0f0f0"/><path d="m0 85.337h512v113.775h-512z" fill="#6da544"/><path d="m0 312.888h512v113.775h-512z" fill="#d80027"/><path d="m300.345 220.383h-17.863c.148 1.963.232 3.944.232 5.936 0 13.207-3.301 26.01-9.057 35.122-1.775 2.812-4.759 6.78-8.753 9.456v-50.514h-17.809v50.514c-3.994-2.677-6.977-6.646-8.753-9.456-5.756-9.113-9.056-21.915-9.056-35.122 0-1.992.085-3.974.232-5.936h-17.863c-.115 1.953-.177 3.932-.177 5.936.001 36.617 19.557 65.299 44.523 65.299s44.522-28.682 44.522-65.299c-.001-2.004-.064-3.983-.178-5.936z" fill="#d80027"/><g fill="#f0f0f0"><path d="m44.522 184.275h22.261v24.421h-22.261z"/><path d="m0 184.275h22.261v24.421h-22.261z"/><path d="m89.043 184.275h22.261v24.421h-22.261z"/><path d="m133.565 184.275h22.261v24.421h-22.261z"/><path d="m178.087 184.275h22.261v24.421h-22.261z"/><path d="m222.609 184.275h22.261v24.421h-22.261z"/><path d="m267.13 184.275h22.261v24.421h-22.261z"/><path d="m311.652 184.275h22.261v24.421h-22.261z"/><path d="m356.174 184.275h22.261v24.421h-22.261z"/><path d="m400.696 184.275h22.261v24.421h-22.261z"/><path d="m445.217 184.275h22.261v24.421h-22.261z"/><path d="m489.739 184.275h22.261v24.421h-22.261z"/><path d="m44.522 302.191h22.261v25.534h-22.261z"/><path d="m0 302.191h22.261v25.534h-22.261z"/><path d="m89.043 302.191h22.261v25.534h-22.261z"/><path d="m133.565 302.191h22.261v25.534h-22.261z"/><path d="m178.087 302.191h22.261v25.534h-22.261z"/><path d="m222.609 302.191h22.261v25.534h-22.261z"/><path d="m267.13 302.191h22.261v25.534h-22.261z"/><path d="m311.652 302.191h22.261v25.534h-22.261z"/><path d="m356.174 302.191h22.261v25.534h-22.261z"/><path d="m400.696 302.191h22.261v25.534h-22.261z"/><path d="m445.217 302.191h22.261v25.534h-22.261z"/><path d="m489.739 302.191h22.261v25.534h-22.261z"/></g></svg>