<svg enable-background="new 0 0 512 512" viewBox="0 0 512 512" xmlns="http://www.w3.org/2000/svg"><path d="m0 85.334h512v341.337h-512z" fill="#f0f0f0"/><path d="m0 85.334h512v341.337h-512z" fill="#f0f0f0"/><path d="m301.255 255.997 210.745-140.498v-30.17h-45.255l-210.745 140.497-210.745-140.497h-45.255v30.17l210.745 140.498-210.745 140.497v30.169h45.255l210.745-140.496 210.745 140.496h45.255v-30.169z" fill="#d80027"/><path d="m233.739 166.953 22.261 5.565 22.261-5.565v-18.922l-8.904 4.453-13.357-13.357-13.357 13.357-8.904-4.453z" fill="#ffda44"/><path d="m233.739 166.953v13.914c0 17.04 22.261 22.261 22.261 22.261s22.261-5.221 22.261-22.261v-13.914z" fill="#d80027"/></svg>