<svg enable-background="new 0 0 512 512" viewBox="0 0 512 512" xmlns="http://www.w3.org/2000/svg"><path d="m0 85.337h512v341.326h-512z" fill="#6da544"/><path d="m215.864 256.006-215.864 143.905v-287.822z"/><path d="m512 112.089v287.822l-215.864-143.905z"/><path d="m512 112.089-215.864 143.917 215.864 143.905v26.757h-40.125l-215.875-143.916-215.875 143.916h-40.125v-26.757l215.864-143.905-215.864-143.917v-26.758h40.125l215.875 143.917 215.875-143.917h40.125z" fill="#0052b4"/><path d="m512 112.089-215.864 143.917 215.864 143.905v26.757h-40.125l-215.875-143.916-215.875 143.916h-40.125v-26.757l215.864-143.905-215.864-143.917v-26.758h40.125l215.875 143.917 215.875-143.917h40.125z" fill="#ffda44"/></svg>