<svg enable-background="new 0 0 512 512" viewBox="0 0 512 512" xmlns="http://www.w3.org/2000/svg"><path d="m0 85.331h512v341.337h-512z" fill="#f0f0f0"/><path d="m0 85.331h512v90.579h-512z"/><path d="m0 336.089h512v90.568h-512z" fill="#496e2d"/><path d="m0 198.606h512v114.799h-512z" fill="#a2001d"/><path d="m323.265 139.803-25.583-11.809-41.682 94.382-41.682-94.382-25.583 11.809 51.749 116.191-51.749 116.192 25.583 11.808 41.682-94.381 41.682 94.381 25.583-11.808-51.749-116.192z" fill="#f0f0f0"/><path d="m273.376 150.931c-9.904-10.816-17.376-17.033-17.376-17.033s-7.472 6.216-17.376 17.032v210.127c9.904 10.816 17.376 17.034 17.376 17.034s7.472-6.216 17.376-17.033z" fill="#f0f0f0"/><path d="m209.04 191.226v129.535c10.465 18.542 23.274 33.742 32.872 43.818v-217.171c-9.599 10.076-22.408 25.275-32.872 43.818z" fill="#a2001d"/><path d="m302.96 191.226c-10.465-18.543-23.274-33.742-32.872-43.818v217.172c9.599-10.077 22.407-25.276 32.872-43.818z" fill="#a2001d"/><path d="m302.96 191.226v129.535c10.594-18.774 18.784-40.973 18.784-64.767s-8.19-45.993-18.784-64.768z"/><path d="m209.04 191.226v129.535c-10.594-18.774-18.784-40.973-18.784-64.767s8.19-45.993 18.784-64.768z"/></svg>