<svg enable-background="new 0 0 512 512" viewBox="0 0 512 512" xmlns="http://www.w3.org/2000/svg"><path d="m0 85.331h512v341.337h-512z" fill="#d80027"/><circle cx="256" cy="255.994" fill="#d80027" r="170.663"/><path d="m339.465 255.994-34.104 16.042 18.161 33.031-37.035-7.085-4.691 37.409-25.796-27.512-25.795 27.512-4.693-37.409-37.033 7.083 18.161-33.031-34.105-16.04 34.106-16.04-18.162-33.033 37.031 7.087 4.696-37.41 25.794 27.513 25.797-27.513 4.69 37.41 37.036-7.087-18.161 33.034z" fill="#ffda44"/><circle cx="256" cy="255.994" fill="#d80027" r="51.942"/><g fill="#ffda44"><path d="m230.029 255.994c-1.251 0-2.487.063-3.705.186.045 7.195 2.648 13.779 6.947 18.894 2.294-6.172 5.718-11.799 10.035-16.614-4.126-1.587-8.6-2.466-13.277-2.466z"/><path d="m246.017 283.95c3.12 1.114 6.48 1.726 9.983 1.726s6.863-.611 9.983-1.726c-1.701-6.675-5.212-12.633-9.983-17.316-4.771 4.683-8.282 10.641-9.983 17.316z"/><path d="m281.702 241.159c-5.132-8.871-14.717-14.845-25.702-14.845s-20.571 5.974-25.704 14.845c9.356.048 18.129 2.591 25.704 6.984 7.574-4.393 16.346-6.936 25.702-6.984z"/><path d="m268.695 258.46c4.319 4.815 7.742 10.443 10.035 16.614 4.299-5.116 6.902-11.7 6.947-18.894-1.22-.121-2.455-.186-3.705-.186-4.677 0-9.152.879-13.277 2.466z"/></g></svg>