<svg fill="none" height="512" viewBox="0 0 512 512" width="512" xmlns="http://www.w3.org/2000/svg" xmlns:xlink="http://www.w3.org/1999/xlink"><clipPath id="a"><path d="m0 85h512v341.33h-512z"/></clipPath><g style="clip-path:url(#a);fill-rule:evenodd;clip-rule:evenodd;stroke:#000;stroke-width:2.49764;stroke-miterlimit:2.613;stroke-linejoin:bevel"><path d="m.32666 85.3413h511.34434v336.7727h-511.34434z" fill="#ce382f"/><path d="m190.611 266.365-2.899-3.188-2.728-4.554-1.193-6.831.17-4.099 5.115 4.327 2.899-.228 4.774-3.191 3.751-.908-2.898-12.523-2.046-4.558-1.023-7.283-.512-5.009 1.535-5.01 3.41 6.828 3.751 2.28 5.115.911 2.387-.911 1.705-11.613-.511-10.246 1.534-5.924 2.899-4.095v2.505l2.216 5.009 2.899 4.096 5.968 2.052 4.774-8.197 1.193-6.148 1.876-4.327 3.069-4.098 2.558-1.142-.682 5.24.682 3.871 4.092 5.693 3.069 3.416 6.82-6.148 2.558-5.921 3.924-3.871 5.11-2.732h2.731l-2.731 6.148.685 4.323 2.387 5.24 1.537 6.601 8.693-.68 3.067-3.871 6.138-3.644 5.115-.455 3.924 2.505-4.945 1.594-3.066 4.551v8.2l.336 5.917 9.21-2.505 7.331-.224 4.945 1.366 4.092 2.96 1.878 2.505-5.629 1.594-2.728 2.505-1.537 6.144-.336 5.924 3.408 4.095 4.43.456 4.609 2.963 4.601 5.006 3.071 5.241-6.481-.911-4.092 2.96-2.387 5.917-2.215 2.963z" fill="#f8d930"/><path d="m212.777 277.978-31.544-10.25 28.475-8.652-21.313-25.728 28.133 5.693-13.811-35.977 25.576 22.315-2.728-38.482 18.585 28.918 7.161-37.571 9.38 38.023 19.777-33.472-2.729 44.633 26.599-25.278-15.516 40.076 32.567-11.613-27.795 30.056 36.832 6.604-32.908 17.078-29.324 24.367-36.15-5.465-19.267-15.256z" fill="#f8d930"/><path d="m.32666 284.809 39.38684 12.068 52.0042-16.622 51.8333 18.444 54.733-16.622 51.833 14.8 53.71-16.622 52.686 17.53 59.165-16.622 50.129 18.443 45.864-14.797v141.176h-511.34434z" fill="#484582"/><path d="m210.049 271.375v-9.791l1.364-9.336 3.58-9.111 4.093-7.967 5.797-6.603 6.309-6.148 6.99-4.099 6.309-2.052h9.207l6.993.458 7.503 3.643 7.672 5.01 6.139 7.739 4.601 6.378 3.751 8.198 2.558 8.422 1.193 6.148.344 5.464-.344 11.164-17.391 16.619-33.079 1.594-27.792-11.613z" fill="#f8d930"/><path d="m.32666 265.457c3.58062 4.324 21.99524 24.589 41.09184 24.134 20.4607-.68 27.281-25.048 51.1518-24.589 18.7557 0 30.8617 25.047 53.8797 26.183 22.166.914 25.064-25.728 52.175-25.728 23.018 0 32.225 25.955 50.469 25.728 17.906-.459 30.01-26.183 55.754-25.728 27.792 0 30.179 25.728 52.177 26.183 21.142.459 30.179-25.503 58.31-25.503 24.726 0 35.468 27.556 47.912 27.783 19.779 0 39.219-17.308 48.422-28.921v21.173c-13.811 16.395-31.712 22.773-49.274 22.773-21.998 0-25.749-23.681-47.401-24.595-22.168-1.135-34.101 24.595-57.972 24.595-24.384 0-31.032-25.733-52.177-26.189-21.822 1.367-27.281 26.189-56.264 25.048-23.019-.452-33.931-24.589-49.618-23.454-17.218.687-28.472 25.503-52.004 24.14-28.815-1.366-34.271-23.681-55.4118-24.14-18.7556-.452-32.2256 24.368-49.1056 24.14-17.5621-.686-41.43292-21.404-41.944434-24.14-.341012-1.821 0-12.52-.170506-18.893z" fill="#fff"/><path d="m.32666 308.49c3.58062 4.323 21.99524 24.361 41.09184 23.912 20.4607-.458 27.281-24.826 51.1518-24.367 18.7557 0 30.8617 24.819 53.8797 25.961 22.166 1.135 25.064-25.503 52.175-25.503 23.018 0 32.225 25.955 50.469 25.503 17.906-.458 30.01-25.961 55.754-25.503 27.792 0 30.179 25.503 52.177 25.955 21.142.687 30.179-25.275 58.31-25.275 24.726 0 35.468 27.328 47.912 27.556 19.779 0 39.219-17.309 48.422-28.922 0 6.831-.166 15.029 0 20.724-13.811 16.164-31.712 23.226-49.274 23.226-21.998 0-25.749-23.453-47.401-24.589-22.168-.914-34.101 24.589-57.972 24.589-24.384 0-31.032-25.503-52.177-26.183-21.822 1.594-27.281 26.183-56.264 25.275-23.019-.686-33.931-24.595-49.618-23.681-17.218.68-28.472 25.727-52.004 24.134-28.815-1.136-34.271-23.682-55.4118-24.134-18.7556-.458-32.2256 24.589-49.1056 24.134-17.5621-.453-41.43292-21.405-41.944434-23.906-.341012-2.056 0-12.53-.170506-18.906z" fill="#fff"/><path d="m.32666 352.437c3.58062 4.551 21.99524 24.589 41.09184 24.361 20.4607-.686 27.281-25.275 51.1518-24.588 18.7557 0 30.8617 25.047 53.8797 26.182 22.166.914 25.064-25.733 52.175-25.733 23.018 0 32.225 25.961 50.469 25.733 17.906-.68 30.01-26.182 55.754-25.733 27.792 0 30.179 25.733 52.177 26.189 21.142.458 30.179-25.734 58.31-25.734 24.726 0 35.468 27.555 47.912 27.783 19.779 0 39.219-17.309 48.422-28.921v20.724c-13.811 16.163-31.712 23.225-49.274 23.225-21.998 0-25.749-23.453-47.401-24.595-22.168-.907-34.101 24.595-57.972 24.595-24.384 0-31.032-25.502-52.177-25.961-21.822 1.366-27.281 25.961-56.264 25.047-23.019-.679-33.931-24.588-49.618-23.681-17.218.914-28.472 25.962-52.004 24.14-28.815-1.135-34.271-23.453-55.4118-24.14-18.7556-.227-32.2256 24.595-49.1056 24.14-17.5621-.459-41.43292-21.173-41.944434-24.14-.341012-1.59 0-12.289-.170506-18.893z" fill="#fff"/><g fill="#f8d930"><path d="m242.956 110.389-4.433-4.102-5.968-3.412-14.152 2.046-12.958 3.415-13.299 4.557-6.48 3.644 1.194 2.049 11.765-1.594 10.742-2.049 9.719 1.594 6.138 1.594 5.967 2.504 3.922 5.01 2.728 6.145 3.751 9.566 12.447-17.761z"/><path d="m236.989 135.205-9.037-1.363-3.069-2.504-1.535-2.053-2.557-2.505-3.411-.452-3.58 1.822-2.046 2.96-4.945 1.591-4.092 1.824-3.24 3.644.171 1.821 3.921-1.821 4.434.224 4.092-.452 3.41 3.643 2.898 1.822 3.411 1.366 4.944 5.01 5.286 5.237 5.797 2.504 6.309 2.05 7.502 1.591 10.06-3.185 9.205-3.416 6.822-3.643 4.265-2.505 4.088-.91 16.368-.687 1.537-1.363-12.617-2.049h-1.023l12.788-2.049 6.481-3.416-.684-2.736-10.74-.455-9.723 2.049-6.138-.911-12.618-2.729h-6.818z"/><path d="m240.058 142.719 1.193-4.778 3.581-6.604 6.138-8.197 5.456-6.148 8.017-7.062 9.546-4.099 8.016-2.504 9.375-.452h9.551l7.668-.684h8.357l3.41 2.047-1.873 2.049-10.403.686-5.629.452 1.878.911 11.762-.452-3.067 2.505-5.965 2.504h-11.426 1.023l10.06 1.594-6.139 2.505-6.135.452-5.973-.452 5.973 1.594-3.752 2.049-1.877 1.367-2.047-.911-1.193 1.366h-1.705l-1.537-.911-1.7 1.594-2.051.455-1.701-1.138-1.366 1.818-1.534.456-1.874-.225-1.534 1.822-1.537 1.138-1.535-.686-1.873 3.647-1.537.91-1.707.228-.85 3.64-1.194 1.37-2.044.68-1.537 3.191-1.364.91-1.364.911-5.797 2.505-5.115-.911z"/></g><path d="m217.38 132.248c0 .683-.682 1.366-1.534 1.366-.853 0-1.535-.683-1.535-1.366 0-.911.682-1.594 1.535-1.594.852 0 1.534.683 1.534 1.594z" fill="#000"/></g></svg>