<svg enable-background="new 0 0 512 512" viewBox="0 0 512 512" xmlns="http://www.w3.org/2000/svg"><path d="m0 85.337h512v341.326h-512z" fill="#0052b4"/><path d="m0 85.337h512v85.337h-512z" fill="#ffda44"/><path d="m0 170.663h512v85.337h-512z" fill="#f0f0f0"/><path d="m0 256h512v85.337h-512z" fill="#d80027"/><path d="m256 256.006-256 170.662v-341.337z" fill="#6da544"/><g fill="#f0f0f0"><path d="m68.638 256c0-24.865 17.476-45.638 40.812-50.734-3.587-.784-7.308-1.208-11.13-1.208-28.688 0-51.942 23.255-51.942 51.942s23.255 51.942 51.942 51.942c3.822 0 7.543-.425 11.13-1.208-23.337-5.096-40.812-25.869-40.812-50.734z"/><path d="m108.877 211.478 2.762 8.503h8.94l-7.232 5.256 2.762 8.502-7.232-5.255-7.234 5.255 2.764-8.502-7.234-5.256h8.94z"/><path d="m108.877 233.739 2.762 8.503h8.94l-7.232 5.255 2.762 8.503-7.232-5.255-7.234 5.255 2.764-8.503-7.234-5.255h8.94z"/><path d="m108.877 256 2.762 8.503h8.94l-7.232 5.255 2.762 8.503-7.232-5.255-7.234 5.255 2.764-8.503-7.234-5.255h8.94z"/><path d="m108.877 278.261 2.762 8.502h8.94l-7.232 5.256 2.762 8.503-7.232-5.255-7.234 5.255 2.764-8.503-7.234-5.256h8.94z"/></g></svg>