<svg enable-background="new 0 0 512 512" viewBox="0 0 512 512" xmlns="http://www.w3.org/2000/svg"><path d="m0 85.333h512v341.337h-512z" fill="#d80027"/><path d="m512 85.33h-512v341.333" fill="#6da544"/><path d="m446.679 85.33h-28.845l-417.834 278.557v19.23 43.546h65.32 28.845l417.835-278.558v-19.229-43.546z" fill="#ffda44"/><path d="m512 85.33h-65.321l-446.679 297.787v43.546h65.32l446.68-297.787z"/><g fill="#f0f0f0"><path d="m186.241 265.94 18.902 14.53 19.659-13.487-7.977 22.467 18.902 14.53-23.832-.644-7.979 22.467-6.751-22.867-23.833-.644 19.66-13.487z"/><path d="m289.182 195.323 18.902 14.53 19.659-13.487-7.977 22.467 18.902 14.53-23.833-.645-7.978 22.468-6.752-22.867-23.832-.644 19.66-13.487z"/></g></svg>