<svg enable-background="new 0 0 512 512" viewBox="0 0 512 512" xmlns="http://www.w3.org/2000/svg"><path d="m0 85.331h512v341.337h-512z" fill="#fff"/><path d="m318.33 255.994c0 15.583-27.906 54.539-62.33 54.539s-62.33-38.957-62.33-54.539c0-34.424 27.906-62.33 62.33-62.33s62.33 27.906 62.33 62.33z" fill="#d80027"/><path d="m318.33 255.994c0 34.424-27.906 62.33-62.33 62.33s-62.33-27.906-62.33-62.33" fill="#0052b4"/><path d="m324.205 300.55h23.374v15.582h-23.374z" transform="matrix(.7071 -.7071 .7071 .7071 -119.6501 327.8224)"/><path d="m296.657 328.085h23.374v15.582h-23.374z" transform="matrix(.7071 -.7071 .7071 .7071 -147.1889 316.408)"/><path d="m357.26 333.586h23.374v15.582h-23.374z" transform="matrix(.7071 -.7071 .7071 .7071 -133.3277 360.8719)"/><path d="m329.712 361.143h23.374v15.582h-23.374z" transform="matrix(.7071 -.7071 .7071 .7071 -160.8823 349.464)"/><path d="m340.732 317.068h23.374v15.582h-23.374z" transform="matrix(.7071 -.7071 .7071 .7071 -126.4889 344.3472)"/><path d="m313.185 344.614h23.374v15.582h-23.374z" transform="matrix(.7071 -.7071 .7071 .7071 -154.0356 332.936)"/><path d="m307.483 165.555h62.33v15.582h-62.33z" transform="matrix(-.7071 -.7071 .7071 -.7071 455.5344 535.3814)"/><path d="m296.656 168.315h23.374v15.581h-23.374z" transform="matrix(-.7071 -.7071 .7071 -.7071 401.8486 518.6624)"/><path d="m324.193 195.864h23.374v15.581h-23.374z" transform="matrix(-.7071 -.7071 .7071 -.7071 429.3763 585.1636)"/><path d="m329.693 135.257h23.374v15.582h-23.374z" transform="matrix(-.7071 -.7071 .7071 -.7071 481.6206 485.591)"/><path d="m357.252 162.807h23.374v15.582h-23.374z" transform="matrix(-.7071 -.7071 .7071 -.7071 509.1863 552.108)"/><path d="m125.671 347.369h62.33v15.582h-62.33z" transform="matrix(.7071 .7071 -.7071 .7071 297.0721 -6.8758)"/><path d="m175.435 344.62h23.374v15.581h-23.374z" transform="matrix(.7071 .7071 -.7071 .7071 303.9983 -29.0962)"/><path d="m147.898 317.072h23.374v15.582h-23.374z" transform="matrix(.7071 .7071 -.7071 .7071 276.4547 -17.6934)"/><path d="m158.724 314.322h62.33v15.582h-62.33z" transform="matrix(.7071 .7071 -.7071 .7071 283.386 -39.9269)"/><path d="m125.672 149.023h62.33v15.582h-62.33z" transform="matrix(-.7071 .7071 -.7071 -.7071 378.6212 156.7987)"/><path d="m142.182 165.56h62.33v15.582h-62.33z" transform="matrix(-.7071 .7071 -.7071 -.7071 418.4998 173.3536)"/><path d="m158.712 182.089h62.33v15.581h-62.33z" transform="matrix(-.7071 .7071 -.7071 -.7071 458.4043 189.8812)"/></svg>