<svg enable-background="new 0 0 512 512" viewBox="0 0 512 512" xmlns="http://www.w3.org/2000/svg"><path d="m0 85.334h512v341.337h-512z" fill="#0052b4"/><circle cx="384" cy="181.79" fill="#6da544" r="29.682"/><path d="m332.054 174.377h103.88v44.522h-103.88z" fill="#d80027"/><path d="m435.942 255.997v-.001z" fill="#496e2d"/><path d="m332.058 285.678v29.682h15.616c9.364 9.176 22.18 14.84 36.326 14.84 14.147 0 26.962-5.664 36.326-14.84h.776 14.84v-29.682z" fill="#ffda44"/><path d="m332.058 211.475v44.522c0 39.759 51.942 51.942 51.942 51.942s51.942-12.182 51.942-51.942v-44.522z" fill="#338af3"/><path d="m383.997 235.256c-12.985 0-12.985 11.873-25.97 11.873s-12.985-11.873-25.97-11.873v20.777c12.985 0 12.985 11.873 25.97 11.873s12.985-11.873 25.97-11.873c12.986 0 12.986 11.873 25.973 11.873 12.986 0 12.986-11.873 25.973-11.873v-20.777c-12.986 0-12.986 11.873-25.973 11.873-12.986-.001-12.986-11.873-25.973-11.873z" fill="#f3f3f3"/><path d="m383.997 193.666c-12.985 0-12.985 11.873-25.97 11.873s-12.985-11.873-25.97-11.873v20.777c12.985 0 12.985 11.873 25.97 11.873s12.985-11.873 25.97-11.873c12.986 0 12.986 11.873 25.973 11.873 12.986 0 12.986-11.873 25.973-11.873v-20.777c-12.986 0-12.986 11.873-25.973 11.873-12.986 0-12.986-11.873-25.973-11.873z" fill="#f3f3f3"/><path d="m256 85.334v22.617l-46.069 30.709h46.069v64h-46.069l46.069 30.72v22.617h-22.628l-73.372-48.919v48.919h-64v-48.919l-73.372 48.919h-22.628v-22.617l46.069-30.72h-46.069v-64h46.069l-46.069-30.709v-22.617h22.628l73.372 48.907v-48.907h64v48.907l73.372-48.907z" fill="#f0f0f0"/><g fill="#d80027"><path d="m144 85.329h-32v69.334h-112v32h112v69.334h32v-69.334h112v-32h-112z"/><path d="m0 85.329v15.082l57.377 38.252h22.623z"/><path d="m256 85.329v15.082l-57.377 38.252h-22.623z"/><path d="m0 85.329v15.082l57.377 38.252h22.623z"/><path d="m256 85.329v15.082l-57.377 38.252h-22.623z"/><path d="m0 255.997v-15.082l57.377-38.252h22.623z"/><path d="m256 255.997v-15.082l-57.377-38.252h-22.623z"/></g></svg>