<svg enable-background="new 0 0 512 512" viewBox="0 0 512 512" xmlns="http://www.w3.org/2000/svg"><path d="m0 85.331h512v341.337h-512z" fill="#338af3"/><path d="m352 265.768h-192c0 13.255 11.544 23.999 24.799 23.999h-.799c0 13.255 10.744 24.001 24.001 24.001 0 13.255 10.744 24.001 24.001 24.001h48c13.255 0 24.001-10.744 24.001-24.001 13.255 0 24.001-10.744 24.001-24.001h-.799c13.249 0 24.795-10.744 24.795-23.999z" fill="#ffda44"/><path d="m322.462 234.384c0 36.705-29.756 66.462-66.462 66.462s-66.462-29.756-66.462-66.462" fill="#338af3"/><path d="m321.882 228.163-26.92 10.899 14.335 22.441-29.232-4.814-3.704 25.415-20.361-18.692-20.362 18.692-3.703-25.415-29.232 4.812 14.334-22.44-26.919-10.898 26.92-10.899-14.335-22.439 29.231 4.813 3.705-25.417 20.361 18.694 20.362-18.694 3.703 25.417 29.233-4.813-14.335 22.44z" fill="#ffda44"/></svg>