<svg enable-background="new 0 0 512 512" viewBox="0 0 512 512" xmlns="http://www.w3.org/2000/svg"><path d="m0 85.34h512v341.326h-512z" fill="#d80027"/><path d="m512 85.334v166.69l-512 4.151v-170.841z" fill="#0052b4"/><path d="m211.478 204.06c0-12.295-9.966-22.261-22.261-22.261-5.703 0-10.901 2.146-14.84 5.672v-13.093h7.421v-14.84h-7.421v-7.421h-14.84v7.421h-7.421v14.84h7.421v13.093c-3.939-3.526-9.138-5.672-14.84-5.672-12.295 0-22.261 9.966-22.261 22.261 0 6.591 2.867 12.512 7.421 16.589v13.093h74.203v-13.093c4.551-4.077 7.418-9.997 7.418-16.589z" fill="#ffda44"/></svg>