<svg enable-background="new 0 0 512 512" viewBox="0 0 512 512" xmlns="http://www.w3.org/2000/svg"><path d="m0 85.329v341.337h512v-341.337zm489.739 319.076h-267.13v-296.815h267.13z" fill="#ffda44"/><path d="m222.609 107.595h267.13v296.815h-267.13z" fill="#a2001d"/><path d="m22.261 107.595h200.348v296.815h-200.348z" fill="#d80027"/><path d="m200.348 85.334h22.261v341.337h-22.261z" fill="#ffda44"/><path d="m22.261 107.595h89.043v296.815h-89.043z" fill="#6da544"/><path d="m111.304 107.595h89.043v296.815h-89.043z" fill="#ff9811"/><g fill="#ffda44"><path d="m358.675 250.438v-44.522c0-7.424-11.13-14.848-11.13-14.848s-11.13 7.424-11.13 14.848h-44.522v44.522h22.261v22.261c0 4.875.979 9.539 2.76 13.768l-10.184 8.493h-29.674v-137.283c-12.299 0-22.261 9.973-22.261 22.261v96.467c0 6.589 2.861 12.511 7.413 16.584v35.361h14.848v-18.554h66.783v29.685h-14.849v14.837h29.685v-29.685l13.601-14.837h44.288v29.685h-14.848v14.837h29.685v-29.685l13.601-14.837 12.552-40.259-11.038-19.1h-38.945c-14.169-.122-40.637.09-48.896.001z"/><path d="m370.551 211.844v25.229h71.513v13.365h4.452v-17.817h-71.513v-16.325h75.965v-4.452z"/><path d="m222.609 107.595h22.261v22.261h-22.261z"/><path d="m467.478 107.595h22.261v22.261h-22.261z"/><path d="m222.609 382.138h22.261v22.261h-22.261z"/><path d="m467.478 382.138h22.261v22.261h-22.261z"/></g></svg>