<svg enable-background="new 0 0 512 512" viewBox="0 0 512 512" xmlns="http://www.w3.org/2000/svg"><path d="m0 85.337h512v341.326h-512z"/><path d="m0 85.337h512v113.775h-512z" fill="#d80027"/><path d="m0 312.888h512v113.775h-512z" fill="#496e2d"/><g fill="#f0f0f0"><path d="m281.424 236.026 8.962 12.35 14.513-4.706-8.975 12.339 8.961 12.349-14.509-4.724-8.976 12.34.01-15.258-14.51-4.725 14.514-4.706z"/><path d="m256.965 286.868c-17.048 0-30.868-13.821-30.868-30.868s13.821-30.868 30.868-30.868c5.316 0 10.317 1.345 14.684 3.71-6.851-6.698-16.218-10.833-26.556-10.833-20.982 0-37.992 17.01-37.992 37.992s17.01 37.992 37.992 37.992c10.338 0 19.706-4.135 26.556-10.833-4.366 2.365-9.368 3.708-14.684 3.708z"/></g></svg>