<svg enable-background="new 0 0 512 512" viewBox="0 0 512 512" xmlns="http://www.w3.org/2000/svg"><path d="m0 85.337v170.663 170.663h512v-170.663-170.663z" fill="#d80027"/><path d="m352 226.484h-73.337l-22.663-69.746-22.663 69.748h-73.337l59.331 43.107-22.663 69.749 59.332-43.11 59.332 43.107-22.663-69.749zm-116.063 37.711 7.663-23.585h24.8l7.663 23.585v.001l-20.063 14.576zm27.873-37.711h-15.619l7.809-24.037zm24.269 28.982-4.827-14.856h25.274zm-59.331-14.856-4.827 14.856-20.447-14.856zm-5.211 61.748 7.81-24.036 12.636 9.181zm44.479-14.856 12.636-9.181 7.81 24.036z" fill="#ffda44"/></svg>