<svg enable-background="new 0 0 512 512" viewBox="0 0 512 512" xmlns="http://www.w3.org/2000/svg"><path d="m0 85.331h512v341.326h-512z" fill="#ffda44"/><path d="m330.207 85.331h181.793v341.337h-181.793z" fill="#d80027"/><path d="m0 85.331h181.793v341.337h-181.793z" fill="#0052b4"/><path d="m315.362 219.607h-40.812c0-10.244-8.306-18.551-18.551-18.551-10.246 0-18.551 8.306-18.551 18.551h-40.812c0 10.088 8.787 18.265 18.874 18.265h-.608c0 10.088 8.176 18.266 18.265 18.266 0 8.931 6.414 16.353 14.886 17.939l-14.393 32.495c6.896 2.804 14.434 4.362 22.338 4.362s15.441-1.558 22.338-4.362l-14.392-32.495c8.471-1.586 14.886-9.008 14.886-17.939 10.089 0 18.265-8.179 18.265-18.266h-.609c10.09-.001 18.876-8.179 18.876-18.265z" fill="#ff9811"/><path d="m256 244.864-24.116 11.13v22.261l24.116 14.84 24.116-14.84v-22.261z" fill="#0052b4"/><path d="m231.88 233.734h48.228v22.261h-48.228z" fill="#d80027"/></svg>