<svg enable-background="new 0 0 512 512" viewBox="0 0 512 512" xmlns="http://www.w3.org/2000/svg"><path d="m0 85.337h512v341.326h-512z" fill="#ffda44"/><path d="m0 115.011h512v281.978h-512z" fill="#a2001d"/><path d="m218.899 211.478h74.202v-29.681l-14.84 7.42-22.261-22.26-22.261 22.26-14.84-7.42z" fill="#ffda44"/><path d="m322.783 256h-37.088c1.455-2.515 2.3-5.427 2.3-8.543 0-9.458-7.668-17.124-17.124-17.124-6.534 0-12.209 3.661-15.096 9.041-2.887-5.38-8.562-9.041-15.096-9.041-9.456 0-17.124 7.666-17.124 17.124 0 3.114.846 6.026 2.3 8.543h-36.636c0 11.349 9.885 20.549 21.232 20.549h-.685c0 9.31 6.192 17.168 14.68 19.694l-16.678 16.678 15.741 15.741 22.329-22.329c.875.321 1.78.577 2.714.752l-13.492 30.464c6.466 2.629 13.531 4.088 20.941 4.088s14.475-1.46 20.941-4.088l-13.492-30.464c.935-.176 1.839-.432 2.714-.752l22.329 22.329 15.741-15.741-16.678-16.678c8.488-2.526 14.68-10.385 14.68-19.694h-.685c11.347 0 21.232-9.2 21.232-20.549z" fill="#ffda44"/><path d="m256 267.13-24.116 11.131v22.261l24.116 14.84 24.116-14.84v-22.261z" fill="#6da544"/><path d="m231.88 256h48.228v29.682h-48.228z" fill="#0052b4"/></svg>