<svg enable-background="new 0 0 512 512" viewBox="0 0 512 512" xmlns="http://www.w3.org/2000/svg"><path d="m0 85.337h512v341.326h-512z" fill="#0052b4"/><path d="m233.839 185.115-20.844 9.803 11.1 20.187-22.633-4.33-2.868 22.864-15.765-16.816-15.766 16.816-2.867-22.864-22.634 4.33 11.1-20.187-20.843-9.803 20.843-9.805-11.1-20.185 22.633 4.328 2.869-22.864 15.765 16.816 15.765-16.816 2.868 22.864 22.634-4.328-11.1 20.186z" fill="#f0f0f0"/><path d="m426.917 85.337-426.917 336.183v3.762l503.756-339.945z" fill="#f0f0f0"/><path d="m512 85.337h-8.244l-503.756 339.945v1.381h3.723l508.277-289.665z" fill="#ff9811"/></svg>