<svg enable-background="new 0 0 512 512" viewBox="0 0 512 512" xmlns="http://www.w3.org/2000/svg"><path d="m0 85.333h512v341.337h-512z" fill="#ffda44"/><g fill="#d80027"><path d="m383.875 426.662-127.875-174.376 26.827 174.376z"/><path d="m133.565 85.33 122.435 166.956-25.686-166.956z"/><path d="m229.171 426.662 26.829-174.376-127.876 174.376z"/><path d="m0 85.33v127.57l256 39.386-227.667-166.956z"/><path d="m0 426.662h18.212l237.788-174.376-256 39.384z"/><path d="m256 252.286 256-39.386v-127.57h-28.331z"/><path d="m281.686 85.33-25.686 166.956 122.434-166.956z"/><path d="m512 426.662v-134.991l-256-39.385 237.787 174.376z"/><circle cx="256" cy="252.29" r="59.359"/></g><circle cx="256" cy="252.29" fill="#ffda44" r="44.522"/></svg>