<svg enable-background="new 0 0 512 512" viewBox="0 0 512 512" xmlns="http://www.w3.org/2000/svg"><path d="m0 85.331h512v341.337h-512z" fill="#338af3"/><path d="m251.469 348.064c-3.906-.189-7.137-2.727-8.402-6.173-2.236 2.916-6.078 4.384-9.864 3.408-3.792-.976-6.443-4.114-6.992-7.753-2.784 2.405-6.841 3.061-10.349 1.341-3.515-1.726-5.48-5.336-5.278-9.008-3.206 1.802-7.313 1.625-10.406-.768-3.086-2.393-4.29-6.318-3.357-9.876-3.502 1.122-7.483.126-10.034-2.841-2.551-2.961-2.942-7.049-1.317-10.342-3.653.39-7.357-1.386-9.259-4.799-1.909-3.414-1.468-7.502.794-10.406-3.66-.353-6.934-2.84-8.106-6.569-1.178-3.729.082-7.647 2.885-10.034-3.515-1.084-6.211-4.183-6.607-8.07-.397-3.887 1.618-7.457 4.837-9.234-3.219-1.763-5.247-5.335-4.863-9.215h.006c.384-3.892 3.08-6.998 6.588-8.094-2.803-2.381-4.075-6.293-2.91-10.022 1.165-3.735 4.434-6.23 8.094-6.595-2.262-2.897-2.715-6.985-.819-10.406 1.896-3.414 5.6-5.197 9.259-4.812-1.637-3.295-1.253-7.382 1.291-10.356 2.538-2.966 6.519-3.968 10.027-2.859-.945-3.552.252-7.483 3.338-9.883 3.08-2.4 7.187-2.583 10.392-.794-.208-3.672 1.751-7.282 5.259-9.013 3.502-1.726 7.565-1.083 10.355 1.322.535-3.641 3.188-6.79 6.973-7.772 3.779-.983 7.622.472 9.864 3.383 1.267-3.445 4.491-5.99 8.397-6.185 3.899-.201 7.363 1.99 8.976 5.285 1.928-3.124 5.593-4.976 9.454-4.39 3.867.58 6.834 3.426 7.753 6.985 2.52-2.684 6.488-3.748 10.153-2.4 3.672 1.355 6.003 4.743 6.18 8.421 3.004-2.116 7.111-2.362 10.43-.296 3.319 2.059 4.913 5.846 4.346 9.48 3.37-1.468 7.439-.882 10.273 1.802 2.835 2.689 3.641 6.715 2.356 10.16 3.596-.762 7.464.623 9.706 3.83 2.243 3.2 2.224 7.306.277 10.425 3.672-.026 7.18 2.117 8.736 5.7 1.549 3.591.699 7.615-1.839 10.28 3.61.718 6.614 3.521 7.407 7.351.787 3.83-.857 7.59-3.874 9.688 3.377 1.43 5.757 4.775 5.763 8.68v.126.082c0 3.905-2.369 7.256-5.744 8.698 3.023 2.085 4.68 5.846 3.892 9.675-.781 3.83-3.779 6.639-7.388 7.369 2.544 2.658 3.408 6.676 1.864 10.273-1.544 3.591-5.052 5.739-8.731 5.719 1.952 3.118 1.985 7.225-.252 10.43-2.236 3.207-6.097 4.605-9.693 3.849 1.291 3.439.492 7.471-2.336 10.167-2.835 2.69-6.898 3.281-10.267 1.826.573 3.629-1.014 7.421-4.328 9.492-3.314 2.072-7.42 1.832-10.43-.277-.17 3.679-2.488 7.073-6.154 8.434s0 0-.007 0c-3.666 1.355-7.634.296-10.16-2.381-.907 3.565-3.868 6.418-7.735 7.01-3.861.585-7.533-1.253-9.466-4.378-1.537 3.169-4.787 5.323-8.49 5.323-.153 0-.31-.006-.468-.013z" fill="#f3f3f3"/><circle cx="256.033" cy="256.84" fill="#338af3" r="62.987"/><path d="m269.823 235.464c3.094-2.295 5.109-5.964 5.109-10.113v-6.299c0-6.958-5.64-12.597-12.597-12.597h-12.597c-6.958 0-12.597 5.64-12.597 12.597v6.299c0 4.149 2.015 7.818 5.109 10.113l-11.408 115.862s6.299 6.3 25.195 6.3 25.195-6.3 25.195-6.3z" fill="#bdbcc1"/><path d="m256.034 206.455 10.944 33.682h35.418l-28.652 20.818 10.944 33.683-28.654-20.816-28.651 20.816 10.944-33.683-28.652-20.818h35.416z" fill="#f0f0f0"/></svg>