<svg enable-background="new 0 0 512 512" viewBox="0 0 512 512" xmlns="http://www.w3.org/2000/svg"><path d="m0 85.331h512v341.337h-512z" fill="#0052b4"/><g fill="#f0f0f0"><path d="m512 233.734v44.521h-233.739v148.402h-44.522v-148.402h-233.739v-44.521h233.739v-148.403h44.522v148.403z"/><path d="m386.607 175.885c0-2.268 1.845-4.114 4.115-4.114h8.816c13.936 0 25.274-11.337 25.274-25.273 0-13.935-11.337-25.273-25.274-25.273h-8.372c-2.733-2.052-6.399-3.318-10.443-3.318-8.436 0-15.273 5.471-15.273 12.219 0 6.683 6.707 12.104 15.029 12.209l-.003.049h19.062c2.27 0 4.115 1.845 4.115 4.115s-1.845 4.114-4.115 4.114h-8.816c-13.936 0-25.273 11.337-25.273 25.273 0 13.935 11.336 25.273 25.273 25.273h34.09v-21.159h-34.09c-2.27-.001-4.115-1.846-4.115-4.115z"/><path d="m108.346 175.885c0-2.268 1.845-4.114 4.115-4.114h8.816c13.936 0 25.274-11.337 25.274-25.273 0-13.935-11.337-25.273-25.274-25.273h-8.372c-2.733-2.052-6.399-3.318-10.443-3.318-8.436 0-15.273 5.471-15.273 12.219 0 6.683 6.707 12.104 15.029 12.209l-.003.049h19.062c2.27 0 4.115 1.845 4.115 4.115s-1.845 4.114-4.115 4.114h-8.816c-13.936 0-25.273 11.337-25.273 25.273 0 13.935 11.336 25.273 25.273 25.273h34.09v-21.159h-34.09c-2.27-.001-4.115-1.846-4.115-4.115z"/><path d="m386.607 368.809c0-2.268 1.845-4.114 4.115-4.114h8.816c13.936 0 25.274-11.337 25.274-25.273 0-13.935-11.337-25.273-25.274-25.273h-8.372c-2.733-2.052-6.399-3.318-10.443-3.318-8.436 0-15.273 5.471-15.273 12.219 0 6.683 6.707 12.104 15.029 12.209l-.003.049h19.062c2.27 0 4.115 1.845 4.115 4.115s-1.845 4.114-4.115 4.114h-8.816c-13.936 0-25.273 11.337-25.273 25.273 0 13.935 11.336 25.273 25.273 25.273h34.09v-21.159h-34.09c-2.27-.001-4.115-1.845-4.115-4.115z"/><path d="m108.346 368.809c0-2.268 1.845-4.114 4.115-4.114h8.816c13.936 0 25.274-11.337 25.274-25.273 0-13.935-11.337-25.273-25.274-25.273h-8.372c-2.733-2.052-6.399-3.318-10.443-3.318-8.436 0-15.273 5.471-15.273 12.219 0 6.683 6.707 12.104 15.029 12.209l-.003.049h19.062c2.27 0 4.115 1.845 4.115 4.115s-1.845 4.114-4.115 4.114h-8.816c-13.936 0-25.273 11.337-25.273 25.273 0 13.935 11.336 25.273 25.273 25.273h34.09v-21.159h-34.09c-2.27-.001-4.115-1.845-4.115-4.115z"/></g></svg>