<svg enable-background="new 0 0 512 512" viewBox="0 0 512 512" xmlns="http://www.w3.org/2000/svg"><path d="m0 85.333h512v341.337h-512z" fill="#0052b4"/><path d="m334.222 191.996v78.221c0 38.103 49.777 49.779 49.777 49.779s49.778-11.675 49.778-49.779v-78.221z" fill="#338af3"/><path d="m334.222 270.217c0 38.103 49.777 49.779 49.777 49.779s49.778-11.675 49.778-49.779z" fill="#a2001d"/><path d="m405.334 227.552h-14.224v-14.223h-14.222v14.223h-14.222v14.223h14.222v42.665h14.222v-42.665h14.224z"/><path d="m256 85.333v30.553l-45.167 25.099h45.167v59.359h-59.103l59.103 32.835v22.817h-26.68l-73.494-40.826v40.826h-55.652v-48.573l-87.43 48.573h-12.744v-30.554l45.167-25.098h-45.167v-59.359h59.103l-59.103-32.846v-22.806h26.68l73.494 40.825v-40.825h55.652v48.572l87.43-48.572z" fill="#f0f0f0"/><path d="m144 85.33h-32v69.332h-112v32h112v69.334h32v-69.334h112v-32h-112z" fill="#d80027"/><path d="m155.826 200.344 100.174 55.652v-15.737l-71.847-39.915z" fill="#0052b4"/><path d="m155.826 200.344 100.174 55.652v-15.737l-71.847-39.915z" fill="#f0f0f0"/><path d="m155.826 200.344 100.174 55.652v-15.737l-71.847-39.915z" fill="#d80027"/><path d="m71.846 200.344-71.846 39.915v15.737l100.174-55.652z" fill="#d80027"/><path d="m100.174 140.982-100.174-55.652v15.737l71.847 39.915z" fill="#0052b4"/><path d="m100.174 140.982-100.174-55.652v15.737l71.847 39.915z" fill="#f0f0f0"/><g fill="#d80027"><path d="m100.174 140.982-100.174-55.652v15.737l71.847 39.915z"/><path d="m184.154 140.982 71.846-39.915v-15.737l-100.174 55.652z"/></g></svg>