<svg enable-background="new 0 0 512 512" viewBox="0 0 512 512" xmlns="http://www.w3.org/2000/svg"><path d="m341.334 85.33h-170.668-170.666v341.332h170.666 170.668 170.666v-341.332z" fill="#d80027"/><path d="m0 85.333h170.663v341.337h-170.663z" fill="#6da544"/><path d="m170.663 85.333h170.663v341.337h-170.663z" fill="#f0f0f0"/><path d="m208 255.996c0 26.509 21.491 48 48 48s48-21.491 48-48v-16h-96z" fill="#6da544"/><path d="m320 223.996h-48c0-8.836-7.164-16-16-16s-16 7.164-16 16h-48c0 8.836 7.697 16 16.533 16h-.533c0 8.836 7.164 16 16 16 0 8.836 7.164 16 16 16h32c8.836 0 16-7.164 16-16 8.836 0 16-7.164 16-16h-.533c8.836 0 16.533-7.163 16.533-16z" fill="#ff9811"/></svg>