<svg enable-background="new 0 0 512 512" viewBox="0 0 512 512" xmlns="http://www.w3.org/2000/svg"><path d="m0 85.331h512v341.337h-512z" fill="#f0f0f0"/><g fill="#d80027"><path d="m0 127.994h512v42.663h-512z"/><path d="m0 213.331h512v42.663h-512z"/><path d="m0 298.657h512v42.663h-512z"/><path d="m0 383.994h512v42.663h-512z"/></g><path d="m0 85.331h256v183.797h-256z" fill="#0052b4"/><path d="m140.919 219.429c-23.308 0-42.202-18.895-42.202-42.202s18.895-42.202 42.202-42.202c7.267 0 14.104 1.838 20.075 5.072-9.365-9.158-22.173-14.811-36.307-14.811-28.686 0-51.941 23.255-51.941 51.941s23.256 51.941 51.941 51.941c14.133 0 26.942-5.653 36.307-14.811-5.97 3.234-12.808 5.072-20.075 5.072z" fill="#ffda44"/><path d="m152.811 147.545 7.493 15.668 16.92-3.91-7.577 15.626 13.608 10.792-16.943 3.819.048 17.367-13.549-10.866-13.549 10.866.047-17.367-16.943-3.819 13.608-10.792-7.579-15.626 16.922 3.91z" fill="#ffda44"/></svg>