<svg enable-background="new 0 0 512 512" viewBox="0 0 512 512" xmlns="http://www.w3.org/2000/svg"><path d="m0 85.337h512v341.326h-512z" fill="#f0f0f0"/><path d="m0 322.783h512v103.88h-512z" fill="#ffda44"/><path d="m0 85.337h512v104.515h-512z" fill="#496e2d"/><path d="m0 210.877h512v89.656h-512z"/><path d="m256 256.006-256 170.662v-341.337z" fill="#a2001d"/><path d="m83.477 195.132 15.107 46.498h48.894l-39.554 28.739 15.107 46.499-39.554-28.738-39.555 28.738 15.11-46.499-39.554-28.739h48.892z" fill="#ffda44"/><path d="m39.268 256h88.42v40.578h-88.42z" fill="#f0f0f0"/><path d="m144.443 209.479-14.347-14.347-46.618 46.618-46.617-46.618-14.347 14.347 46.658 46.577-46.658 46.658 14.347 14.154 46.617-46.534 46.618 46.534 14.347-14.154-46.659-46.658z"/></svg>