<svg enable-background="new 0 0 512 512" viewBox="0 0 512 512" xmlns="http://www.w3.org/2000/svg"><path d="m0 85.337h512v341.326h-512z" fill="#496e2d"/><path d="m0 426.663v-341.326h512" fill="#0052b4"/><path d="m512 152.222v-66.885h-100.33l-411.67 274.441v66.885h100.33z" fill="#f0f0f0"/><path d="m512 85.337v40.125l-451.807 301.201h-60.193v-40.125l451.807-301.201z" fill="#a2001d"/><path d="m187.737 189.212-22.741 10.696 12.11 22.024-24.693-4.724-3.129 24.945-17.199-18.347-17.2 18.347-3.129-24.945-24.693 4.723 12.109-22.023-22.739-10.696 22.74-10.697-12.11-22.022 24.693 4.722 3.13-24.944 17.199 18.347 17.2-18.347 3.128 24.944 24.693-4.722-12.108 22.024z" fill="#ffda44"/></svg>