<svg enable-background="new 0 0 512 512" viewBox="0 0 512 512" xmlns="http://www.w3.org/2000/svg"><path d="m0 85.337h512v341.326h-512z" fill="#f0f0f0"/><path d="m0 85.337h512v113.775h-512z" fill="#338af3"/><path d="m0 312.888h512v113.775h-512z" fill="#338af3"/><path d="m256 214.447c-22.949 0-41.553 18.603-41.553 41.553s18.603 41.553 41.553 41.553c22.949 0 41.553-18.603 41.553-41.553s-18.604-41.553-41.553-41.553zm0 65.298c-13.114 0-23.745-10.631-23.745-23.745s10.631-23.745 23.745-23.745 23.745 10.631 23.745 23.745-10.631 23.745-23.745 23.745z" fill="#ffda44"/><path d="m276.563 261.936-20.563-5.936-20.563 5.936-6.855 11.873h54.836z" fill="#0052b4"/><path d="m256 226.32-13.709 23.744 13.709 5.936 13.709-5.936z" fill="#338af3"/><path d="m235.437 261.936h41.126l-6.854-11.872h-27.418z" fill="#6da544"/></svg>