<svg enable-background="new 0 0 512 512" viewBox="0 0 512 512" xmlns="http://www.w3.org/2000/svg"><path d="m0 85.337h512v341.326h-512z" fill="#f0f0f0"/><path d="m0 426.663v-341.326l280.419 174.75h-192.809l183.576 166.576z" fill="#0052b4"/><path d="m244.769 249.888-234.57-146.178v146.178 166.576h234.57l-183.576-166.576z" fill="#d80027"/><g fill="#f0f0f0"><path d="m98.003 324.433-14.589-6.863 7.77-14.13-15.844 3.03-2.008-16.005-11.035 11.772-11.036-11.772-2.008 16.005-15.843-3.031 7.77 14.131-14.591 6.863 14.591 6.862-7.77 14.13 15.844-3.029 2.007 16.004 11.036-11.772 11.035 11.772 2.008-16.004 15.843 3.03-7.769-14.13z"/><path d="m88.268 191.662-10.612-4.991 5.651-10.278-11.523 2.205-1.461-11.641-8.026 8.561-8.026-8.561-1.46 11.641-11.525-2.205 5.652 10.278-10.613 4.991 25.972 5.194z"/><path d="m93.462 191.662c0 17.212-13.953 31.165-31.165 31.165s-31.165-13.953-31.165-31.165"/></g></svg>