<svg enable-background="new 0 0 512 512" viewBox="0 0 512 512" xmlns="http://www.w3.org/2000/svg"><path d="m0 85.334h512v341.337h-512z" fill="#ffda44"/><path d="m0 85.334h256v170.663h-256z" fill="#f0f0f0"/><path d="m144 85.33h-32v69.333h-112v32h112v69.334h32v-69.334h112v-32h-112z" fill="#d80027"/><path d="m0 85.329v15.083l57.377 38.251h22.623z" fill="#d80027"/><path d="m0 107.951v30.712h46.069z" fill="#2e52b2"/><path d="m96 85.331v48.913l-73.372-48.913z" fill="#2e52b2"/><path d="m256 85.329v15.083l-57.377 38.251h-22.623z" fill="#d80027"/><path d="m256 107.951v30.712h-46.069z" fill="#2e52b2"/><path d="m160 85.331v48.913l73.372-48.913z" fill="#2e52b2"/><path d="m0 85.329v15.083l57.377 38.251h22.623z" fill="#d80027"/><path d="m0 107.951v30.712h46.069z" fill="#2e52b2"/><path d="m96 85.331v48.913l-73.372-48.913z" fill="#2e52b2"/><path d="m256 85.329v15.083l-57.377 38.251h-22.623z" fill="#d80027"/><path d="m256 107.951v30.712h-46.069z" fill="#2e52b2"/><path d="m160 85.331v48.913l73.372-48.913z" fill="#2e52b2"/><path d="m0 255.997v-15.082l57.377-38.252h22.623z" fill="#d80027"/><path d="m0 233.376v-30.713h46.069z" fill="#2e52b2"/><path d="m96 255.994v-48.912l-73.372 48.912z" fill="#2e52b2"/><path d="m256 255.997v-15.082l-57.377-38.252h-22.623z" fill="#d80027"/><path d="m256 233.376v-30.713h-46.069z" fill="#2e52b2"/><path d="m160 255.994v-48.912l73.372 48.912z" fill="#2e52b2"/><circle cx="128" cy="170.66" fill="#2e52b2" r="22.627"/><g fill="#ffda44"><path d="m128 154.663 3.97 12.222h12.854l-10.398 7.556 3.971 12.222-10.397-7.554-10.398 7.554 3.972-12.222-10.398-7.556h12.853z"/><path d="m128 219.803 2.364 7.278h7.653l-6.19 4.498 2.364 7.278-6.191-4.498-6.191 4.498 2.364-7.278-6.19-4.498h7.652z"/><path d="m128 102.469 2.364 7.278h7.653l-6.19 4.498 2.364 7.278-6.191-4.498-6.191 4.498 2.364-7.278-6.19-4.498h7.652z"/><path d="m197.931 161.136 2.365 7.277h7.653l-6.192 4.499 2.365 7.279-6.191-4.498-6.191 4.498 2.365-7.279-6.191-4.499h7.652z"/><path d="m58.069 161.136 2.364 7.277h7.653l-6.191 4.499 2.364 7.279-6.19-4.498-6.191 4.498 2.365-7.279-6.192-4.499h7.653z"/></g></svg>