<svg enable-background="new 0 0 512 512" viewBox="0 0 512 512" xmlns="http://www.w3.org/2000/svg"><path d="m0 85.334h512v341.337h-512z" fill="#0052b4"/><g fill="#d80027"><path d="m425.301 233.745 3.388 10.428h10.963l-8.87 6.444 3.388 10.427-8.869-6.444-8.871 6.444 3.388-10.427-8.87-6.444h10.963z"/><path d="m386.107 308.817 5.083 15.642h16.445l-13.305 9.667 5.082 15.64-13.305-9.667-13.305 9.667 5.083-15.64-13.305-9.667h16.445z"/><path d="m387.588 185.971 4.236 13.036h13.704l-11.088 8.054 4.235 13.034-11.087-8.056-11.088 8.056 4.235-13.034-11.087-8.054h13.704z"/><path d="m349.876 233.291 5.082 15.641h16.446l-13.306 9.666 5.084 15.641-13.306-9.666-13.305 9.666 5.082-15.641-13.305-9.666h16.445z"/></g><path d="m256.003 85.329v30.564l-45.178 25.088h45.178v59.359h-59.113l59.113 32.846v22.806h-26.69l-73.484-40.826v40.826h-55.652v-48.573l-87.429 48.573h-12.745v-30.553l45.168-25.099h-45.168v-59.359h59.103l-59.103-32.834v-22.818h26.68l73.494 40.838v-40.838h55.652v48.573l87.43-48.573z" fill="#f0f0f0"/><path d="m144 85.33h-32v69.334h-112v32h112v69.334h32v-69.334h112v-32h-112z" fill="#d80027"/><path d="m155.826 200.344 100.174 55.654v-15.739l-71.847-39.915z" fill="#0052b4"/><path d="m155.826 200.344 100.174 55.654v-15.739l-71.847-39.915z" fill="#f0f0f0"/><path d="m155.826 200.344 100.174 55.654v-15.739l-71.847-39.915z" fill="#d80027"/><path d="m71.846 200.344-71.846 39.915v15.739l100.174-55.654z" fill="#d80027"/><path d="m100.174 140.983-100.174-55.653v15.738l71.847 39.915z" fill="#0052b4"/><path d="m100.174 140.983-100.174-55.653v15.738l71.847 39.915z" fill="#f0f0f0"/><path d="m100.174 140.983-100.174-55.653v15.738l71.847 39.915z" fill="#d80027"/><path d="m184.154 140.983 71.846-39.915v-15.738l-100.174 55.653z" fill="#d80027"/></svg>