<svg enable-background="new 0 0 512 512" viewBox="0 0 512 512" xmlns="http://www.w3.org/2000/svg"><path d="m0 85.337h512v341.326h-512z" fill="#f0f0f0"/><path d="m256 256v170.663h-256v-170.663h85.337z" fill="#0052b4"/><path d="m512 85.337v170.663h-85.337c-90.479 0-170.663 0-170.663 0s0-90.323 0-170.663z" fill="#d80027"/><path d="m128 123.034 11.824 36.389h38.263l-30.955 22.491 11.823 36.389-30.955-22.49-30.955 22.49 11.823-36.389-30.955-22.491h38.263z" fill="#0052b4"/><path d="m384 293.697 11.824 36.389h38.263l-30.955 22.491 11.823 36.389-30.955-22.49-30.955 22.49 11.823-36.389-30.955-22.491h38.263z" fill="#d80027"/></svg>