<svg enable-background="new 0 0 512 512" viewBox="0 0 512 512" xmlns="http://www.w3.org/2000/svg"><path d="m0 85.337h512v341.326h-512z" fill="#f0f0f0"/><path d="m0 85.337h512v113.775h-512z" fill="#d80027"/><path d="m0 312.888h512v113.775h-512z" fill="#d80027"/><path d="m293.991 256c0 20.982-17.01 33.243-37.992 33.243s-37.991-12.261-37.991-33.243 17.01-37.992 37.992-37.992 37.991 17.01 37.991 37.992z" fill="#ffda44"/><path d="m293.991 256c0 20.982-17.01 37.992-37.992 37.992s-37.992-17.01-37.992-37.992" fill="#0052b4"/><g fill="#d80027"><path d="m232.259 246.506h9.498v19h-9.498z"/><path d="m270.247 246.506h9.498v19h-9.498z"/><path d="m251.247 232.259h9.498v33.243h-9.498z"/></g></svg>