<svg enable-background="new 0 0 512 512" viewBox="0 0 512 512" xmlns="http://www.w3.org/2000/svg"><path d="m0 85.333h512v341.337h-512z"/><path d="m0 85.33h512v341.332" fill="#a2001d"/><g fill="#f0f0f0"><path d="m204.631 326.488 2.762 8.504h8.941l-7.233 5.255 2.763 8.502-7.233-5.254-7.233 5.254 2.762-8.502-7.233-5.255h8.94z"/><path d="m181.797 244.866 4.605 14.172h14.901l-12.056 8.757 4.605 14.172-12.055-8.759-12.055 8.759 4.606-14.172-12.056-8.757h14.901z"/><path d="m181.797 348.749 4.604 14.173h14.902l-12.057 8.757 4.606 14.173-12.055-8.759-12.055 8.759 4.604-14.173-12.054-8.757h14.899z"/><path d="m225.363 281.967 4.606 14.172h14.901l-12.056 8.758 4.605 14.172-12.056-8.759-12.054 8.759 4.606-14.172-12.056-8.758h14.901z"/><path d="m138.23 281.967 4.606 14.172h14.899l-12.054 8.758 4.603 14.172-12.054-8.759-12.055 8.759 4.605-14.172-12.055-8.758h14.9z"/></g><path d="m376.526 204.163c-7.628-7.628-17.538-12.133-28.189-12.908l31.88-24.795c-12.698-12.698-29.714-18.431-46.319-17.218-1.988-7.145-5.778-13.892-11.396-19.511l-12.593 25.186c-.826-1.506-1.872-2.923-3.148-4.197-7.245-7.245-18.991-7.244-26.234 0s-7.245 18.99 0 26.234c1.276 1.276 2.692 2.322 4.197 3.148l-25.186 12.593c5.62 5.62 12.371 9.412 19.519 11.399-1.217 16.606 4.511 33.619 17.209 46.317l27.854-35.811c2.096-2.064 4.862-3.202 7.807-3.202 2.973 0 5.768 1.158 7.87 3.26 2.103 2.103 3.26 4.897 3.26 7.87 0 2.974-1.158 5.768-3.26 7.87l10.494 10.494c4.905-4.905 7.607-11.428 7.607-18.364 0-5.675-1.81-11.071-5.153-15.534 4.871 1.3 9.474 3.849 13.288 7.662 11.573 11.572 11.573 30.403 0 41.975l10.494 10.494c8.409-8.409 13.039-19.59 13.039-31.481-.001-11.892-4.632-23.072-13.04-31.481z" fill="#ffda44"/></svg>