<svg enable-background="new 0 0 512 512" viewBox="0 0 512 512" xmlns="http://www.w3.org/2000/svg"><path d="m0 85.337h512v341.326h-512z" fill="#f0f0f0"/><path d="m512 85.337v170.663h-256l-256-170.663z" fill="#0052b4"/><path d="m512 256v170.663h-512l256-170.663z" fill="#d80027"/><g fill="#ffda44"><path d="m161.908 256-27.288-12.835 14.532-26.428-29.632 5.668-3.755-29.933-20.64 22.015-20.639-22.015-3.755 29.933-29.631-5.669 14.531 26.428-27.288 12.836 27.288 12.835-14.531 26.428 29.633-5.668 3.753 29.933 20.639-22.015 20.64 22.015 3.755-29.933 29.631 5.669-14.532-26.427z"/><path d="m21.789 117.607 9.081 12.696 14.879-4.714-9.268 12.56 9.081 12.694-14.809-4.932-9.268 12.559.117-15.608-14.809-4.934 14.88-4.712z"/><path d="m21.789 353.53 9.081 12.696 14.879-4.714-9.268 12.56 9.081 12.695-14.809-4.933-9.268 12.558.117-15.607-14.809-4.934 14.88-4.712z"/><path d="m210.395 235.569-9.081 12.695-14.879-4.713 9.268 12.559-9.081 12.696 14.809-4.933 9.268 12.558-.117-15.607 14.809-4.934-14.88-4.713z"/></g></svg>