<svg enable-background="new 0 0 512 512" viewBox="0 0 512 512" xmlns="http://www.w3.org/2000/svg"><path d="m0 85.333h512v341.337h-512z" fill="#0052b4"/><path d="m400.696 219.822-16.696 5.565-16.696-5.565-5.565-13.913 5.565-13.913h33.392l-5.566 13.913z" fill="#acabb1"/><path d="m345.043 219.822v61.217c0 29.821 38.957 38.957 38.957 38.957s38.957-9.137 38.957-38.957v-61.217z" fill="#338af3"/><path d="m348.555 295.541c9.576 18.386 35.445 24.455 35.445 24.455s25.869-6.069 35.445-24.455l-35.445-59.023z" fill="#6da544"/><path d="m422.957 280.421-38.957-60.599-38.957 60.599v.618c0 5.518 1.337 10.328 3.512 14.503l35.445-55.137 35.445 55.137c2.175-4.175 3.512-8.983 3.512-14.503z" fill="#ffda44"/><path d="m256 85.333v30.553l-45.167 25.099h45.167v59.359h-59.103l59.103 32.835v22.817h-26.68l-73.494-40.826v40.826h-55.652v-48.573l-87.43 48.573h-12.744v-30.554l45.167-25.098h-45.167v-59.359h59.103l-59.103-32.846v-22.806h26.68l73.494 40.825v-40.825h55.652v48.572l87.43-48.572z" fill="#f0f0f0"/><path d="m144 85.33h-32v69.332h-112v32h112v69.334h32v-69.334h112v-32h-112z" fill="#d80027"/><path d="m155.826 200.344 100.174 55.652v-15.737l-71.847-39.915z" fill="#0052b4"/><path d="m155.826 200.344 100.174 55.652v-15.737l-71.847-39.915z" fill="#f0f0f0"/><path d="m155.826 200.344 100.174 55.652v-15.737l-71.847-39.915z" fill="#d80027"/><path d="m71.846 200.344-71.846 39.915v15.737l100.174-55.652z" fill="#d80027"/><path d="m100.174 140.982-100.174-55.652v15.737l71.847 39.915z" fill="#0052b4"/><path d="m100.174 140.982-100.174-55.652v15.737l71.847 39.915z" fill="#f0f0f0"/><g fill="#d80027"><path d="m100.174 140.982-100.174-55.652v15.737l71.847 39.915z"/><path d="m184.154 140.982 71.846-39.915v-15.737l-100.174 55.652z"/></g></svg>