<svg enable-background="new 0 0 512 512" viewBox="0 0 512 512" xmlns="http://www.w3.org/2000/svg"><path d="m0 85.337h512v341.326h-512z" fill="#f0f0f0"/><path d="m0 85.337h512v113.775h-512z" fill="#d80027"/><path d="m0 312.888h512v113.775h-512z" fill="#0052b4"/><path d="m289.579 216.738-12.592 12.592c5.37 5.372 8.693 12.792 8.693 20.988 0 16.392-13.289 29.68-29.68 29.68-16.392 0-29.68-13.289-29.68-29.68 0-8.195 3.322-15.616 8.693-20.988l-12.592-12.592c-8.594 8.594-13.91 20.466-13.91 33.579 0 26.228 21.261 47.489 47.489 47.489s47.489-21.261 47.489-47.489c0-13.112-5.316-24.985-13.91-33.579z" fill="#6da544"/><path d="m256 232.51 4.421 13.605h14.304l-11.573 8.408 4.421 13.604-11.573-8.408-11.573 8.408 4.421-13.604-11.573-8.408h14.304z" fill="#ffda44"/></svg>