<svg enable-background="new 0 0 512 512" viewBox="0 0 512 512" xmlns="http://www.w3.org/2000/svg"><path d="m0 85.331h512v341.337h-512z" fill="#0052b4"/><path d="m0 85.331h512v113.775h-512z" fill="#d80027"/><path d="m0 312.882h512v113.775h-512z" fill="#f0f0f0"/><path d="m129.468 181.793v85.136c0 48.429 63.267 63.267 63.267 63.267s63.265-14.84 63.265-63.267v-85.136z" fill="#d80027"/><path d="m155.634 196.634h74.201v-29.681l-14.841 7.42-22.261-22.26-22.259 22.26-14.84-7.42z" fill="#ffda44"/><path d="m241.16 278.782-48.231-48.231-48.231 48.231 15.741 15.74 32.49-32.49 32.49 32.49z" fill="#ffda44"/><path d="m241.16 233.734h-22.504c1.266-2.184 2.001-4.713 2.001-7.418 0-8.196-6.645-14.84-14.84-14.84-5.663 0-10.581 3.172-13.083 7.836-2.502-4.663-7.421-7.836-13.083-7.836-8.195 0-14.84 6.644-14.84 14.84 0 2.706.736 5.235 2.001 7.418h-22.114c0 8.196 7.139 14.84 15.334 14.84h-.494c0 8.196 6.644 14.84 14.84 14.84 0 7.257 5.211 13.286 12.094 14.576l-11.694 26.401c5.603 2.278 11.727 3.544 18.149 3.544s12.545-1.266 18.149-3.544l-11.694-26.401c6.883-1.29 12.094-7.319 12.094-14.576 8.196 0 14.84-6.644 14.84-14.84h-.494c8.199 0 15.338-6.644 15.338-14.84z" fill="#f0f0f0"/></svg>