<svg enable-background="new 0 0 512 512" viewBox="0 0 512 512" xmlns="http://www.w3.org/2000/svg"><path d="m0 85.334h512v341.337h-512z" fill="#496e2d"/><path d="m0 426.663v-341.334h512" fill="#0052b4"/><path d="m0 396.494v30.169h45.255l466.745-311.164v-30.17h-45.255z" fill="#ffda44"/><g fill="#f0f0f0"><path d="m85.688 108.787 5.12 15.756h16.566l-13.403 9.737 5.12 15.757-13.403-9.738-13.405 9.738 5.12-15.757-13.403-9.737h16.567z"/><path d="m170.312 108.787 5.121 15.756h16.567l-13.403 9.737 5.12 15.757-13.405-9.738-13.403 9.738 5.12-15.757-13.403-9.737h16.566z"/><path d="m85.688 191.289 5.12 15.756h16.566l-13.403 9.738 5.12 15.757-13.403-9.739-13.405 9.739 5.12-15.757-13.403-9.738h16.567z"/><path d="m170.312 191.289 5.121 15.756h16.567l-13.403 9.738 5.12 15.757-13.405-9.739-13.403 9.739 5.12-15.757-13.403-9.738h16.566z"/><path d="m128 150.037 5.12 15.756h16.568l-13.405 9.738 5.12 15.758-13.403-9.739-13.403 9.739 5.12-15.758-13.405-9.738h16.568z"/></g></svg>