<svg enable-background="new 0 0 512 512" viewBox="0 0 512 512" xmlns="http://www.w3.org/2000/svg"><path d="m0 85.337h512v341.326h-512z" fill="#f0f0f0"/><path d="m0 85.337h512v170.663h-512z" fill="#d80027"/><g fill="#f0f0f0"><path d="m83.478 170.666c0-24.865 17.476-45.637 40.812-50.734-3.587-.784-7.308-1.208-11.13-1.208-28.688 0-51.942 23.254-51.942 51.941s23.255 51.942 51.942 51.942c3.822 0 7.543-.425 11.13-1.208-23.336-5.095-40.812-25.867-40.812-50.733z"/><path d="m150.261 122.435 3.684 11.337h11.921l-9.645 7.007 3.684 11.337-9.644-7.006-9.645 7.006 3.685-11.337-9.645-7.007h11.921z"/><path d="m121.344 144.696 3.683 11.337h11.921l-9.645 7.007 3.684 11.337-9.643-7.006-9.645 7.006 3.685-11.337-9.645-7.007h11.921z"/><path d="m179.178 144.696 3.684 11.337h11.921l-9.645 7.007 3.684 11.337-9.644-7.006-9.644 7.006 3.685-11.337-9.645-7.007h11.921z"/><path d="m168.047 178.087 3.684 11.337h11.921l-9.644 7.007 3.684 11.337-9.645-7.006-9.643 7.006 3.684-11.337-9.644-7.007h11.92z"/><path d="m132.474 178.087 3.683 11.337h11.921l-9.644 7.007 3.684 11.337-9.644-7.006-9.644 7.006 3.684-11.337-9.644-7.007h11.92z"/></g></svg>