<svg enable-background="new 0 0 512 512" viewBox="0 0 512 512" xmlns="http://www.w3.org/2000/svg"><path d="m0 85.337h512v341.326h-512z" fill="#f0f0f0"/><path d="m0 199.112h512v113.775h-512z" fill="#0052b4"/><path d="m0 312.888h512v113.775h-512z" fill="#d80027"/><path d="m233.606 196.639v14.837c0 34.081-44.522 44.522-44.522 44.522s-44.522-10.44-44.522-44.522v-14.837l-.145-44.188 89.043-.266z" fill="#f0f0f0"/><path d="m233.606 196.639v14.837c0 34.081-44.522 44.522-44.522 44.522s-44.522-10.44-44.522-44.522v-14.837l-.145-44.188 89.043-.266z" fill="#0052b4"/><path d="m233.606 196.639v14.837c0 34.081-44.522 44.522-44.522 44.522s-44.522-10.44-44.522-44.522v-14.837l14.848 14.837 29.674-22.261 29.685 22.261z" fill="#f0f0f0"/></svg>