<svg enable-background="new 0 0 512 512" viewBox="0 0 512 512" xmlns="http://www.w3.org/2000/svg"><path d="m0 85.337h512v341.326h-512z" fill="#f0f0f0"/><path d="m0 196.641h512v118.717h-512z" fill="#0052b4"/><path d="m0 315.359h512v111.304h-512z" fill="#d80027"/><path d="m129.468 181.799v85.136c0 48.429 63.267 63.267 63.267 63.267s63.265-14.84 63.265-63.267v-85.136z" fill="#f0f0f0"/><path d="m146.126 184.294v81.941c0 5.472 1.215 10.64 3.623 15.485h85.97c2.408-4.844 3.623-10.012 3.623-15.485v-81.941z" fill="#d80027"/><path d="m221.301 241.427h-21.425v-14.283h14.284v-14.283h-14.284v-14.284h-14.283v14.284h-14.282v14.283h14.282v14.283h-21.426v14.284h21.426v14.283h14.283v-14.283h21.425z" fill="#f0f0f0"/><path d="m169.232 301.658c9.204 5.783 18.66 9.143 23.502 10.636 4.842-1.494 14.298-4.852 23.502-10.636 9.282-5.833 15.79-12.506 19.484-19.939-4.075-2.883-9.047-4.583-14.418-4.583-1.956 0-3.856.232-5.682.657-3.871-8.796-12.658-14.94-22.884-14.94-10.227 0-19.013 6.144-22.884 14.94-1.827-.425-3.728-.657-5.682-.657-5.372 0-10.344 1.701-14.418 4.583 3.691 7.433 10.198 14.106 19.48 19.939z" fill="#0052b4"/></svg>