<svg enable-background="new 0 0 512 512" viewBox="0 0 512 512" xmlns="http://www.w3.org/2000/svg"><path d="m0 85.34h512v341.326h-512z" fill="#338af3"/><path d="m512 85.334v166.69l-512 4.151v-170.841z" fill="#f0f0f0"/><path d="m323.744 203.099-67.744 67.744-67.744-67.744c-8.76 13.005-13.879 28.658-13.879 45.483v22.261c0 35.744 23.097 66.193 55.148 77.213-4.277 8.385-3.556 18.848 2.712 26.671 8.326-6.673 16.945-13.58 24.258-19.439 7.313 5.859 15.932 12.767 24.258 19.439 6.342-7.915 7.011-18.534 2.564-26.968 31.614-11.261 54.308-41.485 54.308-76.916v-22.261c-.002-16.826-5.121-32.477-13.881-45.483z" fill="#6da544"/><path d="m256 330.206c-32.732 0-59.362-26.63-59.362-59.362v-22.261c0-32.733 26.63-59.363 59.362-59.363s59.362 26.63 59.362 59.362v22.261c0 32.733-26.63 59.363-59.362 59.363z" fill="#ffda44"/><path d="m293.101 270.843v-22.261c0-20.458-16.643-37.101-37.101-37.101s-37.101 16.643-37.101 37.101v22.261l37.101 7.421z" fill="#338af3"/><path d="m218.899 270.843c0 20.458 16.643 37.101 37.101 37.101s37.101-16.643 37.101-37.101z" fill="#6da544"/><path d="m300.522 189.22c0-12.295-9.966-22.261-22.261-22.261-5.703 0-10.901 2.146-14.84 5.672v-13.093h7.421v-14.84h-7.421v-7.421h-14.84v7.421h-7.421v14.84h7.421v13.093c-3.94-3.526-9.138-5.672-14.841-5.672-12.295 0-22.261 9.966-22.261 22.261 0 6.591 2.867 12.512 7.421 16.589v13.093h74.203v-13.093c4.552-4.077 7.419-9.997 7.419-16.589z" fill="#ffda44"/></svg>