<svg enable-background="new 0 0 512 512" viewBox="0 0 512 512" xmlns="http://www.w3.org/2000/svg"><path d="m0 85.337h512v341.326h-512z" fill="#0052b4"/><path d="m512 85.331v166.69l-512 4.152v-170.842z" fill="#d80027"/><path d="m256 256.006-256 170.662v-341.337z" fill="#f0f0f0"/><path d="m59.621 256c-.116 1.509-.193 3.031-.193 4.57 0 32.821 26.607 59.429 59.429 59.429s59.429-26.607 59.429-59.429c0-1.539-.078-3.061-.193-4.57z" fill="#ffda44"/><circle cx="118.862" cy="210.287" fill="#ffda44" r="18.286"/><path d="m77.715 205.714v59.429c0 31.494 41.144 41.143 41.144 41.143s41.144-9.649 41.144-41.143v-59.429z" fill="#d80027"/><path d="m118.877 287.148c-7.632-2.746-22.876-9.767-22.876-22.006v-41.144h45.715v41.144c-.001 12.28-15.244 19.283-22.839 22.006z" fill="#338af3"/><path d="m128.001 246.856v-9.142l-9.144-4.571-9.142 4.571v9.142l-4.571 4.573v18.285h27.428v-18.285z" fill="#f3f3f3"/></svg>