<svg fill="none" height="512" viewBox="0 0 512 512" width="512" xmlns="http://www.w3.org/2000/svg" xmlns:xlink="http://www.w3.org/1999/xlink"><clipPath id="a"><path d="m0 85h512v341.33h-512z"/></clipPath><g clip-path="url(#a)"><path d="m0 85h512v341.33h-512z" fill="#3e5eb9"/><path d="m0 149h512v213.331h-512z" fill="#ffd900"/><path d="m0 170.333h512v170.665h-512z" fill="#b10c0c"/><path d="m420.565 216.651-20.723 7.314 20.723 7.314 20.723-7.314z" fill="#fff" stroke="#000" stroke-width="1.512"/><path d="m406.932 221.532h-299.45c-1.463 0-2.65 1.091-2.65 2.438 0 1.346 1.187 2.438 2.65 2.438h299.45c1.464 0 2.651-1.092 2.651-2.438 0-1.347-1.187-2.438-2.651-2.438z" fill="#ffd900" stroke="#000" stroke-width="1.512"/><path d="m402.295 226.404c1.218 0 2.44-1.219 2.44-2.438 0-1.218-1.221-2.438-2.439-2.438zm-2.44 0c1.218 0 2.44-1.219 2.44-2.438 0-1.218-1.222-2.438-2.439-2.438zm-2.441 0c1.218 0 2.44-1.219 2.44-2.438 0-1.218-1.221-2.438-2.439-2.438" fill="#ffd900"/><g stroke="#000"><path d="m397.414 226.404c1.218 0 2.44-1.219 2.44-2.438 0-1.218-1.221-2.438-2.439-2.438m4.88 4.876c1.218 0 2.44-1.219 2.44-2.438 0-1.218-1.221-2.438-2.439-2.438zm-2.44 0c1.218 0 2.44-1.219 2.44-2.438 0-1.218-1.222-2.438-2.439-2.438z" stroke-width="1.512"/><path d="m461.899 252.013h-407.255c-1.9907 0-3.6044 1.637-3.6044 3.657 0 2.019 1.6137 3.657 3.6044 3.657h407.255c1.991 0 3.605-1.638 3.605-3.657 0-2.02-1.614-3.657-3.605-3.657z" fill="#ffd900" stroke-width="1.62"/><path d="m377.899 255.665c-24.381 24.378-56.89 73.139-121.908 73.139-56.89 0-97.519-48.76-121.907-73.139 24.381-24.383 65.014-73.144 121.907-73.144 65.014 0 97.519 48.761 121.908 73.144z" fill="#fff" stroke-width="1.512"/></g><path d="m247.484 207.964c6.486 7.295 1.07 10.237 7.936 10.715 7.24.532 3.135 7.709 9.226 7.959 4.258.186-.425 17.195 3.673 22.808 4.176 5.852 7.673 1.715 7.746 5.942.073 4.372-11.364 3.931-11.564 17.399-.336 7.762-9.651 8.258-10.096 13.253-.553 4.697 18.353 7.334 18.1 11.539-.259 4.193-20.413 3.537-21.29 8.318-.45 4.295 27.687 7.815 29.95 20.235-4.199 1.373-16.145 2.665-25.173 2.672-56.88.041-97.519-48.764-121.899-73.143 24.381-24.383 65.014-73.144 121.908-73.144 0 0-16.887 15.43-8.509 25.442z" fill="#000"/><path d="m182.556 249.16v-19.504zm11.819-19.504v19.504zm11.827 0v19.504z" fill="#000"/><path d="m206.202 229.656v19.504m-23.646 0v-19.504zm11.819-19.504v19.504z" stroke="#fff" stroke-width="10.3905"/><path d="m436.352 252.764c-3.693 6.396 2.834-2.128 18.761 8.581 2.951 1.989 5.53 7.244 5.53 10.888-.749-.502-1.306-1.617-2.131-2.341-1.155 1.157 1.103 6.466 1.434 8.974-2.49-1.393-2.251-2.053-3.078-3.766.165 2.07-.427 7.771.563 9.967-1.962-.561-1.831-2.14-2.856-2.457.697 2.484-.607 5.189-.262 7.983-1.146-1.135-2.368-2.024-2.901-2.483-.089 1.33-2.206 4.826-2.253 6.084-.973-.587-1.238-1.504-1.4-2.121-1.209 1.519-5.507 7.132-5.783 8.844-3.312-2.925-11.795-10.048-12.9-13.829-.976 2.146-2.389 2.87-5.182 4.437-1.103-5.992-5.231-12.727-3.023-17.863-1.565.927-2.852 1.855-4.415 2.996 1.481-8.678 9.034-18.855 19.899-23.894z" fill="#3d5da7" stroke="#000" stroke-width="1.2825"/><path d="m422.579 284.439c1.533-3.065 2.946-4.037 3.937-6.011 1.75-3.469 1.999-6.229 3.525-5.824 1.524.404 1.523 1.825-.453 5.236-1.975 3.411-2.915 4.14-7.009 6.599zm10.368 7.304c-.197-2.334.48-3.308.357-4.811-.211-2.645-1.292-4.459.114-4.588s2.064.773 2.067 3.438c.005 2.665-.407 3.365-2.537 5.962zm7.868 4.574c-.615-3.258-.154-4.703-.548-6.802-.684-3.693-2.038-6.124-.736-6.462 1.303-.338 2.091.857 2.583 4.602.494 3.745.233 4.774-1.299 8.662zm8.183-22.826c-1.921-1.459-3.043-1.557-4.282-2.494-2.183-1.644-3.287-3.405-3.989-2.531s-.204 1.83 2.083 3.347 3.062 1.637 6.189 1.678zm-1.356 10.811c-1.013-2.103-2.079-2.636-2.735-3.99-1.157-2.378-1.159-4.435-2.415-3.908s-1.357 1.604-.014 3.906 2.047 2.719 5.164 3.992z" fill="#a70000"/><path d="m68.9345 258.924c-.2065-1.862.1923-2.085-.954-3.49 1.6685.698 1.7317 2.553 3.7603 1.237.7447-.386 1.0695-.398.1644-2.467 2.1152.098 9.042 2.473 10.1513 2.528 2.9127.134 8.2295-3.06 11.9199.867 3.5425 3.581 2.3598 7.297 2.3598 12.256-1.4234-.682-.7373-1.019-2.2477-2.792 1.1321 4.335-.0603 12.149-.0603 16.746-.5814-1.108-.4961-.628-1.0644-1.775-1.5104 4.195-3.3206 5.059-3.3206 10.018-.545-1.944-.0188-1.534-.6252-2.557-1.4678 3.186-11.3152 5.908-7.5207 9.119-3.4247-2.008-4.9266-1.797-6.4797-3.603-.6696.432-1.2009 1.249-1.8233 2.369-6.0217-2.77-3.8684-8.746-8.5862-12.738-.8164 1.673-.4443 1.431-1.3267 4.155-.9551-3.784-1.2162-6.188-2.2903-8.97-.9267 1.542-.8442.951-2.527 3.282-.6963-4.61-1.8295-5.697-1.3813-8.747-1.7886 1.262-.6178.751-2.4058 2.304 1.6942-11.81 9.0095-20.537 14.2592-17.742z" fill="#3d5da7" stroke="#000" stroke-width="1.6005"/><path d="m61.5259 278.201c1.5519-3.802 2.9502-4.996 3.9532-7.444 1.7704-4.303 2.0588-7.743 3.5459-7.218 1.4876.525 1.4637 2.297-.5263 6.524-1.9899 4.228-2.9212 5.124-6.9728 8.137zm5.8743 9.515c.6224-3.409 1.6037-4.651 2.0071-6.846.7162-3.86.3168-6.736 1.6992-6.584s1.6948 1.609.7749 5.449c-.9199 3.841-1.5548 4.75-4.4817 7.981zm7.0264 6.613c.1752-3.305.95-4.595 1.0661-6.724.2099-3.744-.5109-6.424.8072-6.44 1.3181-.015 1.788 1.331 1.3841 5.08s-.8914 4.684-3.2574 8.084zm15.088-21.615c-2.8848-2.874-4.629-3.411-6.4904-5.259-3.2785-3.246-4.8623-6.294-6.0297-5.214-1.1673 1.081-.4647 2.7 2.9867 5.789 3.452 3.089 4.6524 3.54 9.5334 4.684zm-1.7578 11.111c-1.8791-2.886-3.2581-3.634-4.4715-5.491-2.139-3.263-2.8752-6.067-4.0875-5.372-1.2134.695-.942 2.159 1.3768 5.323 2.3182 3.162 3.2506 3.744 7.1822 5.541z" fill="#a70000"/><path d="m216.576 195.505c-3.378 6.532 5.913-2.172 20.478 8.763 2.7 2.032 6.569 10.058 6.569 13.779-3.101-.66-8.593-3.721-8.593-3.721s6.444 6.455 6.444 13.896c-2.276-1.423-3.415-1.21-4.172-2.958 0 2.409 2.025 3.944 2.025 7.665-1.385-1.113-2.867-2.101-4.426-2.953 2.148 3.721-3.914 10.938-.88 13.347-5.306-.767-10.735-4.157-12.883-7.877-1.139.766-1.262 1.971-1.306 3.255.167.14-8.077-6.119-7.32-8.523-1.106 1.552-1.261 2.404-1.514 4.153-3.028-2.987-5.804-5.973-6.814-9.835-1.346 1.748-1.43 1.748-2.776 3.497-1.01-6.119-1.01-5.901 1.009-11.145-1.43.947-2.607 1.894-4.038 3.06 1.354-8.862 8.262-19.254 18.198-24.4z" fill="#3d5da7" stroke="#000" stroke-width="1.239"/><path d="m208.247 227.419c.541-4.501 1.717-6.196 2.069-9.095.627-5.098-.117-8.824 1.689-8.729 1.807.094 2.327 1.974 1.434 7.062-.893 5.086-1.646 6.322-5.192 10.763zm9.43 8.244c-.366-3.798.335-5.414.102-7.861-.401-4.304-1.731-7.22-.156-7.488 1.574-.268 2.371 1.176 2.54 5.522.17 4.346-.251 5.504-2.487 9.827zm14.72 6.724c-1.601-3.287-2.977-4.266-4.01-6.381-1.825-3.717-2.207-6.753-3.615-6.203s-1.33 2.12.704 5.759c2.033 3.638 2.952 4.381 6.921 6.825zm5.094-29.431c-4.077-2.147-6.171-2.174-8.798-3.553-4.627-2.418-7.32-5.15-8.276-3.646-.957 1.504.32 2.999 5.09 5.197s6.235 2.302 11.985 2.002zm1.493 12.296c-2.968-2.469-4.724-2.833-6.639-4.422-3.373-2.787-5.051-5.526-6.178-4.416s-.374 2.576 3.166 5.203c3.541 2.626 4.752 2.952 9.651 3.635z" fill="#a70000"/></g></svg>