<svg enable-background="new 0 0 512 512" viewBox="0 0 512 512" xmlns="http://www.w3.org/2000/svg"><path d="m0 85.333h512v341.337h-512z" fill="#0052b4"/><path d="m332.058 191.996v78.221c0 38.103 51.942 49.779 51.942 49.779s51.942-11.675 51.942-49.779v-78.221z" fill="#ffda44"/><path d="m376.579 220.44c0 7.855-6.644 28.445-14.84 28.445s-14.84-20.589-14.84-28.445 14.84-14.222 14.84-14.222 14.84 6.367 14.84 14.222z" fill="#ff9811"/><path d="m415.961 235.93c2.394-5.6 4.257-13.785 4.257-17.86 0-6.546-8.904-11.852-8.904-11.852s-8.904 5.306-8.904 11.852c0 4.075 1.862 12.26 4.257 17.86l-5.141 11.123c3.022 1.178 6.324 1.831 9.788 1.831 3.463 0 6.766-.654 9.788-1.831z" fill="#a2001d"/><path d="m372.87 270.217s-7.421 14.222-7.421 28.445h37.101c0-14.222-7.421-28.445-7.421-28.445l-11.13-7.111z" fill="#6da544"/><path d="m395.13 270.217v-3.555c0-5.891-4.983-10.666-11.13-10.666s-11.13 4.776-11.13 10.666v3.555z" fill="#d80027"/><path d="m256 85.333v30.553l-45.167 25.099h45.167v59.359h-59.103l59.103 32.835v22.817h-26.68l-73.494-40.826v40.826h-55.652v-48.573l-87.43 48.573h-12.744v-30.554l45.167-25.098h-45.167v-59.359h59.103l-59.103-32.846v-22.806h26.68l73.494 40.825v-40.825h55.652v48.572l87.43-48.572z" fill="#f0f0f0"/><path d="m144 85.33h-32v69.332h-112v32h112v69.334h32v-69.334h112v-32h-112z" fill="#d80027"/><path d="m155.826 200.344 100.174 55.652v-15.737l-71.847-39.915z" fill="#0052b4"/><path d="m155.826 200.344 100.174 55.652v-15.737l-71.847-39.915z" fill="#f0f0f0"/><path d="m155.826 200.344 100.174 55.652v-15.737l-71.847-39.915z" fill="#d80027"/><path d="m71.846 200.344-71.846 39.915v15.737l100.174-55.652z" fill="#d80027"/><path d="m100.174 140.982-100.174-55.652v15.737l71.847 39.915z" fill="#0052b4"/><path d="m100.174 140.982-100.174-55.652v15.737l71.847 39.915z" fill="#f0f0f0"/><g fill="#d80027"><path d="m100.174 140.982-100.174-55.652v15.737l71.847 39.915z"/><path d="m184.154 140.982 71.846-39.915v-15.737l-100.174 55.652z"/></g></svg>