<svg enable-background="new 0 0 512 512" viewBox="0 0 512 512" xmlns="http://www.w3.org/2000/svg"><path d="m0 85.337h512v341.326h-512z" fill="#f0f0f0"/><path d="m0 85.337h512v113.775h-512z" fill="#d80027"/><path d="m0 312.888h512v113.775h-512z" fill="#6da544"/><g fill="#ffda44"><path d="m226.318 300.522h59.364v-25.23l-11.873 5.937-17.809-17.808-17.809 17.808-11.873-5.937z"/><path d="m192.355 270.84 2.763 8.504h8.94l-7.233 5.255 2.763 8.502-7.233-5.255-7.234 5.255 2.763-8.502-7.233-5.255h8.94z"/><path d="m200.921 241.16 2.763 8.502h8.94l-7.233 5.255 2.763 8.504-7.233-5.256-7.234 5.256 2.763-8.504-7.233-5.255h8.94z"/><path d="m225.409 218.899 2.763 8.502h8.94l-7.233 5.255 2.763 8.504-7.233-5.256-7.234 5.256 2.763-8.504-7.233-5.255h8.94z"/><path d="m319.645 270.84-2.763 8.504h-8.94l7.233 5.255-2.763 8.502 7.233-5.255 7.234 5.255-2.763-8.502 7.233-5.255h-8.94z"/><path d="m311.079 241.16-2.763 8.502h-8.94l7.233 5.255-2.763 8.504 7.233-5.256 7.234 5.256-2.763-8.504 7.233-5.255h-8.94z"/><path d="m286.591 218.899-2.763 8.502h-8.94l7.233 5.255-2.763 8.504 7.233-5.256 7.234 5.256-2.763-8.504 7.233-5.255h-8.94z"/><path d="m256 207.767 2.763 8.503h8.941l-7.234 5.256 2.763 8.502-7.233-5.254-7.233 5.254 2.763-8.502-7.234-5.256h8.941z"/></g></svg>