<svg enable-background="new 0 0 512 512" viewBox="0 0 512 512" xmlns="http://www.w3.org/2000/svg"><path d="m0 85.337h512v341.326h-512z" fill="#0052b4"/><g fill="#f0f0f0"><path d="m210.715 174.377 3.684 11.338h11.919l-9.643 7.006 3.684 11.337-9.644-7.007-9.644 7.007 3.684-11.337-9.645-7.006h11.921z"/><path d="m116.816 281.971 4.605 14.172h14.9l-12.055 8.757 4.606 14.173-12.056-8.76-12.055 8.76 4.604-14.173-12.054-8.757h14.899z"/><path d="m144.696 119.679 4.604 14.172h14.901l-12.056 8.758 4.606 14.171-12.055-8.759-12.056 8.759 4.606-14.171-12.055-8.758h14.9z"/><path d="m69.539 175.331 4.604 14.172h14.9l-12.055 8.758 4.606 14.171-12.055-8.758-12.056 8.758 4.606-14.171-12.055-8.758h14.9z"/></g><path d="m483.386 354.503h-365.585s109.234-88.562 310.593-220.938c.001 0-88.443 128.935 54.992 220.938z" fill="#ffda44"/><path d="m117.801 366.089c-11.177 0-11.195 17.37 0 17.37h365.585c11.177 0 11.195-17.37 0-17.37z" fill="#ffda44"/></svg>