<svg enable-background="new 0 0 512 512" viewBox="0 0 512 512" xmlns="http://www.w3.org/2000/svg"><path d="m0 85.337h512v341.326h-512z" fill="#d80027"/><path d="m0 85.337h256v170.663h-256z" fill="#0052b4"/><path d="m186.435 170.669-23.877 11.231 12.714 23.125-25.927-4.961-3.286 26.192-18.059-19.263-18.06 19.263-3.285-26.192-25.927 4.96 12.714-23.125-23.877-11.23 23.877-11.231-12.714-23.125 25.927 4.96 3.286-26.192 18.059 19.263 18.06-19.263 3.285 26.192 25.928-4.96-12.715 23.125z" fill="#f0f0f0"/><circle cx="128" cy="170.674" fill="#0052b4" r="29.006"/><path d="m128 190.06c-10.692 0-19.391-8.7-19.391-19.391 0-10.692 8.7-19.391 19.391-19.391 10.692 0 19.391 8.7 19.391 19.391s-8.699 19.391-19.391 19.391z" fill="#f0f0f0"/></svg>