<svg enable-background="new 0 0 512 512" viewBox="0 0 512 512" xmlns="http://www.w3.org/2000/svg"><path d="m0 85.337h512v341.326h-512z"/><path d="m0 142.225h512v56.888h-512z" fill="#ffda44"/><path d="m0 199.112h512v56.888h-512z" fill="#d80027"/><path d="m0 312.888h512v56.888h-512z" fill="#ffda44"/><path d="m0 369.775h512v56.888h-512z" fill="#d80027"/><circle cx="256" cy="256" fill="#f0f0f0" r="56.954"/><path d="m276.863 258.903-20.863-9.041s4.881-16.201 5.141-17.31c.19-.81.292-1.655.292-2.523 0-3.074-1.245-5.857-3.26-7.87l5.247-5.247c-3.357-3.357-7.994-5.433-13.117-5.433s-9.76 2.076-13.117 5.433l5.247 5.247c-2.015 2.014-3.26 4.796-3.26 7.87 0 1.124.17 2.207.48 3.23l-7.9 7.9h14.357s-5.936 8.915-9.176 16.237.045 16.259 7.534 19.588l4.33 1.924 7.202 6.771v7.421l-7.421 7.421h14.84v-14.84l6.771-6.771h14.004c.068-.139.138-.275.201-.417 3.331-7.494-.042-16.262-7.532-19.59z"/></svg>