<svg enable-background="new 0 0 512 512" viewBox="0 0 512 512" xmlns="http://www.w3.org/2000/svg"><path d="m0 85.331h512v341.337h-512z" fill="#f0f0f0"/><path d="m0 127.994h512v42.663h-512z" fill="#d80027"/><path d="m0 213.331h512v42.663h-512z" fill="#d80027"/><path d="m0 298.657h512v42.663h-512z" fill="#d80027"/><path d="m0 383.994h512v42.663h-512z" fill="#d80027"/><path d="m0 85.331h256v183.797h-256z" fill="#2e52b2"/><g fill="#f0f0f0"><path d="m99.822 160.624-4.123 12.684h-13.336l10.791 7.835-4.123 12.683 10.791-7.835 10.784 7.835-4.122-12.683 10.791-7.835h-13.337z"/><path d="m103.938 219.08-4.116-12.683-4.123 12.683h-13.336l10.791 7.836-4.123 12.683 10.791-7.836 10.784 7.836-4.122-12.683 10.791-7.836z"/><path d="m47.577 219.08-4.117-12.683-4.123 12.683h-13.336l10.791 7.836-4.123 12.683 10.791-7.836 10.785 7.836-4.122-12.683 10.789-7.836z"/><path d="m43.46 160.624-4.123 12.684h-13.336l10.791 7.835-4.123 12.683 10.791-7.835 10.785 7.835-4.122-12.683 10.789-7.835h-13.335z"/><path d="m99.822 114.85-4.123 12.685h-13.336l10.791 7.836-4.123 12.683 10.791-7.836 10.784 7.836-4.122-12.683 10.791-7.836h-13.337z"/><path d="m43.46 114.85-4.123 12.685h-13.336l10.791 7.836-4.123 12.683 10.791-7.836 10.785 7.836-4.122-12.683 10.789-7.836h-13.335z"/><path d="m156.183 160.624-4.122 12.684h-13.336l10.79 7.835-4.121 12.683 10.789-7.835 10.786 7.835-4.123-12.683 10.791-7.835h-13.336z"/><path d="m160.301 219.08-4.118-12.683-4.122 12.683h-13.336l10.79 7.836-4.121 12.683 10.789-7.836 10.786 7.836-4.123-12.683 10.791-7.836z"/><path d="m216.663 219.08-4.117-12.683-4.123 12.683h-13.335l10.789 7.836-4.122 12.683 10.791-7.836 10.785 7.836-4.123-12.683 10.791-7.836z"/><path d="m212.546 160.624-4.123 12.684h-13.335l10.789 7.835-4.122 12.683 10.791-7.835 10.785 7.835-4.123-12.683 10.791-7.835h-13.336z"/><path d="m156.183 114.85-4.122 12.685h-13.336l10.79 7.836-4.121 12.683 10.789-7.836 10.786 7.836-4.123-12.683 10.791-7.836h-13.336z"/><path d="m212.546 114.85-4.123 12.685h-13.335l10.789 7.836-4.122 12.683 10.791-7.836 10.785 7.836-4.123-12.683 10.791-7.836h-13.336z"/></g></svg>