<svg enable-background="new 0 0 512 512" viewBox="0 0 512 512" xmlns="http://www.w3.org/2000/svg"><path d="m0 85.337h512v341.326h-512z" fill="#f0f0f0"/><g fill="#338af3"><path d="m0 85.337h512v48.762h-512z"/><path d="m0 182.862h512v48.762h-512z"/><path d="m0 280.387h512v48.762h-512z"/><path d="m0 377.9h512v48.762h-512z"/></g><path d="m0 85.337h256v195.05h-256z" fill="#f0f0f0"/><path d="m192 182.857-26.151 12.301 13.925 25.327-28.397-5.433-3.598 28.687-19.779-21.098-19.78 21.098-3.597-28.687-28.397 5.432 13.925-25.326-26.151-12.301 26.151-12.301-13.925-25.326 28.396 5.432 3.599-28.687 19.779 21.099 19.78-21.099 3.597 28.687 28.398-5.432-13.926 25.327z" fill="#ffda44"/></svg>