<svg enable-background="new 0 0 512 512" viewBox="0 0 512 512" xmlns="http://www.w3.org/2000/svg"><path d="m0 85.337h512v341.326h-512z" fill="#d80027"/><path d="m0 322.783h512v103.88h-512z" fill="#6da544"/><path d="m0 85.337h512v104.515h-512z" fill="#338af3"/><path d="m0 210.877h512v89.656h-512z" fill="#f0f0f0"/><path d="m0 85.337h512v104.515h-512z" fill="#338af3"/><g fill="#f0f0f0"><path d="m188.688 137.589c0-15.984 11.234-29.339 26.236-32.614-2.306-.503-4.698-.777-7.155-.777-18.442 0-33.391 14.949-33.391 33.391s14.949 33.391 33.391 33.391c2.458 0 4.85-.273 7.155-.777-15.002-3.275-26.236-16.63-26.236-32.614z"/><path d="m234.658 152.766 2.261 6.957h7.315l-5.918 4.301 2.261 6.956-5.919-4.3-5.918 4.3 2.261-6.956-5.918-4.301h7.315z"/><path d="m258.006 152.766 2.26 6.957h7.315l-5.918 4.301 2.261 6.956-5.918-4.3-5.918 4.3 2.26-6.956-5.917-4.301h7.314z"/><path d="m281.353 152.766 2.26 6.957h7.315l-5.917 4.301 2.26 6.956-5.918-4.3-5.918 4.3 2.26-6.956-5.918-4.301h7.315z"/><path d="m304.7 152.766 2.262 6.957h7.315l-5.919 4.301 2.261 6.956-5.919-4.3-5.918 4.3 2.262-6.956-5.919-4.301h7.314z"/><path d="m328.048 152.766 2.26 6.957h7.315l-5.918 4.301 2.261 6.956-5.918-4.3-5.918 4.3 2.26-6.956-5.917-4.301h7.314z"/><path d="m258.006 128.482 2.26 6.956h7.315l-5.918 4.3 2.261 6.957-5.918-4.299-5.918 4.299 2.26-6.957-5.917-4.3h7.314z"/><path d="m281.353 128.482 2.26 6.956h7.315l-5.917 4.3 2.26 6.957-5.918-4.299-5.918 4.299 2.26-6.957-5.918-4.3h7.315z"/><path d="m304.7 128.482 2.262 6.956h7.315l-5.919 4.3 2.261 6.957-5.919-4.299-5.918 4.299 2.262-6.957-5.919-4.3h7.314z"/><path d="m328.048 128.482 2.26 6.956h7.315l-5.918 4.3 2.261 6.957-5.918-4.299-5.918 4.299 2.26-6.957-5.917-4.3h7.314z"/><path d="m281.353 104.198 2.26 6.956h7.315l-5.917 4.3 2.26 6.957-5.918-4.3-5.918 4.3 2.26-6.957-5.918-4.3h7.315z"/><path d="m304.7 104.198 2.262 6.956h7.315l-5.919 4.3 2.261 6.957-5.919-4.3-5.918 4.3 2.262-6.957-5.919-4.3h7.314z"/><path d="m328.048 104.198 2.26 6.956h7.315l-5.918 4.3 2.261 6.957-5.918-4.3-5.918 4.3 2.26-6.957-5.917-4.3h7.314z"/></g></svg>