<svg enable-background="new 0 0 512 512" viewBox="0 0 512 512" xmlns="http://www.w3.org/2000/svg"><path d="m0 85.331h512v341.326h-512z" fill="#ffda44"/><path d="m256 85.331h256v341.337h-256z" fill="#f0f0f0"/><path d="m321.353 233.837 32.073 42.43c-5.053 7.651-5.026 17.961.817 25.692 7.414 9.807 21.374 11.748 31.182 4.335 9.807-7.414 11.748-21.374 4.334-31.182-5.843-7.731-15.756-10.568-24.495-7.795l-49.988-66.129-11.838 8.949-17.759 13.424 17.899 23.677zm46.175 48.78c3.27-2.472 7.923-1.824 10.395 1.445 2.471 3.269 1.824 7.923-1.445 10.395-3.269 2.47-7.923 1.824-10.394-1.446-2.471-3.268-1.825-7.923 1.444-10.394z" fill="#acabb1"/><path d="m376.367 247.24 17.899-23.677-17.759-13.424-11.838-8.949-49.988 66.129c-8.74-2.775-18.651.063-24.495 7.795-7.414 9.808-5.473 23.768 4.334 31.182 9.808 7.414 23.768 5.473 31.182-4.335 5.845-7.731 5.871-18.041.817-25.692l32.073-42.43zm-62.504 45.771c-2.471 3.27-7.125 3.916-10.394 1.446-3.27-2.472-3.916-7.126-1.445-10.395 2.471-3.268 7.125-3.916 10.395-1.445 3.268 2.471 3.915 7.126 1.444 10.394z" fill="#ffda44"/></svg>