<svg enable-background="new 0 0 512 512" viewBox="0 0 512 512" xmlns="http://www.w3.org/2000/svg"><path d="m0 85.334h512v341.337h-512z" fill="#0052b4"/><path d="m256 85.334v117.326h-46.069l46.069 30.72v22.617h-22.628l-73.372-48.919v48.919h-64v-48.919l-73.372 48.919h-22.628v-22.617l46.069-30.72h-46.069v-64h46.069l-46.069-30.709v-22.617h22.628l73.372 48.907v-48.907h64v48.907l73.372-48.907z" fill="#f0f0f0"/><path d="m144 85.33h-32v69.333h-112v32h112v69.334h32v-69.334h112v-32h-112z" fill="#d80027"/><path d="m0 85.329v15.083l57.377 38.251h22.623z" fill="#d80027"/><path d="m256 85.329v15.083l-57.377 38.251h-22.623z" fill="#d80027"/><path d="m256 107.951v30.712h-46.069z" fill="#2e52b2"/><path d="m0 85.329v15.083l57.377 38.251h22.623z" fill="#d80027"/><path d="m256 85.329v15.083l-57.377 38.251h-22.623z" fill="#d80027"/><path d="m256 107.951v30.712h-46.069z" fill="#2e52b2"/><path d="m0 255.997v-15.082l57.377-38.252h22.623z" fill="#d80027"/><path d="m256 255.997v-15.082l-57.377-38.252h-22.623z" fill="#d80027"/><path d="m384 259.706-46.129 46.129c8.645 16.675 26.051 28.074 46.129 28.074s37.484-11.4 46.129-28.074z" fill="#ffda44"/><path d="m332.058 178.084v81.623.001c.001 39.759 51.942 51.941 51.942 51.941s51.941-12.182 51.942-51.942v-.001-81.622z" fill="#6da544"/><path d="m372.87 215.181h22.261v59.359h-22.261z" fill="#f0f0f0"/><circle cx="384" cy="215.181" fill="#a2001d" r="11.13"/><g fill="#ffda44"><path d="m346.902 192.92h14.84v14.84h-14.84z"/><path d="m346.902 226.312h14.84v14.84h-14.84z"/><path d="m346.902 259.703h14.84v14.84h-14.84z"/><path d="m406.261 192.92h14.84v14.84h-14.84z"/><path d="m406.261 226.312h14.84v14.84h-14.84z"/><path d="m406.261 259.703h14.84v14.84h-14.84z"/></g></svg>