<svg enable-background="new 0 0 512 512" viewBox="0 0 512 512" xmlns="http://www.w3.org/2000/svg"><path d="m0 85.331h512v341.337h-512z" fill="#f0f0f0"/><path d="m284.986 204.557c0-16.008-12.977-28.986-28.986-28.986-16.008 0-28.986 12.978-28.986 28.986h-63.768c0 15.761 13.729 28.538 29.49 28.538h-.949c0 15.762 12.777 28.541 28.54 28.541 0 13.955 10.023 25.551 23.259 28.031l-.075.167h24.977l-.073-.167c13.237-2.48 23.26-14.076 23.26-28.031 15.763 0 28.54-12.778 28.54-28.541h-.951c15.761 0 29.49-12.778 29.49-28.538z" fill="#ffda44"/><path d="m243.258 286.877-17.972 40.575c9.483 3.856 19.847 5.997 30.714 5.997s21.232-2.142 30.713-5.997l-17.971-40.575z" fill="#ffda44"/><path d="m218.899 218.811v49.928c0 28.399 37.101 37.101 37.101 37.101s37.101-8.702 37.101-37.101v-49.928z" fill="#f0f0f0"/><path d="m126.719 257.195 20.066 56.123 19.857-56.123h15.154l-28.95 74.203h-12.123l-29.158-74.203z" fill="#338af3"/><path d="m359.884 331.399v-74.203h14.423v74.203z" fill="#338af3"/><path d="m233.739 234.935v60.503c5.101 3.753 10.588 6.337 14.84 7.989v-68.492z" fill="#d80027"/><path d="m278.261 234.935v60.503c-5.101 3.753-10.588 6.337-14.84 7.989v-68.492z" fill="#d80027"/><path d="m218.902 218.808h74.207v23.541h-74.207z" fill="#0052b4"/></svg>