<svg enable-background="new 0 0 512 512" viewBox="0 0 512 512" xmlns="http://www.w3.org/2000/svg"><path d="m0 85.337h512v341.326h-512z"/><path d="m512 256v170.663h-512l215.185-170.663z" fill="#6da544"/><path d="m512 85.337v170.663h-296.815l-215.185-170.663z" fill="#d80027"/><path d="m221.001 239.304-194.133-153.967h-17.912l208.168 165.098h294.876v-11.131z"/><path d="m8.956 426.663h17.912l194.133-153.967h290.999v-11.131h-294.876z"/><path d="m0 92.44v14.206l188.317 149.354-188.317 149.354v14.205l206.229-163.559z"/><g fill="#ffda44"><path d="m8.956 85.337h-8.956v7.103l206.229 163.56-206.229 163.559v7.104h8.956l208.168-165.098h294.876v-11.13h-294.876z"/><path d="m63.718 292.382v-14.295c14.265 0 25.87-11.606 25.87-25.869 0-10.092-8.211-18.303-18.304-18.303-6.875 0-12.469 5.593-12.469 12.469 0 4.397 3.577 7.974 7.974 7.974 2.485 0 4.508-2.023 4.508-4.508h14.295c0 10.368-8.435 18.804-18.802 18.804-12.279-.002-22.269-9.993-22.269-22.271 0-14.758 12.006-26.764 26.764-26.764 17.975 0 32.599 14.623 32.599 32.599 0 22.145-18.018 40.164-40.166 40.164z"/></g></svg>