<svg enable-background="new 0 0 512 512" viewBox="0 0 512 512" xmlns="http://www.w3.org/2000/svg"><path d="m0 85.331h512v341.337h-512z" fill="#d80027"/><path d="m0 85.331h256v170.663h-256z" fill="#0052b4"/><g fill="#f0f0f0"><path d="m165.483 181.79 2.764 8.504h8.939l-7.232 5.254 2.763 8.503-7.234-5.255-7.233 5.255 2.763-8.503-7.233-5.254h8.94z"/><path d="m120.579 115.007 4.606 14.173h14.9l-12.055 8.757 4.605 14.171-12.056-8.758-12.054 8.758 4.605-14.171-12.056-8.757h14.901z"/><path d="m165.101 129.848 4.606 14.172h14.9l-12.055 8.757 4.604 14.173-12.055-8.76-12.054 8.76 4.604-14.173-12.055-8.757h14.9z"/><path d="m129.909 189.211 4.606 14.172h14.9l-12.055 8.758 4.604 14.171-12.055-8.759-12.054 8.759 4.604-14.171-12.055-8.758h14.9z"/><path d="m90.899 152.108 4.605 14.173h14.9l-12.055 8.757 4.604 14.173-12.054-8.76-12.055 8.76 4.604-14.173-12.055-8.757h14.9z"/></g></svg>