<svg enable-background="new 0 0 512 512" viewBox="0 0 512 512" xmlns="http://www.w3.org/2000/svg"><path d="m0 85.331h512v341.337h-512z" fill="#496e2d"/><path d="m490.668 195.476h-48c0-8.836-7.164-16-16-16s-16 7.164-16 16h-48c0 8.836 7.697 16 16.533 16h-.533c0 8.836 7.162 16 16 16 0 8.836 7.162 16 16 16h32c8.836 0 16-7.164 16-16 8.836 0 16-7.164 16-16h-.533c8.837 0 16.533-7.164 16.533-16z" fill="#ff9811"/><path d="m341.337 255.994h56.888v170.663h-56.888z" fill="#d80027"/><path d="m455.112 255.994h56.888v170.663h-56.888z" fill="#ff9811"/><path d="m398.225 255.994h56.888v170.663h-56.888z"/></svg>