<svg enable-background="new 0 0 512 512" viewBox="0 0 512 512" xmlns="http://www.w3.org/2000/svg"><path d="m0 85.333h512v341.337h-512z"/><path d="m0 134.196h512v48.868h-512z" fill="#ffda44"/><path d="m0 329.668h512v48.868h-512z" fill="#ffda44"/><path d="m0 85.333h512v48.868h-512z" fill="#6da544"/><path d="m0 183.069h512v48.868h-512z" fill="#d80027"/><path d="m0 280.806h512v48.868h-512z" fill="#d80027"/><path d="m0 378.542h512v48.128h-512z" fill="#6da544"/><path d="m276.992 255.996-170.663 170.663h-106.329v-341.326h106.329z" fill="#f0f0f0"/><path d="m256 255.996-170.666 170.666h20.987l170.667-170.666-170.667-170.666h-20.987z"/><path d="m102.465 202.57 13.259 40.812h42.917l-34.718 25.226 13.26 40.814-34.718-25.224-34.72 25.224 13.262-40.814-34.718-25.226h42.915z" fill="#d80027"/><path d="m138.94 259.335-34.559-12.243s-2.553-23.955-2.708-24.766c-1.173-6.18-6.603-10.851-13.123-10.851-7.376 0-13.357 5.98-13.357 13.357 0 1.223.178 2.402.486 3.528l-9.689 9.755h17.229c0 17.882-13.344 17.882-13.344 35.691l7.402 17.809h44.522l7.422-17.809h-.004c.744-1.709 1.194-3.47 1.381-5.231 6.397-2.589 8.342-9.24 8.342-9.24z" fill="#ffda44"/></svg>