<svg height="680pt" preserveAspectRatio="xMidYMid meet" viewBox="0 0 680 680" width="680pt" xmlns="http://www.w3.org/2000/svg"><path d="m3235 5876c-253-49-486-199-625-401-49-71-116-221-142-315-33-122-33-338 0-460 51-188 167-376 305-491 142-119 263-175 480-223l27-6v-135-135h-1220-1220v-564-565l-312-3c-293-3-316-4-358-24-54-25-103-72-133-128l-22-41v-640-640l29-53c17-29 48-66 70-83 82-60 83-60 752-57l609 3 55 30c60 33 114 96 130 153 14 51 14 1243 0 1294-16 56-68 117-130 152l-55 31-208 3-207 4v454 454h1115 1115v-454-455l-262-3c-263-3-263-3-313-30-63-33-98-70-127-133l-23-50v-620-620l24-52c13-29 41-69 63-89 80-72 45-69 722-72 706-3 686-5 772 81s84 67 84 752c0 668 1 662-71 740-23 24-62 54-87 67-45 22-59 23-304 26l-258 3v455 454h1115 1115v-454-454l-207-4c-191-3-211-5-249-25-65-34-100-69-128-125l-26-52v-631-631l26-52c28-56 63-90 128-125 41-22 44-22 650-25 669-3 670-3 752 57 22 17 53 54 70 83l29 53v640 640l-22 41c-30 56-79 103-133 128-42 20-65 21-357 24l-313 3v565 564h-1225-1225v134c0 149-6 138 75 151 107 17 264 85 371 160 86 61 217 204 269 293 126 216 166 486 105 717-27 102-104 263-163 341-53 70-154 167-222 214-70 48-220 116-310 140-103 28-300 35-400 16zm193-303c26-61 49-152 58-225l7-58h-93-93l7 58c12 104 65 272 86 272 4 0 17-21 28-47zm-327-79c-11-55-23-125-27-157s-12-61-18-65c-6-3-67-16-136-28s-140-25-159-29l-33-8 17 34c49 94 138 202 215 261 46 35 153 99 157 94 2-2-5-48-16-102zm699 32c95-64 180-157 245-270l28-48-24 7c-13 5-85 20-159 35l-135 27-7 34c-16 78-60 265-65 278-6 15 30-4 117-63zm-280-596v-120h-120-120v120 120h120 120zm-480 0c0-90 0-90-25-90-65 0-250 50-295 80-13 9-13 11 0 20 46 30 217 77 288 79l32 1zm895 64c70-18 155-53 155-64 0-21-168-74-272-86l-58-7v93 93l58-7c31-4 84-14 117-22zm115-347c0-22-72-135-123-193-66-74-234-190-251-173-2 2 6 43 19 92 13 48 27 113 31 145 3 31 11 62 16 68 4 7 37 15 71 19s98 17 142 30c100 28 95 28 95 12zm-1230-22c31-8 93-22 139-30s86-16 88-18c2-3 8-33 14-68 10-63 43-201 55-234 6-16 4-16-27 0-141 73-271 203-343 343-17 32-17 34 1 28 10-2 43-12 73-21zm666-112c-4-32-11-75-17-95l-10-38h-59-59l-10 38c-6 20-13 63-17 95l-7 57h93 93z" transform="matrix(.1 0 0 -.1 0 680)"/></svg>