<?xml version="1.0" standalone="no"?>
<!DOCTYPE svg PUBLIC "-//W3C//DTD SVG 20010904//EN"
 "http://www.w3.org/TR/2001/REC-SVG-20010904/DTD/svg10.dtd">
<svg version="1.0" xmlns="http://www.w3.org/2000/svg"
 width="680.000000pt" height="680.000000pt" viewBox="0 0 680.000000 680.000000"
 preserveAspectRatio="xMidYMid meet">
<metadata>
Created by potrace 1.11, written by Peter Selinger 2001-2013
</metadata>
<g transform="translate(0.000000,680.000000) scale(0.100000,-0.100000)"
fill="#000000" stroke="none">
<path d="M3235 5876 c-253 -49 -486 -199 -625 -401 -49 -71 -116 -221 -142
-315 -33 -122 -33 -338 0 -460 51 -188 167 -376 305 -491 142 -119 263 -175
480 -223 l27 -6 0 -135 0 -135 -1220 0 -1220 0 0 -564 0 -565 -312 -3 c-293
-3 -316 -4 -358 -24 -54 -25 -103 -72 -133 -128 l-22 -41 0 -640 0 -640 29
-53 c17 -29 48 -66 70 -83 82 -60 83 -60 752 -57 l609 3 55 30 c60 33 114 96
130 153 14 51 14 1243 0 1294 -16 56 -68 117 -130 152 l-55 31 -208 3 -207 4
0 454 0 454 1115 0 1115 0 0 -454 0 -455 -262 -3 c-263 -3 -263 -3 -313 -30
-63 -33 -98 -70 -127 -133 l-23 -50 0 -620 0 -620 24 -52 c13 -29 41 -69 63
-89 80 -72 45 -69 722 -72 706 -3 686 -5 772 81 86 86 84 67 84 752 0 668 1
662 -71 740 -23 24 -62 54 -87 67 -45 22 -59 23 -304 26 l-258 3 0 455 0 454
1115 0 1115 0 0 -454 0 -454 -207 -4 c-191 -3 -211 -5 -249 -25 -65 -34 -100
-69 -128 -125 l-26 -52 0 -631 0 -631 26 -52 c28 -56 63 -90 128 -125 41 -22
44 -22 650 -25 669 -3 670 -3 752 57 22 17 53 54 70 83 l29 53 0 640 0 640
-22 41 c-30 56 -79 103 -133 128 -42 20 -65 21 -357 24 l-313 3 0 565 0 564
-1225 0 -1225 0 0 134 c0 149 -6 138 75 151 107 17 264 85 371 160 86 61 217
204 269 293 126 216 166 486 105 717 -27 102 -104 263 -163 341 -53 70 -154
167 -222 214 -70 48 -220 116 -310 140 -103 28 -300 35 -400 16z m193 -303
c26 -61 49 -152 58 -225 l7 -58 -93 0 -93 0 7 58 c12 104 65 272 86 272 4 0
17 -21 28 -47z m-327 -79 c-11 -55 -23 -125 -27 -157 -4 -32 -12 -61 -18 -65
-6 -3 -67 -16 -136 -28 -69 -12 -140 -25 -159 -29 l-33 -8 17 34 c49 94 138
202 215 261 46 35 153 99 157 94 2 -2 -5 -48 -16 -102z m699 32 c95 -64 180
-157 245 -270 l28 -48 -24 7 c-13 5 -85 20 -159 35 l-135 27 -7 34 c-16 78
-60 265 -65 278 -6 15 30 -4 117 -63z m-280 -596 l0 -120 -120 0 -120 0 0 120
0 120 120 0 120 0 0 -120z m-480 0 c0 -90 0 -90 -25 -90 -65 0 -250 50 -295
80 -13 9 -13 11 0 20 46 30 217 77 288 79 l32 1 0 -90z m895 64 c70 -18 155
-53 155 -64 0 -21 -168 -74 -272 -86 l-58 -7 0 93 0 93 58 -7 c31 -4 84 -14
117 -22z m115 -347 c0 -22 -72 -135 -123 -193 -66 -74 -234 -190 -251 -173 -2
2 6 43 19 92 13 48 27 113 31 145 3 31 11 62 16 68 4 7 37 15 71 19 34 4 98
17 142 30 100 28 95 28 95 12z m-1230 -22 c31 -8 93 -22 139 -30 46 -8 86 -16
88 -18 2 -3 8 -33 14 -68 10 -63 43 -201 55 -234 6 -16 4 -16 -27 0 -141 73
-271 203 -343 343 -17 32 -17 34 1 28 10 -2 43 -12 73 -21z m666 -112 c-4 -32
-11 -75 -17 -95 l-10 -38 -59 0 -59 0 -10 38 c-6 20 -13 63 -17 95 l-7 57 93
0 93 0 -7 -57z"/>
</g>
</svg>
