<svg width="32" height="24" fill="none" xmlns="http://www.w3.org/2000/svg"><mask id="a" mask-type="alpha" maskUnits="userSpaceOnUse" x="0" y="0" width="32" height="24"><path fill="#fff" d="M0 0h32v24H0z"/></mask><g mask="url(#a)"><path fill-rule="evenodd" clip-rule="evenodd" d="M0 0v24h32V0H0Z" fill="#2E42A5"/><mask id="b" mask-type="alpha" maskUnits="userSpaceOnUse" x="0" y="0" width="32" height="24"><path fill-rule="evenodd" clip-rule="evenodd" d="M0 0v24h32V0H0Z" fill="#fff"/></mask><g mask="url(#b)"><mask id="c" mask-type="alpha" maskUnits="userSpaceOnUse" x="0" y="0" width="32" height="24"><path fill="#fff" d="M0 0h32v24H0z"/></mask><g mask="url(#c)"><path d="m-3.563 22.285 7.041 2.978L32.16 3.238l3.714-4.426-7.53-.995-11.698 9.491-9.416 6.396-10.793 8.581Z" fill="#fff"/><path d="M-2.6 24.372.989 26.1 34.54-1.599h-5.037l-32.102 25.97Z" fill="#F50100"/><path d="m35.563 22.285-7.042 2.978L-.159 3.238l-3.715-4.426 7.53-.995 11.698 9.491 9.416 6.396 10.793 8.581Z" fill="#fff"/><path d="m35.323 23.783-3.588 1.728-14.286-11.86-4.236-1.324-17.445-13.5H.806l17.434 13.18 4.631 1.588 12.452 10.188Z" fill="#F50100"/><mask id="d" fill="#fff"><path fill-rule="evenodd" clip-rule="evenodd" d="M19.778-2h-7.556V8H-1.973v8h14.195v10h7.556V16h14.25V8h-14.25V-2Z"/></mask><path fill-rule="evenodd" clip-rule="evenodd" d="M19.778-2h-7.556V8H-1.973v8h14.195v10h7.556V16h14.25V8h-14.25V-2Z" fill="#F50100"/><path d="M12.222-2v-2h-2v2h2Zm7.556 0h2v-2h-2v2ZM12.222 8v2h2V8h-2ZM-1.973 8V6h-2v2h2Zm0 8h-2v2h2v-2Zm14.195 0h2v-2h-2v2Zm0 10h-2v2h2v-2Zm7.556 0v2h2v-2h-2Zm0-10v-2h-2v2h2Zm14.25 0v2h2v-2h-2Zm0-8h2V6h-2v2Zm-14.25 0h-2v2h2V8Zm-7.556-8h7.556v-4h-7.556v4Zm2 8V-2h-4V8h4Zm-16.195 2h14.195V6H-1.973v4Zm2 6V8h-4v8h4Zm12.195-2H-1.973v4h14.195v-4Zm2 12V16h-4v10h4Zm5.556-2h-7.556v4h7.556v-4Zm-2-8v10h4V16h-4Zm16.25-2h-14.25v4h14.25v-4Zm-2-6v8h4V8h-4Zm-12.25 2h14.25V6h-14.25v4Zm-2-12V8h4V-2h-4Z" fill="#fff" mask="url(#d)"/></g></g></g></svg>