<svg width="32" height="24" fill="none" xmlns="http://www.w3.org/2000/svg"><mask id="a" mask-type="alpha" maskUnits="userSpaceOnUse" x="0" y="0" width="32" height="24"><path fill="#fff" d="M0 0h32v24H0z"/></mask><g mask="url(#a)"><path fill-rule="evenodd" clip-rule="evenodd" d="M0 0v24h32V0H0Z" fill="#BF2714"/><mask id="b" mask-type="alpha" maskUnits="userSpaceOnUse" x="0" y="0" width="32" height="24"><path fill-rule="evenodd" clip-rule="evenodd" d="M0 0v24h32V0H0Z" fill="#fff"/></mask><g mask="url(#b)"><path fill-rule="evenodd" clip-rule="evenodd" d="M0-2v14h32V-2H0Z" fill="#3D58DB"/></g><path fill-rule="evenodd" clip-rule="evenodd" d="M0 0v24l18-12L0 0Z" fill="#F7FCFF"/><mask id="c" mask-type="alpha" maskUnits="userSpaceOnUse" x="0" y="0" width="18" height="24"><path fill-rule="evenodd" clip-rule="evenodd" d="M0 0v24l18-12L0 0Z" fill="#fff"/></mask><g mask="url(#c)" fill-rule="evenodd" clip-rule="evenodd" fill="#FECA00"><path d="m13.605 10.92 1.276.492.759-.893.02 1.195 1.174.382-1.236.42.082 1.097-.814-.84-1.28.242.756-.968-.737-1.127Zm-12 6 1.173.519.862-.92-.083 1.221 1.277.356-1.339.446.185 1.071-.933-.765-1.16.168.652-.943-.634-1.153Zm0-12 1.298.478.737-.879.042 1.18 1.152.397L3.62 6.5l.06 1.112-.808-.806-1.286.208.778-.982-.759-1.113Zm6.516 9.613a2.5 2.5 0 1 0 0-5 2.5 2.5 0 0 0 0 5Z"/><path d="m7.826 8.24.134 1.606a.224.224 0 0 0 .443.007l.177-1.6a.38.38 0 1 0-.754-.013Zm-.418.776.207.698c.02.065.085.105.158.093a.112.112 0 0 0 .083-.135l-.166-.701a.158.158 0 0 0-.195-.116.13.13 0 0 0-.087.16Zm1.123.728c-.017.06.018.12.085.138a.133.133 0 0 0 .153-.088l.232-.69a.13.13 0 0 0-.097-.169.158.158 0 0 0-.183.114l-.19.695Zm2.077-.703L9.49 10.276a.224.224 0 0 0 .308.318l1.334-1.01a.38.38 0 1 0-.524-.543Zm-.34 2.62 1.669-.129a.381.381 0 1 1-.013.754l-1.664-.182a.224.224 0 0 1 .008-.443Zm.866 2.659-1.296-1.13a.224.224 0 0 0-.319.308l1.072 1.345a.381.381 0 1 0 .543-.524Zm-2.682-.351.099 1.685a.381.381 0 1 1-.754-.013l.213-1.68a.224.224 0 0 1 .442.008Zm-2.631.91 1.101-1.34a.224.224 0 0 0-.307-.319l-1.318 1.117a.381.381 0 1 0 .524.542Zm.324-2.726-1.68.138a.381.381 0 1 1 .014-.754l1.673.174a.224.224 0 0 1-.007.442ZM5.15 9.522l1.425 1.101a.224.224 0 0 0 .318-.307l-1.2-1.318a.38.38 0 1 0-.543.524Zm4.189.417.347-.64a.13.13 0 0 1 .19-.044c.067.048.085.14.042.211l-.38.613a.112.112 0 0 1-.153.036.135.135 0 0 1-.046-.176Zm1.759 1.17-.699.207a.135.135 0 0 0-.092.158c.014.06.074.097.134.083l.701-.166a.158.158 0 0 0 .116-.195.13.13 0 0 0-.16-.087Zm-.924 1.931.641.347a.13.13 0 0 1 .043.19.158.158 0 0 1-.21.041l-.614-.378a.112.112 0 0 1-.036-.154.135.135 0 0 1 .176-.046Zm-1.17 1.76-.207-.699a.135.135 0 0 0-.157-.092.112.112 0 0 0-.083.134l.165.702a.158.158 0 0 0 .195.115.13.13 0 0 0 .088-.16Zm-1.93-.923-.348.64a.13.13 0 0 1-.19.043.158.158 0 0 1-.041-.21l.379-.614a.112.112 0 0 1 .153-.036c.061.043.079.117.046.177Zm-1.76-1.17.7-.208a.135.135 0 0 0 .091-.157.112.112 0 0 0-.134-.083l-.701.165a.158.158 0 0 0-.116.195.13.13 0 0 0 .16.088Zm.924-1.932-.64-.347a.13.13 0 0 1-.044-.19.158.158 0 0 1 .211-.041l.613.379a.112.112 0 0 1 .036.153.135.135 0 0 1-.176.046Zm3.728-.167c-.054.03-.073.099-.039.158a.134.134 0 0 0 .171.046l.653-.324a.13.13 0 0 0 .05-.188.158.158 0 0 0-.21-.05l-.625.358Zm.265 1.71c.018-.066.08-.102.139-.085l.695.19a.158.158 0 0 1 .109.199.13.13 0 0 1-.164.081l-.69-.232a.133.133 0 0 1-.089-.154Zm-.724 1.35a.112.112 0 0 0-.158-.038.133.133 0 0 0-.047.17l.325.653a.13.13 0 0 0 .187.05.158.158 0 0 0 .05-.21l-.357-.625Zm-1.71.265c.066.018.101.08.085.139l-.19.695a.158.158 0 0 1-.2.109.13.13 0 0 1-.08-.164l.231-.69a.133.133 0 0 1 .154-.089Zm-1.35-.724c.053-.03.072-.1.038-.158a.133.133 0 0 0-.171-.047l-.653.325a.13.13 0 0 0-.05.187c.047.07.138.09.21.05l.626-.357Zm-.266-1.71c-.018.066-.079.101-.138.085l-.695-.19a.158.158 0 0 1-.11-.2.13.13 0 0 1 .164-.08l.691.231a.133.133 0 0 1 .088.154Zm.725-1.35c.03.053.098.072.158.038a.133.133 0 0 0 .046-.171l-.324-.653a.13.13 0 0 0-.188-.05.158.158 0 0 0-.05.21l.358.626Z"/></g></g></svg>