<svg width="32" height="24" fill="none" xmlns="http://www.w3.org/2000/svg"><mask id="a" mask-type="alpha" maskUnits="userSpaceOnUse" x="0" y="0" width="32" height="24"><path fill="#fff" d="M0 0h32v24H0z"/></mask><g mask="url(#a)"><path fill-rule="evenodd" clip-rule="evenodd" d="M0 0v24h32V0H0Z" fill="#EF0000"/><mask id="b" mask-type="alpha" maskUnits="userSpaceOnUse" x="0" y="0" width="32" height="24"><path fill-rule="evenodd" clip-rule="evenodd" d="M0 0v24h32V0H0Z" fill="#fff"/></mask><g mask="url(#b)" fill-rule="evenodd" clip-rule="evenodd"><path d="M0 0v14h18V0H0Z" fill="#2E42A5"/><path d="m8.73 10.81-1.482 1.85-.359-2.342-2.207.86.86-2.208L3.2 8.611 5.048 7.13 3.2 5.648l2.342-.359-.86-2.207 2.207.86.359-2.342L8.73 3.45l1.48-1.85.36 2.342 2.207-.86-.86 2.207 2.341.36-1.848 1.48 1.848 1.482-2.341.36.86 2.207-2.208-.86-.359 2.341-1.481-1.848Zm0-.818a2.862 2.862 0 1 0 0-5.725 2.862 2.862 0 0 0 0 5.725Zm2.29-2.862a2.29 2.29 0 1 1-4.58 0 2.29 2.29 0 0 1 4.58 0Z" fill="#FEFFFF"/></g></g></svg>